<?xml version="1.0" encoding="iso-8859-1"?>
<!-- Generator: Adobe Illustrator 21.0.0, SVG Export Plug-In . SVG Version: 6.00 Build 0)  -->
<svg version="1.1" id="&#x56FE;&#x5C42;_1" xmlns="http://www.w3.org/2000/svg" xmlns:xlink="http://www.w3.org/1999/xlink" x="0px"
	 y="0px" viewBox="0 0 800 420" style="enable-background:new 0 0 800 420;" xml:space="preserve">
<g>
	<polygon style="fill:#CBD5DF;" points="122.32,303.464 127.011,324.966 170.993,309.523 166.106,288.51 	"/>
	<polygon style="fill:#515459;" points="165.942,289.414 153.009,305.809 140.173,309.719 134.063,322.49 170.993,309.523 	"/>
	<polyline style="fill:none;stroke:#C2C9D4;stroke-miterlimit:10;" points="166.106,287.826 170.993,309.523 127.011,324.966 
		122.32,303.464 166.106,287.826 	"/>
</g>
<g>
	<polygon style="fill:#CBD5DF;" points="127.296,326.346 131.987,347.848 175.969,332.406 171.082,311.392 	"/>
	<polygon style="fill:#515459;" points="170.918,312.296 157.985,328.692 145.149,332.601 139.039,345.372 175.969,332.406 	"/>
	<polyline style="fill:none;stroke:#C2C9D4;stroke-miterlimit:10;" points="171.082,310.708 175.969,332.406 131.987,347.848 
		127.296,326.346 171.082,310.708 	"/>
</g>
<g>
	<g>
		<polygon style="fill:#CBD5DF;" points="112.937,251.858 122.32,303.464 166.106,287.826 155.942,237.002 		"/>
		<polygon style="fill:#8D9196;" points="160.297,258.78 130.921,269.321 136.452,298.416 166.106,287.826 		"/>
		<polygon style="fill:#52545A;" points="160.297,258.78 136.452,298.416 166.106,287.826 		"/>
		<polygon style="fill:#AAAEB3;" points="147.145,256.55 150.403,279.42 158.874,286.457 156.137,263.391 		"/>
	</g>
	<polygon style="fill:#99A8B1;" points="147.145,245.798 140.14,247.954 143.333,253.617 150.273,251.272 	"/>
	
		<line style="fill:none;stroke:#68707B;stroke-width:0.25;stroke-miterlimit:10;" x1="141.73" y1="250.773" x2="148.727" y2="248.567"/>
	
		<line style="fill:none;stroke:#68707B;stroke-width:0.25;stroke-miterlimit:10;" x1="143.636" y1="246.898" x2="147.034" y2="252.375"/>
	<polygon style="fill:none;stroke:#C2C9D4;stroke-miterlimit:10;" points="122.32,303.464 112.937,251.858 155.942,237.002 
		166.106,287.826 	"/>
</g>
<polygon style="fill:#5A6169;" points="688.417,147.605 684.768,151.514 680.076,153.078 671.188,168.736 676.167,166.892 
	678.513,170.41 688.417,154.12 691.023,148.777 "/>
<g>
	<polygon style="fill:#CBD5DF;" points="157.505,237.002 163.226,264.409 190.345,254.986 184.518,228.357 	"/>
	<g>
		<path style="fill:#C2C9D4;" d="M162.007,266.444l-6.375-30.198l30.022-9.93l6.522,29.568L162.007,266.444z M157.444,237.266
			l5.725,27.113l27.171-9.51l-5.821-26.495L157.444,237.266z"/>
	</g>
	<polygon style="fill:#5E626A;" points="187.413,246.776 167.084,253.617 166.191,262.559 189.379,254.471 	"/>
	<polygon style="fill:#13453D;" points="169.813,241.802 179.48,238.363 184.074,247.899 174.495,251.123 	"/>
</g>
<g>
	<polygon style="fill:none;stroke:#C2C9D4;stroke-miterlimit:10;" points="185.263,227.228 202.856,221.755 209.895,248.92 
		192.047,255.096 	"/>
	<polygon style="fill:#CBD5DF;" points="185.42,227.872 203.01,222.349 209.895,248.92 192.047,255.096 	"/>
	<polygon style="fill:#5E626A;" points="205.86,233.227 193.734,250.555 193.734,254.513 209.763,248.861 	"/>
</g>
<polygon style="fill:#B8BDC2;" points="244.417,234.378 239.019,290.819 234.107,291.328 239.019,308.351 269.768,297.793 "/>
<g>
	<polygon style="fill:none;stroke:#C2C9D4;stroke-miterlimit:10;" points="202.856,221.755 237.39,210.808 244.557,237.523 
		209.763,248.861 	"/>
	<polygon style="fill:#CBD5DF;" points="202.856,221.755 236.747,211.012 244.417,237.002 209.763,248.861 	"/>
	<g>
		<polygon style="fill:#99A8B1;" points="214.753,224.448 207.748,226.603 210.942,232.267 217.881,229.921 		"/>
		
			<line style="fill:none;stroke:#68707B;stroke-width:0.25;stroke-miterlimit:10;" x1="209.338" y1="229.422" x2="216.335" y2="227.216"/>
		
			<line style="fill:none;stroke:#68707B;stroke-width:0.25;stroke-miterlimit:10;" x1="211.244" y1="225.547" x2="214.642" y2="231.024"/>
		<polygon style="fill:#99A8B1;" points="227.199,219.691 220.194,221.846 223.387,227.51 230.326,225.164 		"/>
		
			<line style="fill:none;stroke:#68707B;stroke-width:0.25;stroke-miterlimit:10;" x1="221.783" y1="224.666" x2="228.78" y2="222.459"/>
		
			<line style="fill:none;stroke:#68707B;stroke-width:0.25;stroke-miterlimit:10;" x1="223.689" y1="220.79" x2="227.087" y2="226.268"/>
	</g>
	<polygon style="fill:#5E606A;" points="211.03,247.657 212.141,238.426 221.328,236.416 232.763,218.53 236.477,218.53 
		242.226,237.087 237.748,238.363 234.62,225.176 227.29,235.731 235.011,239.543 	"/>
</g>
<g>
	<polygon style="fill:none;stroke:#C2C9D4;stroke-miterlimit:10;" points="193.734,275.576 200.901,303.464 257.849,283.134 
		248.336,256.028 	"/>
	<polygon style="fill:#CBD5DF;" points="194.646,276.097 201.496,302.573 257.302,283.33 247.717,256.55 	"/>
	<polygon style="fill:#5E626A;" points="247.983,257.291 231.884,279.029 204.224,288.51 202.304,302.294 257.302,283.33 	"/>
</g>
<g>
	<polygon style="fill:none;stroke:#C2C9D4;stroke-miterlimit:10;" points="200.901,303.464 205.201,320.275 239.019,308.351 
		234.106,292.235 	"/>
	<polygon style="fill:#CBD5DF;" points="201.696,304.058 205.723,319.463 238.114,308.042 233.479,292.901 	"/>
	<polygon style="fill:#5E626A;" points="233.536,293.089 225.734,302.732 206.578,309.314 205.057,319.797 238.114,308.141 	"/>
</g>
<g>
	<polyline style="fill:#CBD5DF;" points="244.557,238.426 163.077,266.071 177.274,330.619 205.273,320.583 194.373,275.918 
		247.604,256.861 	"/>
	<polyline style="fill:none;stroke:#C2C9D4;stroke-width:2;stroke-miterlimit:10;" points="245.665,237.002 162.075,265.059 
		176.816,332.406 205.057,321.979 193.734,275.576 249.036,255.778 	"/>
	<path style="fill:#5E626A;" d="M235.696,258.78l-3.388-4.544l-53.43,18.733c0,0-4.253,4.952-2.908,10.425
		c1.344,5.473,4.993,25.281,4.993,25.281l-3.177,20.944l25.07-9.346l-10.68-45.481L235.696,258.78z"/>
	<polygon style="fill:#99A8B1;" points="225.26,247.431 228.4,253.065 243.126,247.983 239.868,242.249 	"/>
	
		<line style="fill:none;stroke:#68707B;stroke-width:0.25;stroke-miterlimit:10;" x1="226.889" y1="250.354" x2="241.511" y2="245.142"/>
	
		<line style="fill:none;stroke:#68707B;stroke-width:0.25;stroke-miterlimit:10;" x1="232.236" y1="244.956" x2="235.992" y2="250.445"/>
</g>
<g>
	<g>
		<polygon style="fill:#CBD5DF;" points="243.71,232.245 237.702,209.832 639.401,76.232 628.992,99.648 		"/>
	</g>
	<g>
		<polygon style="fill:#99A8B1;" points="251.865,211.747 284.119,200.605 286.855,208.229 255.034,219.617 		"/>
		
			<line style="fill:none;stroke:#68707B;stroke-width:0.25;stroke-miterlimit:10;" x1="253.595" y1="215.537" x2="285.535" y2="204.55"/>
		
			<line style="fill:none;stroke:#68707B;stroke-width:0.25;stroke-miterlimit:10;" x1="267.727" y1="206.268" x2="270.828" y2="213.965"/>
	</g>
	<g>
		<polygon style="fill:#99A8B1;" points="340.587,182.175 370.453,171.858 371.392,180.125 341.368,190.87 		"/>
		
			<line style="fill:none;stroke:#68707B;stroke-width:0.25;stroke-miterlimit:10;" x1="340.97" y1="186.432" x2="370.659" y2="176.219"/>
		
			<line style="fill:none;stroke:#68707B;stroke-width:0.25;stroke-miterlimit:10;" x1="354.836" y1="177.253" x2="355.612" y2="185.772"/>
	</g>
	<g>
		<polygon style="fill:#99A8B1;" points="381.847,168.449 411.712,158.132 412.651,166.399 382.628,177.143 		"/>
		
			<line style="fill:none;stroke:#68707B;stroke-width:0.25;stroke-miterlimit:10;" x1="382.229" y1="172.705" x2="411.918" y2="162.492"/>
		
			<line style="fill:none;stroke:#68707B;stroke-width:0.25;stroke-miterlimit:10;" x1="396.096" y1="163.527" x2="396.871" y2="172.046"/>
	</g>
	<g>
		<polygon style="fill:#99A8B1;" points="423.211,154.12 453.077,143.803 454.016,152.07 423.993,162.815 		"/>
		
			<line style="fill:none;stroke:#68707B;stroke-width:0.25;stroke-miterlimit:10;" x1="423.594" y1="158.376" x2="453.283" y2="148.163"/>
		
			<line style="fill:none;stroke:#68707B;stroke-width:0.25;stroke-miterlimit:10;" x1="437.46" y1="149.198" x2="438.236" y2="157.717"/>
	</g>
	<g>
		<polygon style="fill:#99A8B1;" points="461.916,140.806 491.781,130.489 492.72,138.755 462.697,149.5 		"/>
		
			<line style="fill:none;stroke:#68707B;stroke-width:0.25;stroke-miterlimit:10;" x1="462.298" y1="145.062" x2="491.987" y2="134.849"/>
		
			<line style="fill:none;stroke:#68707B;stroke-width:0.25;stroke-miterlimit:10;" x1="476.165" y1="135.883" x2="476.94" y2="144.403"/>
	</g>
	<g>
		<polygon style="fill:#99A8B1;" points="499.488,128.686 529.354,118.369 530.293,126.636 500.269,137.381 		"/>
		
			<line style="fill:none;stroke:#68707B;stroke-width:0.25;stroke-miterlimit:10;" x1="499.871" y1="132.943" x2="529.56" y2="122.73"/>
		
			<line style="fill:none;stroke:#68707B;stroke-width:0.25;stroke-miterlimit:10;" x1="513.737" y1="123.764" x2="514.513" y2="132.283"/>
	</g>
	<g>
		<polygon style="fill:#99A8B1;" points="297.885,196.766 327.751,186.448 328.69,194.715 298.666,205.46 		"/>
		
			<line style="fill:none;stroke:#68707B;stroke-width:0.25;stroke-miterlimit:10;" x1="298.268" y1="201.022" x2="327.957" y2="190.809"/>
		
			<line style="fill:none;stroke:#68707B;stroke-width:0.25;stroke-miterlimit:10;" x1="312.134" y1="191.843" x2="312.91" y2="200.363"/>
	</g>
	<polygon style="fill:#5F6876;" points="290.689,198.689 288.344,199.34 293.882,214.978 296.165,214.193 	"/>
	<polygon style="fill:#5F6876;" points="334.867,183.246 332.521,183.898 334.965,200.057 337.248,199.271 	"/>
	<polygon style="fill:#5F6876;" points="375.821,169.368 373.475,170.019 375.919,186.178 378.202,185.393 	"/>
	<polygon style="fill:#5F6876;" points="420.224,155.098 417.879,155.749 418.234,171.294 420.518,170.508 	"/>
	<polygon style="fill:#5F6876;" points="459.319,141.936 456.974,142.587 456.71,158.132 458.994,157.346 	"/>
	<polygon style="fill:#5F6876;" points="497.926,128.64 495.58,129.291 495.316,144.835 497.6,144.049 	"/>
	<polygon style="fill:#5F6876;" points="534.465,116.075 532.119,116.727 531.855,132.271 534.139,131.485 	"/>
	<g>
		<polygon style="fill:#99A8B1;" points="553.017,110.204 551.975,117.371 558.751,116.075 559.533,109.031 		"/>
		
			<line style="fill:none;stroke:#68707B;stroke-width:0.25;stroke-miterlimit:10;" x1="552.533" y1="113.532" x2="559.156" y2="112.428"/>
		
			<line style="fill:none;stroke:#68707B;stroke-width:0.25;stroke-miterlimit:10;" x1="556.452" y1="109.583" x2="555.427" y2="116.711"/>
	</g>
	<g>
		<polygon style="fill:#99A8B1;" points="563.031,107.277 561.989,114.444 568.765,113.148 569.547,106.104 		"/>
		
			<line style="fill:none;stroke:#68707B;stroke-width:0.25;stroke-miterlimit:10;" x1="562.547" y1="110.605" x2="569.17" y2="109.501"/>
		
			<line style="fill:none;stroke:#68707B;stroke-width:0.25;stroke-miterlimit:10;" x1="566.466" y1="106.656" x2="565.44" y2="113.784"/>
	</g>
	<polygon style="fill:#5E626A;" points="584.945,100.625 563.312,120.238 589.115,132.271 596.674,113.201 	"/>
</g>
<g>
	<polygon style="fill:#CBD5DF;" points="586.458,96.169 595.715,114.696 615.978,105.824 605.486,89.632 	"/>
	<polygon style="fill:#B8BDC2;" points="594.994,110.899 596.411,113.605 615.978,105.824 613.711,102.854 	"/>
	<polygon style="fill:#5E626A;" points="605.682,94.769 600.052,111.58 616.172,106.032 	"/>
	<polygon style="fill:none;stroke:#C2C9D4;stroke-width:2;stroke-miterlimit:10;" points="585.494,95.841 595.702,115.062 
		616.877,106.526 605.791,89.099 	"/>
</g>
<polygon style="fill:#CBD5DF;" points="595.531,116.084 589.115,132.271 618.732,106.978 "/>
<polygon style="fill:#B8BDC2;" points="243.375,232.292 260.772,284.75 607.546,159.054 589.387,132.271 562.977,120.284 "/>
<line style="fill:none;stroke:#C2C9D4;stroke-width:2;stroke-miterlimit:10;" x1="133.926" y1="347.896" x2="691.069" y2="145.154"/>
<polygon style="fill:#64676D;" points="264.535,299.59 259.146,284.704 605.919,159.007 589.115,132.271 618.625,107.206 
	630.972,123.25 626.115,124.679 649.121,159.583 "/>
<polygon style="fill:#B6BDC3;" points="386.256,243.234 396.288,250.183 433.251,236.757 421.886,229.867 "/>
<g>
	<polygon style="fill:#B6BDC3;" points="290.939,277.654 286.29,279.367 289.636,281.824 294.186,280.134 	"/>
	<polygon style="fill:#B6BDC3;" points="283.684,280.361 279.034,282.074 282.38,284.531 286.931,282.842 	"/>
	<polygon style="fill:#B6BDC3;" points="276.433,282.939 271.783,284.652 275.129,287.109 279.68,285.419 	"/>
	<polygon style="fill:#B6BDC3;" points="269.702,285.532 265.053,287.245 268.399,289.702 272.95,288.013 	"/>
	<polygon style="fill:#B6BDC3;" points="295.387,281.364 290.737,283.077 294.083,285.534 298.634,283.845 	"/>
	<polygon style="fill:#B6BDC3;" points="288.131,284.072 283.482,285.785 286.828,288.242 291.379,286.552 	"/>
	<polygon style="fill:#B6BDC3;" points="280.88,286.649 276.231,288.362 279.577,290.819 284.128,289.13 	"/>
	<polygon style="fill:#B6BDC3;" points="274.15,289.243 269.501,290.956 272.847,293.413 277.398,291.723 	"/>
</g>
<g>
	<polygon style="fill:#B6BDC3;" points="330.523,263.384 325.873,265.097 329.219,267.554 333.77,265.864 	"/>
	<polygon style="fill:#B6BDC3;" points="323.267,266.092 318.618,267.805 321.964,270.262 326.515,268.572 	"/>
	<polygon style="fill:#B6BDC3;" points="316.016,268.669 311.367,270.382 314.713,272.839 319.264,271.15 	"/>
	<polygon style="fill:#B6BDC3;" points="309.286,271.263 304.637,272.976 307.983,275.433 312.534,273.743 	"/>
	<polygon style="fill:#B6BDC3;" points="334.97,267.094 330.321,268.808 333.667,271.265 338.218,269.575 	"/>
	<polygon style="fill:#B6BDC3;" points="327.715,269.802 323.066,271.515 326.412,273.972 330.963,272.283 	"/>
	<polygon style="fill:#B6BDC3;" points="320.464,272.38 315.815,274.093 319.161,276.55 323.712,274.86 	"/>
	<polygon style="fill:#B6BDC3;" points="313.734,274.973 309.085,276.686 312.431,279.143 316.981,277.454 	"/>
</g>
<g>
	<polygon style="fill:#B6BDC3;" points="375.873,246.866 371.224,248.579 374.57,251.036 379.12,249.347 	"/>
	<polygon style="fill:#B6BDC3;" points="368.618,249.574 363.969,251.287 367.315,253.744 371.865,252.054 	"/>
	<polygon style="fill:#B6BDC3;" points="361.367,252.151 356.717,253.864 360.063,256.321 364.614,254.632 	"/>
	<polygon style="fill:#B6BDC3;" points="354.636,254.745 349.987,256.458 353.333,258.915 357.884,257.225 	"/>
	<polygon style="fill:#B6BDC3;" points="380.321,250.577 375.672,252.29 379.017,254.747 383.568,253.057 	"/>
	<polygon style="fill:#B6BDC3;" points="373.066,253.284 368.416,254.998 371.762,257.455 376.313,255.765 	"/>
	<polygon style="fill:#B6BDC3;" points="365.814,255.862 361.165,257.575 364.511,260.032 369.062,258.342 	"/>
	<polygon style="fill:#B6BDC3;" points="359.084,258.456 354.435,260.169 357.781,262.626 362.332,260.936 	"/>
</g>
<g>
	<polygon style="fill:#B6BDC3;" points="461.882,215.721 457.233,217.434 460.579,219.891 465.13,218.201 	"/>
	<polygon style="fill:#B6BDC3;" points="454.627,218.429 449.978,220.142 453.324,222.599 457.874,220.909 	"/>
	<polygon style="fill:#B6BDC3;" points="447.376,221.006 442.727,222.719 446.073,225.176 450.623,223.487 	"/>
	<polygon style="fill:#B6BDC3;" points="440.646,223.6 435.996,225.313 439.342,227.77 443.893,226.08 	"/>
	<polygon style="fill:#B6BDC3;" points="466.33,219.431 461.681,221.145 465.027,223.602 469.577,221.912 	"/>
	<polygon style="fill:#B6BDC3;" points="459.075,222.139 454.425,223.852 457.771,226.309 462.322,224.62 	"/>
	<polygon style="fill:#B6BDC3;" points="451.824,224.717 447.174,226.43 450.52,228.887 455.071,227.197 	"/>
	<polygon style="fill:#B6BDC3;" points="445.093,227.31 440.444,229.023 443.79,231.48 448.341,229.791 	"/>
</g>
<g>
	<polygon style="fill:#B6BDC3;" points="501.816,200.605 497.166,202.318 500.512,204.775 505.063,203.086 	"/>
	<polygon style="fill:#B6BDC3;" points="494.56,203.313 489.911,205.026 493.257,207.483 497.808,205.794 	"/>
	<polygon style="fill:#B6BDC3;" points="487.309,205.89 482.66,207.604 486.006,210.061 490.557,208.371 	"/>
	<polygon style="fill:#B6BDC3;" points="480.579,208.484 475.93,210.197 479.276,212.654 483.827,210.965 	"/>
	<polygon style="fill:#B6BDC3;" points="506.263,204.316 501.614,206.029 504.96,208.486 509.511,206.796 	"/>
	<polygon style="fill:#B6BDC3;" points="499.008,207.024 494.359,208.737 497.705,211.194 502.256,209.504 	"/>
	<polygon style="fill:#B6BDC3;" points="491.757,209.601 487.108,211.314 490.454,213.771 495.004,212.082 	"/>
	<polygon style="fill:#B6BDC3;" points="485.027,212.195 480.378,213.908 483.724,216.365 488.274,214.675 	"/>
</g>
<g>
	<polygon style="fill:#B6BDC3;" points="540.951,186.448 536.301,188.162 539.647,190.619 544.198,188.929 	"/>
	<polygon style="fill:#B6BDC3;" points="533.695,189.156 529.046,190.869 532.392,193.326 536.943,191.637 	"/>
	<polygon style="fill:#B6BDC3;" points="526.444,191.734 521.795,193.447 525.141,195.904 529.692,194.214 	"/>
	<polygon style="fill:#B6BDC3;" points="519.714,194.327 515.065,196.04 518.411,198.497 522.962,196.808 	"/>
	<polygon style="fill:#B6BDC3;" points="545.398,190.159 540.749,191.872 544.095,194.329 548.646,192.64 	"/>
	<polygon style="fill:#B6BDC3;" points="538.143,192.867 533.494,194.58 536.84,197.037 541.391,195.347 	"/>
	<polygon style="fill:#B6BDC3;" points="530.892,195.444 526.243,197.157 529.589,199.614 534.14,197.925 	"/>
	<polygon style="fill:#B6BDC3;" points="524.162,198.038 519.513,199.751 522.859,202.208 527.409,200.518 	"/>
</g>
<g>
	<polygon style="fill:none;stroke:#C2C9D4;stroke-width:2;stroke-miterlimit:10;" points="638.831,77.546 664.569,111.429 
		632.12,123.704 606.121,88.948 	"/>
	<polygon style="fill:#B8BDC2;" points="618.083,103.174 628.992,99.179 643.588,117.9 632.205,122.283 	"/>
	<polygon style="fill:#5E626A;" points="623.323,96.768 620.587,105.635 631.374,120.375 634.074,111.233 	"/>
	<polygon style="fill:#5E626A;" points="638.014,78.945 628.992,99.179 643.588,117.9 662.223,110.647 	"/>
</g>
<g>
	<g>
		<path style="fill:#C2C9D4;" d="M649.391,159.992l-23.275-35.312l39.298-14.645l27.769,35.526L649.391,159.992z M630.889,126.237
			l19.796,30.035l37.562-12.379l-23.872-30.132L630.889,126.237z"/>
	</g>
	<polygon style="fill:#CBD5DF;" points="630.491,126.265 663.722,112.98 644.956,150.113 	"/>
	<polygon style="fill:#64676D;" points="655.641,128.446 663.722,112.98 688.612,143.956 651.065,156.987 643.262,144.607 	"/>
	<polygon style="fill:#C2C9D4;" points="635.671,136.333 666.458,124.173 642.024,144.835 	"/>
	<polygon style="fill:#5F6976;" points="633.618,130.012 647.953,125.842 655.251,118.369 651.065,128.709 636.424,134.719 	"/>
</g>
<g>
	<polygon style="fill:#C2C9D4;" points="131.405,348.852 146.404,363.83 676.158,166.855 678.504,170.374 683.847,168.55 
		695.576,150.077 692.848,145.524 	"/>
	<g>
		
			<line style="fill:none;stroke:#65686E;stroke-width:0.5;stroke-miterlimit:10;" x1="409.219" y1="250.522" x2="407.406" y2="264.973"/>
		
			<line style="fill:none;stroke:#65686E;stroke-width:0.5;stroke-miterlimit:10;" x1="634.602" y1="167.997" x2="632.789" y2="182.448"/>
		<polygon style="fill:#B6BDC3;" points="411.966,265.088 413.91,248.372 456.915,233.712 454.425,249.298 		"/>
		<polygon style="fill:#64686D;" points="438.833,239.876 454.425,249.298 456.915,233.712 		"/>
		<polygon style="fill:#99A8B1;" points="367.575,266.805 366.41,275.821 401.839,262.358 402.956,253.121 		"/>
		<polygon style="fill:#99A8B1;" points="324.877,282.695 323.712,291.711 359.14,278.248 360.258,269.011 		"/>
		<polygon style="fill:#99A8B1;" points="279.057,300.126 277.892,309.143 313.321,295.679 314.439,286.443 		"/>
		<polygon style="fill:#99A8B1;" points="550.612,200.651 549.447,209.668 584.876,196.204 585.993,186.968 		"/>
		<polygon style="fill:#99A8B1;" points="507.913,216.541 506.748,225.558 542.177,212.094 543.294,202.858 		"/>
		<polygon style="fill:#99A8B1;" points="462.094,233.973 460.929,242.989 496.358,229.526 497.475,220.289 		"/>
	</g>
</g>
</svg>
