<?xml version="1.0" encoding="iso-8859-1"?>
<!-- Generator: Adobe Illustrator 21.0.0, SVG Export Plug-In . SVG Version: 6.00 Build 0)  -->
<svg version="1.1" id="&#x56FE;&#x5C42;_1" xmlns="http://www.w3.org/2000/svg" xmlns:xlink="http://www.w3.org/1999/xlink" x="0px"
	 y="0px" viewBox="0 0 841.89 595.28" style="enable-background:new 0 0 841.89 595.28;" xml:space="preserve">
<rect style="fill:#101D2A;" width="841.89" height="595.28"/>
<path style="fill:#203F6C;" d="M142.046,115.29"/>
<g>
	<g>
		<g>
			<g>
				<g>
					<polygon style="fill:#376398;" points="275.322,247.686 273.92,225.779 303.786,171.444 304.223,192.695 					"/>
				</g>
				<g>
					<polygon style="fill:#4681C3;" points="275.322,247.686 233.49,243.154 230.112,222.293 273.92,226.246 					"/>
				</g>
			</g>
			<g>
				<polygon style="fill:#7DCCE8;" points="285.926,224.972 282.662,231.294 282.047,223.175 285.311,216.852 				"/>
				<path style="fill:#0C2544;" d="M282.61,231.549l-0.635-8.389l0.009-0.018l3.378-6.544l0.636,8.389l-0.009,0.018L282.61,231.549z
					 M282.12,223.189l0.594,7.85l3.141-6.082l-0.595-7.85L282.12,223.189z"/>
			</g>
			<g>
				<polygon style="fill:#7DCCE8;" points="291.011,214.972 287.747,221.294 287.132,213.175 290.397,206.852 				"/>
				<path style="fill:#0C2544;" d="M287.695,221.549l-0.635-8.389l0.009-0.018l3.379-6.544l0.635,8.389l-0.009,0.018
					L287.695,221.549z M287.205,213.189l0.594,7.85l3.141-6.082l-0.594-7.85L287.205,213.189z"/>
			</g>
			<g>
				<polygon style="fill:#7DCCE8;" points="295.594,205.388 292.331,211.71 291.715,203.591 294.98,197.269 				"/>
				<path style="fill:#0C2544;" d="M292.279,211.965l-0.636-8.389l0.009-0.018l3.379-6.544l0.635,8.389l-0.009,0.018
					L292.279,211.965z M291.788,203.605l0.595,7.85l3.14-6.082l-0.594-7.85L291.788,203.605z"/>
			</g>
			<g>
				<polygon style="fill:#7DCCE8;" points="301.428,195.043 298.165,201.365 297.549,193.246 300.813,186.924 				"/>
				<path style="fill:#0C2544;" d="M298.113,201.62l-0.636-8.389l0.009-0.018l3.378-6.544l0.636,8.389l-0.009,0.018L298.113,201.62z
					 M297.622,193.261l0.595,7.85l3.14-6.082l-0.595-7.85L297.622,193.261z"/>
			</g>
			<g>
				<polygon style="fill:#7DCCE8;" points="283.987,213.131 280.722,219.453 280.108,211.334 283.372,205.012 				"/>
				<path style="fill:#0C2544;" d="M280.67,219.708l-0.635-8.389l0.009-0.018l3.378-6.544l0.636,8.389l-0.009,0.018L280.67,219.708z
					 M280.18,211.349l0.594,7.85l3.141-6.082l-0.595-7.85L280.18,211.349z"/>
			</g>
			<g>
				<polygon style="fill:#7DCCE8;" points="289.072,203.131 285.807,209.453 285.193,201.334 288.457,195.012 				"/>
				<path style="fill:#0C2544;" d="M285.755,209.708l-0.635-8.389l0.009-0.018l3.379-6.544l0.635,8.389l-0.009,0.018
					L285.755,209.708z M285.265,201.349l0.594,7.85l3.141-6.082l-0.594-7.85L285.265,201.349z"/>
			</g>
			<g>
				<polygon style="fill:#7DCCE8;" points="293.655,193.547 290.391,199.869 289.776,191.75 293.04,185.428 				"/>
				<path style="fill:#0C2544;" d="M290.339,200.124l-0.636-8.389l0.009-0.018l3.379-6.544l0.635,8.389l-0.009,0.018
					L290.339,200.124z M289.848,191.765l0.595,7.85l3.14-6.082l-0.594-7.85L289.848,191.765z"/>
			</g>
			<g>
				<polygon style="fill:#7DCCE8;" points="299.489,183.202 296.225,189.524 295.61,181.405 298.874,175.083 				"/>
				<path style="fill:#0C2544;" d="M296.173,189.779l-0.636-8.389l0.009-0.018l3.378-6.545l0.636,8.389l-0.009,0.018
					L296.173,189.779z M295.682,181.42l0.595,7.85l3.14-6.082l-0.595-7.85L295.682,181.42z"/>
			</g>
		</g>
		<g>
			<g>
				<polygon style="fill:#214065;" points="230.849,221.896 273.599,225.646 306.099,166.145 267.099,162.645 242.182,207.229 
					239.182,207.063 				"/>
				<path style="fill:#0C2544;" d="M273.879,226.169l-43.839-3.845l8.861-15.773l2.999,0.166l24.923-44.595l40.074,3.597
					L273.879,226.169z M231.658,221.469l41.661,3.655l31.981-58.553l-37.926-3.403l-24.911,44.573l-3.001-0.166L231.658,221.469z"/>
			</g>
			<g>
				<polygon style="fill:#4681C3;" points="231.645,221.436 255.692,213.8 282.301,164.53 267.417,163.197 242.456,207.806 
					239.489,207.608 				"/>
			</g>
			<g>
				<polygon style="fill:#294D6F;" points="232.094,221.294 255.692,213.8 273.896,225.104 				"/>
			</g>
		</g>
	</g>
	<g>
		<g>
			<g>
				<g>
					<polygon style="fill:#0D2745;" points="170.088,278.518 156.706,274.219 162.34,269.724 175.373,273.649 					"/>
				</g>
				<g>
					<polygon style="fill:#447AB6;" points="169.851,309.192 157.53,304.306 156.706,274.219 169.851,278.478 					"/>
				</g>
				<g>
					<polygon style="fill:#375F90;" points="175.373,303.681 169.851,309.233 169.851,278.518 175.373,273.584 					"/>
				</g>
			</g>
			<g>
				<polygon style="fill:#0D2745;" points="169.901,278.479 169.801,278.477 169.969,273.437 170.068,273.44 				"/>
			</g>
			<g>
				<g>
					<path style="fill:#447AB6;" d="M168.135,277.276c-0.137,0-0.249-0.111-0.25-0.249l-0.032-4.734l-7.313-2.536
						c-0.083-0.029-0.145-0.1-0.163-0.186c-0.018-0.086,0.012-0.176,0.077-0.235l2.542-2.317c0.067-0.061,0.161-0.082,0.247-0.053
						l8.076,2.67c0.104,0.034,0.173,0.132,0.171,0.241l-0.056,3.71c-0.002,0.137-0.114,0.246-0.25,0.246c-0.001,0-0.002,0-0.004,0
						c-0.138-0.002-0.248-0.116-0.246-0.254l0.053-3.526l-7.763-2.566l-2.124,1.936l7.083,2.456c0.1,0.035,0.167,0.129,0.168,0.235
						l0.033,4.911C168.386,277.164,168.25,277.259,168.135,277.276z"/>
				</g>
			</g>
			<g>
				<path style="fill:#447AB6;" d="M160.623,274.814c-0.138,0-0.25-0.112-0.25-0.25v-4.86c0-0.138,0.112-0.25,0.25-0.25
					c0.138,0,0.25,0.112,0.25,0.25v4.86C160.873,274.702,160.761,274.814,160.623,274.814z"/>
			</g>
			<g>
				<path style="fill:#447AB6;" d="M163.165,272.706c-0.138,0-0.25-0.112-0.25-0.25v-5.089c0-0.138,0.112-0.25,0.25-0.25
					c0.138,0,0.25,0.112,0.25,0.25v5.089C163.415,272.594,163.303,272.706,163.165,272.706z"/>
			</g>
		</g>
		<g>
			<g>
				<g>
					<polygon style="fill:#0D2745;" points="224.198,233.22 210.815,228.921 216.449,224.426 229.483,228.351 					"/>
				</g>
				<g>
					<polygon style="fill:#447AB6;" points="223.96,263.895 211.639,259.008 210.815,228.921 223.96,233.18 					"/>
				</g>
				<g>
					<polygon style="fill:#375F90;" points="229.483,258.383 223.96,263.936 223.96,233.22 229.483,228.286 					"/>
				</g>
			</g>
			<g>
				<polygon style="fill:#0D2745;" points="224.01,233.182 223.911,233.179 224.078,228.139 224.178,228.142 				"/>
			</g>
			<g>
				<g>
					<path style="fill:#447AB6;" d="M222.244,231.979c-0.137,0-0.249-0.111-0.25-0.249l-0.032-4.734l-7.313-2.536
						c-0.083-0.029-0.145-0.1-0.163-0.186c-0.018-0.086,0.012-0.176,0.077-0.235l2.543-2.317c0.067-0.061,0.161-0.082,0.247-0.053
						l8.076,2.67c0.104,0.034,0.173,0.132,0.171,0.241l-0.056,3.71c-0.002,0.137-0.114,0.246-0.25,0.246c-0.001,0-0.002,0-0.004,0
						c-0.138-0.002-0.248-0.116-0.246-0.254l0.053-3.526l-7.763-2.566l-2.124,1.936l7.083,2.456c0.1,0.035,0.167,0.129,0.168,0.235
						l0.033,4.911c0.001,0.138-0.11,0.25-0.249,0.251C222.245,231.979,222.245,231.979,222.244,231.979z"/>
				</g>
			</g>
			<g>
				<path style="fill:#447AB6;" d="M214.732,229.516c-0.138,0-0.25-0.112-0.25-0.25v-4.86c0-0.138,0.112-0.25,0.25-0.25
					c0.138,0,0.25,0.112,0.25,0.25v4.86C214.982,229.404,214.87,229.516,214.732,229.516z"/>
			</g>
			<g>
				<path style="fill:#447AB6;" d="M217.274,227.408c-0.138,0-0.25-0.112-0.25-0.25v-5.089c0-0.138,0.112-0.25,0.25-0.25
					s0.25,0.112,0.25,0.25v5.089C217.524,227.296,217.412,227.408,217.274,227.408z"/>
			</g>
		</g>
		<g>
			<g>
				<g>
					<polygon style="fill:#4681C3;" points="191.879,329.663 151.545,314.601 150.67,291.6 192.328,306.205 					"/>
				</g>
				<g>
					<polygon style="fill:#376398;" points="277.825,253.098 191.879,329.663 191.982,306.191 280.815,232.234 					"/>
				</g>
				<g>
					<polygon style="fill:#214065;" points="192.061,305.607 151.545,291.35 163.295,281.767 172.067,284.655 237.678,228.745 
						231.129,226.684 239.765,219.246 280.766,231.631 					"/>
					<path style="fill:#0C2544;" d="M192.162,306.169l-41.615-14.645l12.645-10.314l8.766,2.886l64.716-55.148l-6.543-2.059
						l9.518-8.198l42.143,12.731L192.162,306.169z M152.544,291.176l39.416,13.87l87.781-73.206l-39.859-12.04l-7.754,6.679
						l6.554,2.062l-66.505,56.672l-8.779-2.89L152.544,291.176z"/>
				</g>
			</g>
			<g>
				<polygon style="fill:#294D6F;" points="181.229,282.95 201.885,291.947 199.701,277.857 				"/>
			</g>
			<g>
				<polygon style="fill:#214065;" points="202.023,291.105 199.701,277.857 248.47,236.767 263.4,239.767 				"/>
			</g>
			<g>
				<polygon style="fill:#294D6F;" points="242.799,230.826 248.92,236.767 262.93,240.162 				"/>
			</g>
			<g>
				<polygon style="fill:#376398;" points="201.977,292.055 201.793,291.839 262.838,240.054 263.021,240.27 				"/>
			</g>
			<g>
				
					<rect x="191.415" y="276.183" transform="matrix(0.3993 -0.9168 0.9168 0.3993 -148.4722 348.2826)" style="fill:#376398;" width="0.283" height="22.531"/>
			</g>
			<g>
				<polygon style="fill:#376398;" points="262.87,240.29 242.485,230.708 242.605,230.451 262.99,240.033 				"/>
			</g>
			<g>
				<polygon style="fill:#4681C3;" points="181.229,282.95 199.701,277.857 248.92,236.767 242.545,230.58 				"/>
			</g>
		</g>
	</g>
	<g>
		<g>
			<g>
				<g>
					<polygon style="fill:#7DCCE8;" points="682.803,273.587 673.944,270.492 674.511,251.727 683.206,254.514 					"/>
				</g>
				<g>
					<polygon style="fill:#214065;" points="675.447,251.507 690.726,236.23 758.322,256.826 741.136,277.832 680.539,258.127 
						683.595,254.181 					"/>
					<path style="fill:#0C2544;" d="M741.305,278.408l-61.59-20.027l3.058-3.948l-8.246-2.706l16.059-16.059l68.59,20.898
						L741.305,278.408z M681.363,257.874l59.604,19.381l16.503-20.17l-66.603-20.293l-14.498,14.496l8.049,2.642L681.363,257.874z"
						/>
				</g>
				<g>
					<polygon style="fill:#7DCCE8;" points="740.44,298.738 679.34,276.882 679.906,258.429 741.476,278.468 					"/>
				</g>
				<g>
					<polygon style="fill:#0D2846;" points="712.012,275.248 702.57,271.988 702.627,267.08 712.096,270.199 					"/>
				</g>
				<g>
					<polygon style="fill:#0D2846;" points="711.179,286 701.737,282.74 701.794,277.832 711.263,280.951 					"/>
				</g>
				<g>
					<polygon style="fill:#0D2846;" points="726.423,280.089 716.98,276.839 717.037,271.771 726.478,275.021 					"/>
				</g>
				<g>
					<polygon style="fill:#0D2846;" points="740.904,285.293 702.568,272.707 702.571,271.988 740.954,284.804 					"/>
				</g>
				<g>
					<polygon style="fill:#0D2846;" points="703.709,270.759 679.526,262.763 679.531,262.021 703.769,270.214 					"/>
				</g>
				<g>
					<polygon style="fill:#0D2846;" points="684.984,266.696 683.452,266.135 683.404,262.018 684.936,262.464 					"/>
				</g>
				<g>
					<polygon style="fill:#0D2846;" points="688.976,267.934 687.443,267.345 687.396,263.285 688.929,263.732 					"/>
				</g>
				<g>
					<polygon style="fill:#0D2846;" points="684.474,276.449 682.941,275.888 682.894,271.771 684.426,272.217 					"/>
				</g>
				<g>
					<polygon style="fill:#0D2846;" points="688.465,277.687 686.933,277.097 686.886,273.037 688.418,273.484 					"/>
				</g>
				<g>
					<polygon style="fill:#0D2846;" points="740.946,284.875 731.477,281.611 731.695,276.882 741.309,279.89 					"/>
				</g>
				<g>
					<polygon style="fill:#FFFFFF;" points="727.507,294.13 714.519,289.496 714.519,284.472 727.507,289.107 					"/>
				</g>
				<g>
					<polygon style="fill:#0D2846;" points="731.477,290.007 708.038,282.365 713.06,280.089 733.379,286.839 					"/>
				</g>
				<g>
					<polygon style="fill:#0D2846;" points="678.629,267.218 674.978,265.942 675.786,265.616 678.95,266.73 					"/>
				</g>
				<g>
					<polygon style="fill:#4681C3;" points="740.232,298.723 741.274,278.511 759.146,256.535 754.752,275.621 					"/>
				</g>
			</g>
			<g>
				<polygon style="fill:#FFFFFF;" points="678.197,272.043 675.447,271.024 675.56,266.338 678.31,267.301 				"/>
			</g>
		</g>
		<g>
			<polygon style="fill:#203F6C;" points="681.336,257.837 708.086,246.712 754.318,260.912 740.954,277.115 			"/>
		</g>
		<g>
			<polygon style="fill:#203F6C;" points="676.443,251.298 695.131,243.037 703.769,245.537 684.6,254.037 			"/>
		</g>
		<g>
			<polygon style="fill:#4681C3;" points="757.428,257.099 754.568,260.693 708.741,246.517 681.399,257.828 684.359,254.017 
				704.251,245.708 695.611,243.208 676.381,251.298 690.865,236.787 			"/>
		</g>
	</g>
	<g>
		<g>
			<g>
				<polygon style="fill:#4681C3;" points="675.155,387.973 676.197,369.363 694.962,343.478 690.568,362.565 				"/>
			</g>
			<g>
				<polygon style="fill:#7DCCE8;" points="675.155,387.973 592.982,360.098 592.843,341.785 676.299,368.779 				"/>
			</g>
			<g>
				<polygon style="fill:#214065;" points="593.675,341.906 611.7,323 619.625,325.623 623.343,321.23 694.188,343.734 
					676.128,368.693 				"/>
				<path style="fill:#0C2544;" d="M676.318,369.276l-0.344-0.111l-83.203-27.03l18.786-19.704l7.905,2.616l3.715-4.39l0.315,0.101
					l71.499,22.712L676.318,369.276z M594.578,341.678l81.359,26.433l17.447-24.111l-69.877-22.195l-3.721,4.395l-7.944-2.63
					L594.578,341.678z"/>
			</g>
			<g>
				<polygon style="fill:#0D2846;" points="633.242,362.455 621.492,358.348 621.492,353.375 633.242,357.48 				"/>
			</g>
			<g>
				<polygon style="fill:#0D2846;" points="651.18,368.385 639.43,364.279 639.43,359.305 651.18,363.412 				"/>
			</g>
			<g>
				<polygon style="fill:#0D2846;" points="669.211,374.459 621.571,358.49 621.581,357.594 669.277,373.85 				"/>
			</g>
			<g>
				<polygon style="fill:#0D2846;" points="623.065,357.027 592.845,347.285 592.845,346.359 623.136,356.346 				"/>
			</g>
			<g>
				<polygon style="fill:#0D2846;" points="606.103,353.461 604.195,352.895 604.195,347.832 606.103,348.398 				"/>
			</g>
			<g>
				<polygon style="fill:#0D2846;" points="611.072,354.992 609.164,354.426 609.164,349.363 611.072,349.93 				"/>
			</g>
			<g>
				<polygon style="fill:#0D2846;" points="605.416,362.645 603.508,362.078 603.508,357.016 605.416,357.582 				"/>
			</g>
			<g>
				<polygon style="fill:#0D2846;" points="610.118,364.209 608.21,363.643 608.21,358.58 610.118,359.147 				"/>
			</g>
			<g>
				<polygon style="fill:#0D2846;" points="669.256,374.488 657.47,370.486 657.85,365.938 669.759,369.758 				"/>
			</g>
			<g>
				<polygon style="fill:#0D2846;" points="633.242,371.537 621.492,367.43 621.492,362.457 633.242,366.563 				"/>
			</g>
			<g>
				<polygon style="fill:#0D2846;" points="651.18,377.75 639.43,373.645 639.43,368.67 651.18,372.777 				"/>
			</g>
			<g>
				<polygon style="fill:#0D2846;" points="669.272,379.25 621.576,363.195 621.586,362.301 669.254,378.641 				"/>
			</g>
			<g>
				<polygon style="fill:#0D2846;" points="669.272,384.02 621.576,367.484 621.586,366.588 669.254,383.408 				"/>
			</g>
			<g>
				<polygon style="fill:#0D2846;" points="669.256,383.853 657.47,379.852 657.85,375.303 669.277,379.123 				"/>
			</g>
		</g>
		<g>
			<polygon style="fill:#203F6C;" points="594.579,341.695 615.884,332.685 624.05,333.52 632.55,332.685 688.204,350.883 
				676.048,368.133 			"/>
		</g>
		<g>
			<polygon style="fill:#4681C3;" points="693.348,344.098 687.838,351.57 631.664,333.113 623.371,333.932 615.413,333.113 
				594.579,341.695 611.894,323.523 619.813,326.211 623.548,321.805 			"/>
		</g>
	</g>
	<g>
		<g>
			<polygon style="fill:#7DCCE8;" points="765.133,247.08 765.349,252.04 798.279,262.884 801.853,258.085 			"/>
		</g>
		<g>
			<polygon style="fill:#0D2846;" points="777.16,253.49 765.003,249.779 764.879,248.429 777.15,252.214 			"/>
		</g>
		<g>
			<polygon style="fill:#7DCCE8;" points="756.526,260.4 755.397,260.4 755.397,255.48 756.526,255.679 			"/>
		</g>
		<g>
			<polygon style="fill:#4681C3;" points="765.349,252.04 756.526,261.012 756.526,255.734 765.133,246.914 			"/>
		</g>
		<g>
			<polygon style="fill:#0D2846;" points="794.658,275.825 756.173,260.527 765.306,251.039 801.215,262.396 			"/>
		</g>
		<g>
			<polygon style="fill:#7DCCE8;" points="677.112,351.588 674.839,387.885 713.67,400.928 717.253,364.982 			"/>
		</g>
		<g>
			<polygon style="fill:#0D2846;" points="690.882,361.393 678.935,357.1 679.041,354.166 690.847,358.316 			"/>
		</g>
		<g>
			<polygon style="fill:#0D2846;" points="712.382,369.059 700.435,364.766 700.541,361.832 712.347,365.984 			"/>
		</g>
		<g>
			<polygon style="fill:#376398;" points="717.247,364.967 713.673,400.928 798.031,291.453 802.906,257.556 795.941,267.033 
				795.781,273.203 727.588,358.705 728.135,353.068 			"/>
		</g>
		<g>
			<g>
				<polygon style="fill:#0D2846;" points="781.385,309.639 781.295,311.379 731.229,374.816 731.37,373.027 				"/>
			</g>
			<g>
				<polygon style="fill:#0D2846;" points="781.385,305.121 781.285,306.842 731.769,369.371 731.62,369.252 731.74,367.803 				"/>
			</g>
			<g>
				<polygon style="fill:#0D2846;" points="783.314,297.73 783.225,299.471 731.654,364.576 731.765,363.217 731.795,362.807 				
					"/>
			</g>
			<g>
				<polygon style="fill:#0D2846;" points="791.539,283.181 791.449,284.912 731.801,360.172 731.94,358.373 				"/>
			</g>
		</g>
		<g>
			<polygon style="fill:#0D2846;" points="755.398,259.796 756.736,259.755 689.021,342.412 687.514,342.555 			"/>
		</g>
		<g>
			<polygon style="fill:#0D2846;" points="795.789,273.197 796.566,273.839 728.546,359.172 727.774,358.398 			"/>
		</g>
		<g>
			<polygon style="fill:#4681C3;" points="688.564,345.088 681.962,352.275 678.928,351.164 688.163,340.713 			"/>
		</g>
		<g>
			<polygon style="fill:#4681C3;" points="688.171,342.492 756.671,259.741 776.92,257.741 776.557,258.183 708.421,340.992 			"/>
		</g>
		<g>
			<polygon style="fill:#7DCCE8;" points="688.171,342.492 708.399,340.971 723.434,354.602 			"/>
		</g>
		<g>
			<polygon style="fill:#214065;" points="795.82,273.256 727.821,358.508 708.514,340.949 777.014,257.699 			"/>
		</g>
		<g>
			<g>
				<polygon style="fill:#0D2846;" points="764.813,245.912 802.906,257.537 794.459,269.121 793.504,268.664 801.152,257.99 
					765.133,247.08 756.526,255.734 755.397,255.48 				"/>
			</g>
		</g>
		<g>
			<polygon style="fill:#7DCCE8;" points="795.781,273.203 794.625,272.266 794.809,266.871 795.938,267.07 			"/>
		</g>
		<g>
			<polygon style="fill:#0D2846;" points="799.35,260.519 786.592,256.53 786.57,255.16 800.461,259.492 			"/>
		</g>
		<g>
			<polygon style="fill:#0D2846;" points="696.694,360.943 694.541,360.225 694.462,357.57 696.615,358.289 			"/>
		</g>
		<g>
			<polygon style="fill:#0D2846;" points="783.244,254.746 781.09,254.027 781.012,251.372 783.164,252.091 			"/>
		</g>
		<g>
			<polygon style="fill:#FFFFFF;" points="793.42,297.501 791.539,299.877 791.441,294.637 793.629,292.158 			"/>
		</g>
		<g>
			<polygon style="fill:#FFFFFF;" points="722.348,389.725 720.073,392.623 720.751,386.324 722.838,384.24 			"/>
		</g>
		<g>
			<polygon style="fill:#0D2846;" points="717.045,364.576 680.181,352.063 688.457,342.49 725.296,355.129 			"/>
		</g>
		<g>
			<g>
				<polygon style="fill:#0D2846;" points="717.407,365.551 677.098,351.625 687.274,340.307 688.228,340.764 678.852,351.172 
					717.087,364.383 725.979,353.963 727.108,354.219 				"/>
			</g>
		</g>
	</g>
	<g>
		<g>
			<g>
				<g>
					<polygon style="fill:#4681C3;" points="205.675,327.324 197.878,324.822 198.248,300.572 205.675,302.741 					"/>
				</g>
				<g>
					<polygon style="fill:#7DCCE8;" points="245.58,347.243 199.128,331.655 199.498,307.405 246.467,321.582 					"/>
				</g>
				<g>
					<polygon style="fill:#376398;" points="321.115,271.342 245.58,347.243 246.467,322.082 325.373,247.962 					"/>
				</g>
				<g>
					<polygon style="fill:#214065;" points="246.378,321.582 200.378,307.332 205.628,302.582 199.128,300.333 276.196,235.286 
						282.12,236.994 286.571,233.411 321.859,243.847 319.359,246.347 325.373,247.962 					"/>
					<path style="fill:#0C2544;" d="M246.506,322.141L199.4,307.548l5.274-4.772l-6.532-2.26l77.937-65.781l5.931,1.711l4.453-3.585
						l36.337,10.746l-2.482,2.483l6.048,1.624L246.506,322.141z M201.357,307.116l44.894,13.907l78.129-72.814l-5.979-1.606
						l2.518-2.517l-34.239-10.126l-4.449,3.582l-5.917-1.706l-76.198,64.313l6.468,2.238L201.357,307.116z"/>
				</g>
			</g>
			<g>
				<g>
					<polygon style="fill:#7DCCE8;" points="295.037,263.198 266.49,290.978 247.32,284.162 277.254,257.93 					"/>
				</g>
				<g>
					
						<rect x="245.03" y="271.766" transform="matrix(0.7472 -0.6646 0.6646 0.7472 -113.7391 244.8311)" style="fill:#FFFFFF;" width="39.786" height="0.284"/>
				</g>
				<g>
					<polygon style="fill:#FFFFFF;" points="253.606,286.468 253.415,286.259 282.605,259.44 282.796,259.648 					"/>
				</g>
				<g>
					
						<rect x="251.757" y="273.925" transform="matrix(0.724 -0.6898 0.6898 0.724 -114.1185 262.903)" style="fill:#FFFFFF;" width="39.475" height="0.283"/>
				</g>
				<g>
					
						<rect x="255.835" y="275.254" transform="matrix(0.714 -0.7002 0.7002 0.714 -114.0088 271.712)" style="fill:#FFFFFF;" width="39.438" height="0.283"/>
				</g>
				<g>
					<polygon style="fill:#FFFFFF;" points="265.012,290.517 264.811,290.315 292.846,262.479 293.046,262.681 					"/>
				</g>
				<g>
					
						<rect x="259.906" y="274.698" transform="matrix(0.3477 -0.9376 0.9376 0.3477 -97.2806 429.5233)" style="fill:#FFFFFF;" width="0.283" height="19.954"/>
				</g>
				<g>
					
						<rect x="263.149" y="271.883" transform="matrix(0.3476 -0.9376 0.9376 0.3476 -92.3374 430.6396)" style="fill:#FFFFFF;" width="0.283" height="19.582"/>
				</g>
				<g>
					
						<rect x="266.749" y="268.644" transform="matrix(0.3476 -0.9376 0.9376 0.3476 -86.8059 431.7987)" style="fill:#FFFFFF;" width="0.283" height="19.27"/>
				</g>
				<g>
					<polygon style="fill:#FFFFFF;" points="279.243,278.653 261.504,271.82 261.606,271.555 279.344,278.388 					"/>
				</g>
				<g>
					
						<rect x="273.516" y="262.683" transform="matrix(0.3484 -0.9374 0.9374 0.3484 -76.7444 433.8347)" style="fill:#FFFFFF;" width="0.283" height="18.863"/>
				</g>
				<g>
					
						<rect x="276.881" y="259.722" transform="matrix(0.3445 -0.9388 0.9388 0.3445 -70.9674 436.3928)" style="fill:#FFFFFF;" width="0.284" height="18.589"/>
				</g>
				<g>
					
						<rect x="279.954" y="257.012" transform="matrix(0.3483 -0.9374 0.9374 0.3483 -66.9726 436.0318)" style="fill:#FFFFFF;" width="0.283" height="18.338"/>
				</g>
				<g>
					<polygon style="fill:#FFFFFF;" points="292.006,266.176 274.906,260.08 275.001,259.813 292.101,265.91 					"/>
				</g>
			</g>
			<g>
				<polygon style="fill:#7DCCE8;" points="208.802,317.343 204.606,316.072 204.791,311.736 208.989,313.008 				"/>
				<path style="fill:#0C2544;" d="M208.869,317.438l-0.087-0.027l-4.249-1.286l0.192-4.482l0.087,0.027l4.25,1.287L208.869,317.438
					z M204.679,316.021l4.056,1.227l0.18-4.188l-4.057-1.229L204.679,316.021z"/>
			</g>
			<g>
				<polygon style="fill:#7DCCE8;" points="215.557,319.647 211.361,318.376 211.547,314.04 215.743,315.31 				"/>
				<path style="fill:#0C2544;" d="M215.624,319.741l-0.087-0.027l-4.249-1.286l0.193-4.482l0.087,0.027l4.248,1.286
					L215.624,319.741z M211.434,318.324l4.056,1.228l0.179-4.189l-4.055-1.228L211.434,318.324z"/>
			</g>
			<g>
				<polygon style="fill:#7DCCE8;" points="222.821,322.219 218.623,320.949 218.809,316.612 223.006,317.884 				"/>
				<path style="fill:#0C2544;" d="M222.888,322.314l-0.087-0.027l-4.25-1.285l0.192-4.483l0.087,0.027l4.25,1.287L222.888,322.314z
					 M218.697,320.897l4.057,1.227l0.179-4.189l-4.057-1.228L218.697,320.897z"/>
			</g>
			<g>
				<polygon style="fill:#7DCCE8;" points="230.591,324.76 226.394,323.489 226.581,319.153 230.777,320.425 				"/>
				<path style="fill:#0C2544;" d="M230.658,324.854l-0.087-0.027l-4.25-1.286l0.193-4.482l0.087,0.027l4.249,1.287L230.658,324.854
					z M226.467,323.438l4.057,1.228l0.179-4.188l-4.056-1.229L226.467,323.438z"/>
			</g>
			<g>
				<polygon style="fill:#7DCCE8;" points="238.401,327.014 234.204,325.743 234.389,321.407 238.586,322.679 				"/>
				<path style="fill:#0C2544;" d="M238.468,327.108l-0.087-0.027l-4.25-1.286l0.192-4.482l0.087,0.027l4.25,1.287L238.468,327.108z
					 M234.277,325.691l4.057,1.228l0.179-4.188l-4.057-1.228L234.277,325.691z"/>
			</g>
			<g>
				<polygon style="fill:#7DCCE8;" points="208.802,324.388 204.606,323.117 204.791,318.781 208.989,320.053 				"/>
				<path style="fill:#0C2544;" d="M208.869,324.482l-0.087-0.027l-4.249-1.286l0.192-4.482l0.087,0.027l4.25,1.287L208.869,324.482
					z M204.679,323.065l4.056,1.228l0.18-4.189l-4.057-1.228L204.679,323.065z"/>
			</g>
			<g>
				<polygon style="fill:#7DCCE8;" points="215.557,326.691 211.361,325.421 211.547,321.085 215.743,322.355 				"/>
				<path style="fill:#0C2544;" d="M215.624,326.786l-0.087-0.027l-4.249-1.286l0.193-4.482l0.087,0.027l4.248,1.286
					L215.624,326.786z M211.434,325.369l4.056,1.228l0.179-4.19l-4.055-1.228L211.434,325.369z"/>
			</g>
			<g>
				<polygon style="fill:#7DCCE8;" points="222.821,329.264 218.623,327.994 218.809,323.658 223.006,324.929 				"/>
				<path style="fill:#0C2544;" d="M222.888,329.358l-0.087-0.027l-4.25-1.285l0.192-4.482l0.087,0.027l4.25,1.286L222.888,329.358z
					 M218.697,327.942l4.057,1.227l0.179-4.188l-4.057-1.228L218.697,327.942z"/>
			</g>
			<g>
				<polygon style="fill:#7DCCE8;" points="230.591,331.805 226.394,330.535 226.581,326.198 230.777,327.47 				"/>
				<path style="fill:#0C2544;" d="M230.658,331.899l-0.087-0.027l-4.25-1.285l0.193-4.483l0.087,0.027l4.249,1.287L230.658,331.899
					z M226.467,330.483l4.057,1.227l0.179-4.188l-4.056-1.229L226.467,330.483z"/>
			</g>
			<g>
				<polygon style="fill:#7DCCE8;" points="238.401,334.059 234.204,332.788 234.389,328.452 238.586,329.724 				"/>
				<path style="fill:#0C2544;" d="M238.468,334.153l-0.087-0.027l-4.25-1.286l0.192-4.482l0.087,0.027l4.25,1.287L238.468,334.153z
					 M234.277,332.736l4.057,1.228l0.179-4.189l-4.057-1.228L234.277,332.736z"/>
			</g>
			<g>
				<polygon style="fill:#7DCCE8;" points="208.802,331.005 204.606,329.735 204.791,325.398 208.989,326.67 				"/>
				<path style="fill:#0C2544;" d="M208.869,331.1l-0.087-0.027l-4.249-1.285l0.192-4.483l0.087,0.027l4.25,1.287L208.869,331.1z
					 M204.679,329.684l4.056,1.227l0.18-4.188l-4.057-1.229L204.679,329.684z"/>
			</g>
			<g>
				<polygon style="fill:#7DCCE8;" points="215.557,333.309 211.361,332.038 211.547,327.702 215.743,328.974 				"/>
				<path style="fill:#0C2544;" d="M215.624,333.403l-0.087-0.027l-4.249-1.286l0.193-4.482l0.087,0.027l4.248,1.287
					L215.624,333.403z M211.434,331.986l4.056,1.228l0.179-4.189l-4.055-1.228L211.434,331.986z"/>
			</g>
			<g>
				<polygon style="fill:#7DCCE8;" points="222.821,335.882 218.623,334.611 218.809,330.275 223.006,331.547 				"/>
				<path style="fill:#0C2544;" d="M222.888,335.977l-0.087-0.027l-4.25-1.286l0.192-4.482l0.087,0.027l4.25,1.287L222.888,335.977z
					 M218.697,334.56l4.057,1.228l0.179-4.189l-4.057-1.229L218.697,334.56z"/>
			</g>
			<g>
				<polygon style="fill:#7DCCE8;" points="230.591,338.423 226.394,337.152 226.581,332.816 230.777,334.087 				"/>
				<path style="fill:#0C2544;" d="M230.658,338.518l-0.087-0.027l-4.25-1.286l0.193-4.482l0.087,0.027l4.249,1.286L230.658,338.518
					z M226.467,337.101l4.057,1.228l0.179-4.189l-4.056-1.228L226.467,337.101z"/>
			</g>
			<g>
				<polygon style="fill:#7DCCE8;" points="238.401,340.676 234.204,339.406 234.389,335.069 238.586,336.341 				"/>
				<path style="fill:#0C2544;" d="M238.468,340.771l-0.087-0.027l-4.25-1.285l0.192-4.483l0.087,0.027l4.25,1.287L238.468,340.771z
					 M234.277,339.354l4.057,1.227l0.179-4.188l-4.057-1.229L234.277,339.354z"/>
			</g>
		</g>
		<g>
			<polygon style="fill:#FFFFFF;" points="204.679,316.021 208.735,317.248 208.915,313.06 204.858,311.831 			"/>
			<polygon style="fill:#FFFFFF;" points="211.434,318.324 215.49,319.552 215.67,315.363 211.613,314.135 			"/>
			<polygon style="fill:#FFFFFF;" points="218.697,320.896 222.753,322.124 222.933,317.936 218.876,316.707 			"/>
			<polygon style="fill:#FFFFFF;" points="226.467,323.438 230.523,324.665 230.704,320.477 226.646,319.248 			"/>
			<polygon style="fill:#FFFFFF;" points="234.456,321.5 234.277,325.689 238.333,326.917 238.513,322.728 			"/>
			<polygon style="fill:#FFFFFF;" points="204.679,323.108 208.735,324.335 208.915,320.147 204.858,318.918 			"/>
			<polygon style="fill:#FFFFFF;" points="211.434,325.411 215.49,326.639 215.67,322.45 211.613,321.222 			"/>
			<polygon style="fill:#FFFFFF;" points="218.697,327.984 222.753,329.211 222.933,325.023 218.876,323.794 			"/>
			<polygon style="fill:#FFFFFF;" points="226.467,330.525 230.523,331.752 230.704,327.564 226.646,326.335 			"/>
			<polygon style="fill:#FFFFFF;" points="234.289,332.458 237.498,329.463 234.456,328.542 			"/>
			<polygon style="fill:#FFFFFF;" points="204.679,329.725 208.735,330.953 208.915,326.764 204.858,325.536 			"/>
			<polygon style="fill:#FFFFFF;" points="211.434,332.029 215.49,333.256 215.67,329.068 211.613,327.84 			"/>
			<polygon style="fill:#FFFFFF;" points="218.697,334.601 222.753,335.829 222.933,331.64 218.876,330.412 			"/>
			<polygon style="fill:#FFFFFF;" points="226.467,337.101 228.621,337.746 230.629,335.873 230.704,334.14 226.646,332.911 			"/>
		</g>
	</g>
	<g>
		<g>
			<g>
				<g>
					<polygon style="fill:#4681C3;" points="365.214,284.504 297.417,354.135 293.542,315.302 367.874,243.92 					"/>
				</g>
				<g>
					<polygon style="fill:#7DCCE8;" points="297.667,353.968 252.577,334.887 248.854,300.617 293.792,315.135 					"/>
				</g>
				<g>
					
						<rect x="287.797" y="289.712" transform="matrix(0.9056 -0.4241 0.4241 0.9056 -101.3389 150.7265)" style="fill:#376398;" width="0.284" height="26.619"/>
				</g>
				<g>
					
						<rect x="249.219" y="294.135" transform="matrix(0.8959 -0.4442 0.4442 0.8959 -103.4401 147.1035)" style="fill:#376398;" width="25.913" height="0.283"/>
				</g>
				<g>
					<g>
						<polygon style="fill:#7DCCE8;" points="309.216,316.703 305.919,320.249 305.705,312.337 309.003,308.79 						"/>
						<path style="fill:#0C2544;" d="M305.853,320.424l-0.005-0.173l-0.215-7.941l0.02-0.021l3.416-3.674l0.004,0.173l0.214,7.942
							l-0.02,0.021L305.853,320.424z M305.777,312.364l0.208,7.71l3.159-3.398l-0.208-7.711L305.777,312.364z"/>
					</g>
					<g>
						<polygon style="fill:#7DCCE8;" points="318.825,307.094 315.527,310.64 315.314,302.728 318.61,299.181 						"/>
						<path style="fill:#0C2544;" d="M315.461,310.815l-0.005-0.173l-0.215-7.941l0.02-0.021l3.415-3.674l0.221,8.115l-0.02,0.021
							L315.461,310.815z M315.385,302.755l0.208,7.71l3.16-3.398l-0.209-7.711L315.385,302.755z"/>
					</g>
					<g>
						<polygon style="fill:#7DCCE8;" points="327.68,298.239 324.382,301.786 324.169,293.873 327.466,290.327 						"/>
						<path style="fill:#0C2544;" d="M324.315,301.961l-0.004-0.173l-0.214-7.942l3.434-3.694l0.005,0.173l0.215,7.941
							L324.315,301.961z M324.241,293.9l0.207,7.711l3.16-3.399l-0.208-7.71L324.241,293.9z"/>
					</g>
					<g>
						<polygon style="fill:#7DCCE8;" points="336.645,289.273 333.349,292.82 333.135,284.907 336.433,281.361 						"/>
						<path style="fill:#0C2544;" d="M333.283,292.996l-0.005-0.173l-0.215-7.942l3.436-3.694l0.004,0.173l0.214,7.941
							L333.283,292.996z M333.206,284.934l0.208,7.711l3.159-3.398l-0.208-7.71L333.206,284.934z"/>
					</g>
					<g>
						<polygon style="fill:#7DCCE8;" points="345.878,280.118 342.579,283.665 342.474,275.402 345.77,271.856 						"/>
						<path style="fill:#0C2544;" d="M342.511,283.843l-0.108-8.468l3.437-3.696l0.11,8.467L342.511,283.843z M342.545,275.43
							l0.103,8.058l3.159-3.397l-0.104-8.057L342.545,275.43z"/>
					</g>
					<g>
						<polygon style="fill:#7DCCE8;" points="354.39,271.606 351.091,275.152 351.085,266.808 354.382,263.261 						"/>
						<path style="fill:#0C2544;" d="M351.02,275.332l-0.006-8.553l3.438-3.699l0.008,8.554L351.02,275.332z M351.156,266.835
							l0.006,8.137l3.157-3.394l-0.008-8.138L351.156,266.835z"/>
					</g>
				</g>
				<g>
					<g>
						<polygon style="fill:#7DCCE8;" points="309.216,331.045 305.919,334.591 305.705,326.679 309.003,323.132 						"/>
						<path style="fill:#0C2544;" d="M305.853,334.766l-0.005-0.173l-0.215-7.941l0.02-0.021l3.416-3.674l0.004,0.173l0.214,7.942
							l-0.02,0.021L305.853,334.766z M305.777,326.706l0.208,7.71l3.159-3.398l-0.208-7.711L305.777,326.706z"/>
					</g>
					<g>
						<polygon style="fill:#7DCCE8;" points="318.825,321.435 315.527,324.981 315.314,317.069 318.61,313.522 						"/>
						<path style="fill:#0C2544;" d="M315.461,325.156l-0.005-0.173l-0.215-7.941l0.02-0.02l3.415-3.674l0.221,8.115l-0.02,0.021
							L315.461,325.156z M315.385,317.097l0.208,7.71l3.16-3.398l-0.209-7.711L315.385,317.097z"/>
					</g>
					<g>
						<polygon style="fill:#7DCCE8;" points="327.68,312.581 324.382,316.128 324.169,308.215 327.466,304.669 						"/>
						<path style="fill:#0C2544;" d="M324.315,316.303l-0.004-0.173l-0.214-7.942l0.02-0.021l3.414-3.673l0.005,0.173l0.215,7.941
							l-0.02,0.021L324.315,316.303z M324.241,308.242l0.207,7.711l3.16-3.399l-0.208-7.71L324.241,308.242z"/>
					</g>
					<g>
						<polygon style="fill:#7DCCE8;" points="336.645,303.615 333.349,307.162 333.135,299.249 336.433,295.703 						"/>
						<path style="fill:#0C2544;" d="M333.283,307.337l-0.005-0.173l-0.215-7.942l0.02-0.021l3.416-3.673l0.004,0.173l0.214,7.941
							l-0.02,0.02L333.283,307.337z M333.206,299.276l0.208,7.711l3.159-3.399l-0.208-7.71L333.206,299.276z"/>
					</g>
					<g>
						<polygon style="fill:#7DCCE8;" points="345.878,294.46 342.579,298.007 342.474,289.744 345.77,286.198 						"/>
						<path style="fill:#0C2544;" d="M342.511,298.185l-0.108-8.468l3.437-3.696l0.11,8.467L342.511,298.185z M342.545,289.772
							l0.103,8.058l3.159-3.397l-0.104-8.057L342.545,289.772z"/>
					</g>
					<g>
						<polygon style="fill:#7DCCE8;" points="354.39,285.948 351.091,289.494 351.085,281.149 354.382,277.603 						"/>
						<path style="fill:#0C2544;" d="M351.02,289.674l-0.006-8.553l3.438-3.699l0.008,8.554L351.02,289.674z M351.156,281.177
							l0.006,8.137l3.157-3.394l-0.008-8.138L351.156,281.177z"/>
					</g>
				</g>
				<g>
					<polygon style="fill:#214065;" points="249.698,300.326 293.584,315.075 367.075,244.183 324.302,233.411 311.308,245.205 
						317.251,247.22 273.663,287.886 266.876,285.826 					"/>
					<path style="fill:#0C2544;" d="M293.711,315.642l-45.007-15.126l18.058-15.242l6.771,2.055l42.772-39.905l-5.956-2.019
						l13.815-12.539l43.897,11.054L293.711,315.642z M250.692,300.137l42.765,14.372l72.631-70.063l-41.649-10.489l-12.173,11.049
						l5.931,2.01l-44.404,41.427l-6.803-2.064L250.692,300.137z"/>
				</g>
				<g>
					<polygon style="fill:#7DCCE8;" points="318.099,247.151 337.825,237.566 282.294,290.969 273.786,288.526 					"/>
				</g>
				<g>
					<polygon style="fill:#294D6F;" points="273.786,288.526 250.564,300.026 293.542,314.464 282.294,290.969 					"/>
				</g>
			</g>
			<g>
				<g>
					<g>
						<path style="fill:#0D2846;" d="M306.683,256.128l-23.516,22.268c-0.029-0.434-1.84-0.795-1.891-1.226
							c-1.789-15.212,10.043-23.15,22.728-23.15C305.28,254.02,305.458,255.91,306.683,256.128z"/>
					</g>
					<g id="XMLID_1_">
						<g>
							<g>
								<path style="fill:#4681C3;" d="M306.46,252.599l0.222,3.679c-17.274-0.431-23.197,7.463-25.193,13.569
									c-0.783-2.479-0.587-6.184,3.966-10.555C293.151,251.907,306.46,252.599,306.46,252.599z"/>
							</g>
							<g>
								<path style="fill:#FFFFFF;" d="M283.497,273.147l-0.326,5.245c0,0-2.283-0.509-2.661-1.631c0,0-0.274-3.119,0.978-6.915
									C282.153,271.934,283.497,273.147,283.497,273.147z"/>
							</g>
						</g>
					</g>
				</g>
				<g>
					<g>
						<polygon style="fill:#0D2846;" points="317.069,292.708 328.474,289.494 333.233,286.198 336.645,281.651 335.206,275.709 
							318.034,291.489 						"/>
					</g>
					<g id="XMLID_2_">
						<g>
							<g>
								<path style="fill:#376398;" d="M336.089,280.103c4.53,12.31-20.87,14.74-20.87,14.74v-4.25c3.5,0.08,8.84-1.34,8.84-1.34
									C332.129,286.443,335.228,283.083,336.089,280.103z"/>
							</g>
							<g>
								<path style="fill:#FFFFFF;" d="M333.889,272.253c0,0,3.44,3.54,2.2,7.85c-0.06-0.17-0.13-0.34-0.2-0.51
									c0,0-1.25-3.42-2-3.59V272.253z"/>
							</g>
						</g>
					</g>
				</g>
			</g>
		</g>
		<g>
			<g>
				<g>
					<g>
						<polygon style="fill:#7DCCE8;" points="332.884,342.355 315.196,335.605 315.196,327.377 333.233,333.902 						"/>
					</g>
					<g>
						<polygon style="fill:#4681C3;" points="332.884,342.355 333.233,333.837 369.284,296.684 369.284,304.445 						"/>
					</g>
				</g>
				<g>
					<polygon style="fill:#0D2846;" points="315.887,327.261 352.887,291.489 368.67,296.817 333.17,333.483 					"/>
				</g>
			</g>
			<g>
				<polygon style="fill:#FFFFFF;" points="361.87,312.174 360.204,313.859 360.135,311.657 361.786,309.793 				"/>
			</g>
			<g>
				<polygon style="fill:#7DCCE8;" points="340.492,331.048 335.273,336.434 335.206,334.434 340.425,329.048 				"/>
				<path style="fill:#0C2544;" d="M335.208,336.603l-0.074-2.196l0.021-0.022l5.335-5.506l0.074,2.196l-0.021,0.022
					L335.208,336.603z M335.278,334.461l0.061,1.804l5.081-5.244l-0.061-1.804L335.278,334.461z"/>
			</g>
			<g>
				<polygon style="fill:#7DCCE8;" points="348.52,323.288 343.302,328.674 343.234,326.674 348.453,321.288 				"/>
				<path style="fill:#0C2544;" d="M343.236,328.843l-0.074-2.196l0.021-0.022l5.335-5.506l0.074,2.196l-0.021,0.022
					L343.236,328.843z M343.306,326.701l0.061,1.804l5.082-5.244l-0.061-1.804L343.306,326.701z"/>
			</g>
			<g>
				<polygon style="fill:#7DCCE8;" points="357.085,314.488 351.866,319.874 351.8,317.874 357.019,312.488 				"/>
				<path style="fill:#0C2544;" d="M351.801,320.043l-0.073-2.196l0.021-0.022l5.335-5.506l0.073,2.196l-0.021,0.022
					L351.801,320.043z M351.872,317.901l0.06,1.804l5.082-5.244l-0.06-1.804L351.872,317.901z"/>
			</g>
			<g>
				<polygon style="fill:#7DCCE8;" points="368.115,303.218 362.896,308.603 362.829,306.603 368.048,301.218 				"/>
				<path style="fill:#0C2544;" d="M362.831,308.772l-0.074-2.196l0.021-0.022l5.335-5.506l0.074,2.196l-0.021,0.022
					L362.831,308.772z M362.901,306.631l0.061,1.804l5.082-5.244l-0.061-1.804L362.901,306.631z"/>
			</g>
		</g>
	</g>
	<g>
		<g>
			<polygon style="fill:#7DCCE8;" points="227.316,434.132 182.373,417.316 179.665,383.396 225.648,398.88 			"/>
		</g>
		<g>
			<polygon style="fill:#376398;" points="287.072,373.853 227.316,434.132 225.648,398.88 286.435,338.579 			"/>
		</g>
		<g>
			<polygon style="fill:#7DCCE8;" points="290.544,375.282 287.072,373.853 286.442,339.112 290.123,340.241 			"/>
		</g>
		<g>
			<polygon style="fill:#214065;" points="180.623,383.214 225.623,398.325 286.242,338.595 289.576,339.677 314.206,315.298 
				302.039,311.464 297.373,315.63 264.123,305.298 			"/>
			<path style="fill:#0C2544;" d="M225.753,398.893l-46.078-15.474l0.609-0.567l83.71-78.113l0.275,0.086l32.982,10.249l4.667-4.167
				l13.222,4.166l-25.43,25.17l-3.335-1.083L225.753,398.893z M181.57,383.009l43.922,14.749l60.617-59.728l3.333,1.081
				l23.831-23.588l-11.114-3.502l-4.665,4.165l-33.243-10.329L181.57,383.009z"/>
		</g>
		<g>
			<g>
				<g>
					<polygon style="fill:#284A72;" points="206.246,393.739 199.22,400.032 199.22,393.474 206.132,387.247 					"/>
				</g>
				<g>
					<polygon style="fill:#7DCCE8;" points="199.274,404.116 185.455,389.422 199.22,393.397 					"/>
				</g>
				<g>
					<polygon style="fill:#284A72;" points="210.923,428.728 201.834,438.05 198.595,403.021 208.33,394.29 					"/>
				</g>
				<g>
					<polygon style="fill:#214065;" points="199.211,392.851 186.466,389.196 194.665,382.021 207.029,385.929 					"/>
					<path style="fill:#0C2544;" d="M199.336,393.402l-13.881-3.98l9.093-7.959l13.465,4.257L199.336,393.402z M187.477,388.971
						l11.609,3.328l6.958-6.161l-11.263-3.56L187.477,388.971z"/>
				</g>
				<g>
					<polygon style="fill:#0C2544;" points="199.205,403.04 185.579,398.952 185.579,396.069 199.22,399.862 					"/>
				</g>
				<g>
					<polygon style="fill:#0C2544;" points="208.33,394.29 199.2,403.097 199.208,399.909 206.255,393.597 					"/>
				</g>
				<g>
					<polygon style="fill:#7DCCE8;" points="201.865,438.112 188.677,433.363 185.579,398.952 199.205,403.103 					"/>
				</g>
			</g>
			<g>
				<polygon style="fill:#FFFFFF;" points="195.371,435.839 193.779,435.22 191.15,400.624 192.726,401.142 				"/>
			</g>
			<g>
				<polygon style="fill:#FFFFFF;" points="207.677,432.138 206.379,433.468 203.789,398.976 205.16,397.767 				"/>
			</g>
		</g>
		<g>
			<polygon style="fill:#376398;" points="312.794,352.706 290.477,375.282 289.71,340.192 315.169,315.036 			"/>
		</g>
		<g>
			<g>
				<polygon style="fill:#7DCCE8;" points="232.175,407.032 228.542,410.939 228.308,402.224 231.939,398.317 				"/>
				<path style="fill:#0C2544;" d="M228.476,411.113l-0.004-0.173l-0.235-8.744l0.02-0.02l3.749-4.033l0.005,0.173l0.237,8.744
					l-0.02,0.021L228.476,411.113z M228.38,402.251l0.229,8.513l3.495-3.759l-0.23-8.513L228.38,402.251z"/>
			</g>
			<g>
				<polygon style="fill:#7DCCE8;" points="242.757,396.448 239.126,400.354 238.89,391.64 242.523,387.733 				"/>
				<path style="fill:#0C2544;" d="M239.061,400.529l-0.005-0.173l-0.237-8.744l0.02-0.021l3.751-4.033l0.004,0.173l0.235,8.744
					l-0.02,0.021L239.061,400.529z M238.962,391.667l0.23,8.513l3.493-3.759l-0.229-8.513L238.962,391.667z"/>
			</g>
			<g>
				<polygon style="fill:#7DCCE8;" points="252.511,386.696 248.879,390.603 248.644,381.888 252.276,377.981 				"/>
				<path style="fill:#0C2544;" d="M248.813,390.777l-0.005-0.173l-0.236-8.744l0.02-0.021l3.749-4.033l0.005,0.173l0.236,8.744
					l-0.02,0.021L248.813,390.777z M248.716,381.915l0.23,8.513l3.494-3.759l-0.229-8.513L248.716,381.915z"/>
			</g>
			<g>
				<polygon style="fill:#7DCCE8;" points="262.386,376.821 258.755,380.728 258.519,372.013 262.152,368.106 				"/>
				<path style="fill:#0C2544;" d="M258.689,380.902l-0.005-0.173l-0.237-8.744l0.02-0.021l3.751-4.033l0.004,0.173l0.235,8.744
					l-0.02,0.021L258.689,380.902z M258.591,372.04l0.23,8.513l3.493-3.759l-0.229-8.513L258.591,372.04z"/>
			</g>
			<g>
				<polygon style="fill:#7DCCE8;" points="272.554,366.737 268.921,370.644 268.687,361.929 272.318,358.022 				"/>
				<path style="fill:#0C2544;" d="M268.855,370.818l-0.004-0.173l-0.235-8.744l0.02-0.021l3.749-4.033l0.005,0.173l0.237,8.744
					l-0.02,0.021L268.855,370.818z M268.759,361.956l0.229,8.513l3.495-3.759l-0.23-8.513L268.759,361.956z"/>
			</g>
			<g>
				<polygon style="fill:#7DCCE8;" points="281.929,357.362 278.296,361.269 278.062,352.554 281.693,348.647 				"/>
				<path style="fill:#0C2544;" d="M278.23,361.443l-0.004-0.173l-0.235-8.744l0.02-0.021l3.749-4.033l0.005,0.173l0.237,8.744
					l-0.02,0.021L278.23,361.443z M278.134,352.581l0.229,8.513l3.495-3.759l-0.23-8.513L278.134,352.581z"/>
			</g>
		</g>
		<g>
			<g>
				<polygon style="fill:#7DCCE8;" points="233.63,422.575 229.998,426.481 229.763,417.767 233.394,413.86 				"/>
				<path style="fill:#0C2544;" d="M229.931,426.656l-0.004-0.173l-0.235-8.744l0.02-0.02l3.749-4.033l0.005,0.173l0.237,8.744
					l-0.02,0.02L229.931,426.656z M229.835,417.794l0.229,8.513l3.495-3.759l-0.23-8.513L229.835,417.794z"/>
			</g>
			<g>
				<polygon style="fill:#7DCCE8;" points="244.212,411.991 240.581,415.897 240.345,407.183 243.978,403.276 				"/>
				<path style="fill:#0C2544;" d="M240.516,416.072l-0.005-0.173l-0.237-8.744l0.02-0.021l3.751-4.033l0.004,0.173l0.235,8.744
					l-0.02,0.021L240.516,416.072z M240.417,407.21l0.23,8.513l3.493-3.759l-0.229-8.513L240.417,407.21z"/>
			</g>
			<g>
				<polygon style="fill:#7DCCE8;" points="253.966,402.239 250.334,406.146 250.099,397.431 253.731,393.524 				"/>
				<path style="fill:#0C2544;" d="M250.269,406.32l-0.005-0.173l-0.236-8.744l0.02-0.02l3.749-4.033l0.005,0.173l0.236,8.744
					l-0.02,0.021L250.269,406.32z M250.171,397.458l0.229,8.513l3.494-3.759l-0.23-8.513L250.171,397.458z"/>
			</g>
			<g>
				<polygon style="fill:#7DCCE8;" points="263.841,392.364 260.21,396.271 259.974,387.556 263.607,383.649 				"/>
				<path style="fill:#0C2544;" d="M260.145,396.445l-0.005-0.173l-0.237-8.744l0.02-0.02l3.751-4.033l0.004,0.173l0.235,8.744
					l-0.02,0.021L260.145,396.445z M260.046,387.583l0.23,8.513l3.493-3.759l-0.229-8.513L260.046,387.583z"/>
			</g>
			<g>
				<polygon style="fill:#7DCCE8;" points="274.009,382.196 270.376,386.103 270.142,377.388 273.773,373.481 				"/>
				<path style="fill:#0C2544;" d="M270.31,386.277l-0.004-0.173l-0.235-8.744l0.02-0.021l3.749-4.033l0.005,0.173l0.237,8.744
					l-0.02,0.021L270.31,386.277z M270.214,377.415l0.229,8.513l3.495-3.759l-0.23-8.513L270.214,377.415z"/>
			</g>
			<g>
				<polygon style="fill:#7DCCE8;" points="283.384,372.821 279.751,376.728 279.517,368.013 283.148,364.106 				"/>
				<path style="fill:#0C2544;" d="M279.685,376.902l-0.004-0.173l-0.235-8.744l0.02-0.021l3.749-4.033l0.005,0.173l0.237,8.744
					l-0.02,0.021L279.685,376.902z M279.589,368.04l0.229,8.513l3.495-3.759l-0.23-8.513L279.589,368.04z"/>
			</g>
		</g>
		<g>
			<polygon style="fill:#7DCCE8;" points="304.361,332.683 300.119,336.97 300.599,334.407 304.841,330.12 			"/>
			<path style="fill:#0C2544;" d="M300.006,337.184l0.527-2.811l0.015-0.016l4.405-4.451l-0.527,2.81l-0.015,0.016L300.006,337.184z
				 M300.665,334.441l-0.434,2.314l4.064-4.107l0.434-2.314L300.665,334.441z"/>
		</g>
		<g>
			<polygon style="fill:#7DCCE8;" points="304.361,339.065 300.119,343.353 300.599,340.79 304.841,336.503 			"/>
			<path style="fill:#0C2544;" d="M300.006,343.566l0.527-2.811l0.015-0.016l4.405-4.451l-0.527,2.811l-0.015,0.016L300.006,343.566
				z M300.665,340.824l-0.434,2.315l4.064-4.107l0.434-2.315L300.665,340.824z"/>
		</g>
		<g>
			<polygon style="fill:#7DCCE8;" points="304.361,345.45 300.119,349.737 300.599,347.175 304.841,342.888 			"/>
			<path style="fill:#0C2544;" d="M300.006,349.951l0.527-2.811l0.015-0.016l4.405-4.451l-0.527,2.811l-0.015,0.016L300.006,349.951
				z M300.665,347.209l-0.434,2.314l4.064-4.107l0.434-2.314L300.665,347.209z"/>
		</g>
		<g>
			<polygon style="fill:#7DCCE8;" points="304.332,351.833 300.09,356.12 300.571,353.558 304.813,349.271 			"/>
			<path style="fill:#0C2544;" d="M299.978,356.334l0.527-2.811l0.015-0.016l4.405-4.451l-0.527,2.811l-0.015,0.016L299.978,356.334
				z M300.636,353.592l-0.434,2.315l4.064-4.108l0.434-2.314L300.636,353.592z"/>
		</g>
		<g>
			<polygon style="fill:#7DCCE8;" points="304.361,358.216 300.119,362.503 300.599,359.94 304.841,355.653 			"/>
			<path style="fill:#0C2544;" d="M300.006,362.717l0.527-2.81l0.015-0.016l4.405-4.451l-0.527,2.81l-0.015,0.016L300.006,362.717z
				 M300.665,359.975l-0.434,2.314l4.064-4.107l0.434-2.314L300.665,359.975z"/>
		</g>
		<g>
			<polygon style="fill:#7DCCE8;" points="310.404,324.851 307.759,327.3 308.116,324.306 310.759,321.854 			"/>
			<path style="fill:#0C2544;" d="M307.666,327.482l0.382-3.211l2.804-2.6l-0.381,3.213L307.666,327.482z M308.183,324.34
				l-0.331,2.777l2.484-2.301l0.33-2.779L308.183,324.34z"/>
		</g>
		<g>
			<polygon style="fill:#7DCCE8;" points="310.404,331.767 307.759,334.216 308.116,331.222 310.759,328.771 			"/>
			<path style="fill:#0C2544;" d="M307.666,334.398l0.382-3.211l2.804-2.6l-0.381,3.213L307.666,334.398z M308.183,331.256
				l-0.331,2.777l2.484-2.301l0.33-2.779L308.183,331.256z"/>
		</g>
		<g>
			<polygon style="fill:#7DCCE8;" points="310.404,338.224 307.759,340.675 308.116,337.679 310.759,335.229 			"/>
			<path style="fill:#0C2544;" d="M307.666,340.857l0.382-3.213l2.804-2.598l-0.381,3.211L307.666,340.857z M308.183,337.713
				l-0.331,2.779l2.484-2.303l0.33-2.777L308.183,337.713z"/>
		</g>
		<g>
			<polygon style="fill:#7DCCE8;" points="310.404,344.653 307.759,347.104 308.116,344.108 310.759,341.659 			"/>
			<path style="fill:#0C2544;" d="M307.666,347.287l0.382-3.213l2.804-2.598l-0.381,3.211L307.666,347.287z M308.183,344.143
				l-0.331,2.779l2.484-2.303l0.33-2.777L308.183,344.143z"/>
		</g>
		<g>
			<polygon style="fill:#7DCCE8;" points="310.404,351.403 307.759,353.854 308.116,350.858 310.759,348.409 			"/>
			<path style="fill:#0C2544;" d="M307.666,354.037l0.382-3.213l2.804-2.598l-0.381,3.211L307.666,354.037z M308.183,350.893
				l-0.331,2.779l2.484-2.303l0.33-2.777L308.183,350.893z"/>
		</g>
		<g>
			<polygon style="fill:#7DCCE8;" points="295.73,338.823 293.179,341.37 293.422,338.364 295.973,335.817 			"/>
			<path style="fill:#0C2544;" d="M293.093,341.557l0.261-3.224l0.018-0.018l2.687-2.684l-0.261,3.224l-0.018,0.018L293.093,341.557
				z M293.491,338.396l-0.226,2.788l2.396-2.392l0.226-2.788L293.491,338.396z"/>
		</g>
		<g>
			<polygon style="fill:#7DCCE8;" points="295.988,345.733 293.437,348.282 293.681,345.274 296.232,342.728 			"/>
			<path style="fill:#0C2544;" d="M293.351,348.469l0.262-3.226l0.018-0.019l2.688-2.684l-0.262,3.224l-0.018,0.019L293.351,348.469
				z M293.749,345.306l-0.226,2.79l2.396-2.394l0.226-2.788L293.749,345.306z"/>
		</g>
		<g>
			<polygon style="fill:#7DCCE8;" points="296.228,352.189 293.678,354.735 293.921,351.729 296.472,349.181 			"/>
			<path style="fill:#0C2544;" d="M293.592,354.922l0.261-3.224l0.018-0.019l2.688-2.686l-0.262,3.226l-0.018,0.019L293.592,354.922
				z M293.99,351.761l-0.225,2.788l2.396-2.392l0.226-2.79L293.99,351.761z"/>
		</g>
		<g>
			<polygon style="fill:#7DCCE8;" points="296.562,358.513 294.011,361.06 294.255,358.052 296.806,355.505 			"/>
			<path style="fill:#0C2544;" d="M293.925,361.246l0.262-3.226l0.018-0.018l2.688-2.684l-0.262,3.226l-0.018,0.019L293.925,361.246
				z M294.324,358.083l-0.226,2.79l2.396-2.392l0.226-2.79L294.324,358.083z"/>
		</g>
		<g>
			<polygon style="fill:#FFFFFF;" points="297.14,368.542 295.04,370.667 295.149,365.411 297.423,363.061 			"/>
		</g>
		<g>
			<polygon style="fill:#4681C3;" points="181.585,383.006 217.351,370.667 280.392,310.827 264.226,305.91 			"/>
		</g>
		<g>
			<polygon style="fill:#376398;" points="225.487,398.366 217.215,370.708 217.487,370.626 225.758,398.284 			"/>
		</g>
		<g>
			<polygon style="fill:#376398;" points="289.988,340.286 280.257,310.872 280.527,310.782 290.257,340.196 			"/>
		</g>
		<g>
			<polygon style="fill:#4681C3;" points="187.539,388.939 195.06,384.496 206.122,386.16 194.789,382.577 			"/>
		</g>
	</g>
	<g>
		<g>
			<g>
				<g>
					<polygon style="fill:#284A72;" points="419.895,192.415 415.298,198.236 415.413,183.274 419.804,177.071 					"/>
				</g>
				<g>
					<polygon style="fill:#284A72;" points="421.304,200.915 415.298,205.165 416.181,191.007 421.7,183.457 					"/>
				</g>
				<g>
					<polygon style="fill:#7DCCE8;" points="415.499,191.841 402.827,188.216 402.827,180.248 415.499,182.924 					"/>
				</g>
				<g>
					<polygon style="fill:#214065;" points="415.222,182.702 403.784,179.94 409.163,175.509 419.174,177.576 					"/>
					<path style="fill:#0C2544;" d="M415.418,183.26l-12.716-3.07l6.329-5.214l11.021,2.276L415.418,183.26z M404.867,179.691
						l10.159,2.453l3.271-4.243l-9.001-1.859L404.867,179.691z"/>
				</g>
				<g>
					<polygon style="fill:#0C2544;" points="415.972,190.884 400.522,187.04 402.827,185.311 415.499,188.354 					"/>
				</g>
				<g>
					<polygon style="fill:#0C2544;" points="421.7,183.457 415.499,191.939 415.499,188.377 419.895,182.894 					"/>
				</g>
			</g>
			<g>
				<g>
					<polygon style="fill:#376398;" points="429.352,227.082 364.384,295.465 364.384,260.965 386.741,240.415 382.946,239.348 
						430.466,193.891 					"/>
				</g>
				<g>
					<polygon style="fill:#7DCCE8;" points="364.384,295.465 353.847,291.978 353.884,257.978 364.384,260.965 					"/>
				</g>
				<g>
					<polygon style="fill:#214065;" points="335.395,235.331 368.641,244.109 354.463,257.9 364.125,260.851 385.988,240.588 
						382.6,239.514 429.245,194.338 390.08,184.672 					"/>
					<path style="fill:#0C2544;" d="M364.253,261.408l-10.737-3.278l14.15-13.765l-33.27-8.785l55.543-51.455l0.26,0.064
						l40.035,9.88l-46.692,45.221l3.409,1.081L364.253,261.408z M355.41,257.671l8.587,2.622l21.029-19.49l-3.368-1.068
						l46.599-45.13l-38.036-9.387l-53.826,49.864l33.221,8.772L355.41,257.671z"/>
				</g>
			</g>
			<g>
				<polygon style="fill:#7DCCE8;" points="378.876,255.093 375.274,259.087 375.597,256.785 379.198,252.792 				"/>
				<path style="fill:#0C2544;" d="M375.172,259.306l0.357-2.552l0.015-0.016l3.756-4.165l-0.357,2.551l-0.015,0.016
					L375.172,259.306z M375.664,256.816l-0.288,2.051l3.432-3.806l0.288-2.05L375.664,256.816z"/>
			</g>
			<g>
				<polygon style="fill:#7DCCE8;" points="378.876,260.673 375.274,264.667 375.597,262.365 379.198,258.372 				"/>
				<path style="fill:#0C2544;" d="M375.172,264.886l0.357-2.552l0.015-0.016l3.756-4.165l-0.357,2.551l-0.015,0.016
					L375.172,264.886z M375.664,262.397l-0.288,2.051l3.432-3.806l0.288-2.05L375.664,262.397z"/>
			</g>
			<g>
				<polygon style="fill:#7DCCE8;" points="378.876,266.253 375.274,270.247 375.597,267.945 379.198,263.952 				"/>
				<path style="fill:#0C2544;" d="M375.172,270.466l0.357-2.552l0.015-0.016l3.756-4.165l-0.357,2.551l-0.015,0.016
					L375.172,270.466z M375.664,267.977l-0.288,2.051l3.432-3.806l0.288-2.05L375.664,267.977z"/>
			</g>
			<g>
				<polygon style="fill:#7DCCE8;" points="378.876,271.833 375.274,275.827 375.597,273.525 379.198,269.532 				"/>
				<path style="fill:#0C2544;" d="M375.172,276.046l0.357-2.552l0.015-0.016l3.756-4.165l-0.357,2.551l-0.015,0.016
					L375.172,276.046z M375.664,273.557l-0.288,2.051l3.432-3.806l0.288-2.05L375.664,273.557z"/>
			</g>
			<g>
				<polygon style="fill:#7DCCE8;" points="378.876,277.413 375.274,281.407 375.597,279.105 379.198,275.112 				"/>
				<path style="fill:#0C2544;" d="M375.172,281.626l0.357-2.552l0.015-0.016l3.756-4.165l-0.357,2.551l-0.015,0.016
					L375.172,281.626z M375.664,279.137l-0.288,2.051l3.432-3.806l0.288-2.05L375.664,279.137z"/>
			</g>
			<g>
				<polygon style="fill:#7DCCE8;" points="383.934,248.544 381.681,250.833 381.874,248.152 384.128,245.86 				"/>
				<path style="fill:#0C2544;" d="M381.596,251.02l0.209-2.899l0.019-0.019l2.389-2.429l-0.21,2.902l-0.018,0.019L381.596,251.02z
					 M381.943,248.184l-0.178,2.462l2.1-2.133l0.179-2.465L381.943,248.184z"/>
			</g>
			<g>
				<polygon style="fill:#7DCCE8;" points="383.934,254.645 381.681,256.934 381.874,254.253 384.128,251.961 				"/>
				<path style="fill:#0C2544;" d="M381.596,257.121l0.209-2.899l0.019-0.019l2.389-2.429l-0.21,2.902l-0.018,0.019L381.596,257.121
					z M381.943,254.284l-0.178,2.462l2.1-2.133l0.179-2.465L381.943,254.284z"/>
			</g>
			<g>
				<polygon style="fill:#7DCCE8;" points="383.934,260.744 381.681,263.033 381.874,260.353 384.128,258.06 				"/>
				<path style="fill:#0C2544;" d="M381.596,263.22l0.209-2.899l0.019-0.019l2.389-2.429l-0.21,2.902l-0.018,0.019L381.596,263.22z
					 M381.943,260.384l-0.178,2.462l2.1-2.133l0.179-2.465L381.943,260.384z"/>
			</g>
			<g>
				<polygon style="fill:#7DCCE8;" points="383.934,266.845 381.681,269.134 381.874,266.453 384.128,264.161 				"/>
				<path style="fill:#0C2544;" d="M381.596,269.321l0.209-2.899l0.019-0.019l2.389-2.429l-0.21,2.902l-0.018,0.018L381.596,269.321
					z M381.943,266.484l-0.178,2.462l2.1-2.133l0.179-2.465L381.943,266.484z"/>
			</g>
			<g>
				<polygon style="fill:#7DCCE8;" points="371.44,260.916 369.274,263.289 369.369,260.603 371.535,258.23 				"/>
				<path style="fill:#0C2544;" d="M369.197,263.479l0.103-2.904l0.018-0.02l2.296-2.515l-0.103,2.904l-0.018,0.02L369.197,263.479z
					 M369.439,260.632l-0.087,2.467l2.019-2.211l0.087-2.467L369.439,260.632z"/>
			</g>
			<g>
				<polygon style="fill:#7DCCE8;" points="369.364,266.417 371.435,263.962 371.446,266.649 369.374,269.104 				"/>
				<path style="fill:#0C2544;" d="M369.304,269.297l-0.01-2.906l0.017-0.02l2.196-2.602l0.011,2.906l-0.017,0.02L369.304,269.297z
					 M369.435,266.443l0.009,2.469l1.931-2.288l-0.01-2.469L369.435,266.443z"/>
			</g>
			<g>
				<polygon style="fill:#7DCCE8;" points="369.364,272.232 371.435,269.776 371.446,272.464 369.374,274.919 				"/>
				<path style="fill:#0C2544;" d="M369.304,275.112l-0.01-2.905l0.017-0.02l2.196-2.603l0.011,2.906l-0.017,0.02L369.304,275.112z
					 M369.435,272.258l0.009,2.468l1.931-2.288l-0.01-2.469L369.435,272.258z"/>
			</g>
			<g>
				<polygon style="fill:#7DCCE8;" points="369.364,278.048 371.435,275.591 371.446,278.278 369.374,280.733 				"/>
				<path style="fill:#0C2544;" d="M369.304,280.926l-0.01-2.904l0.017-0.02l2.196-2.604l0.011,2.906l-0.017,0.02L369.304,280.926z
					 M369.435,278.074l0.009,2.467l1.931-2.288l-0.01-2.469L369.435,278.074z"/>
			</g>
			<g>
				<polygon style="fill:#7DCCE8;" points="369.364,283.862 371.435,281.406 371.446,284.094 369.374,286.549 				"/>
				<path style="fill:#0C2544;" d="M369.304,286.742l-0.01-2.905l0.017-0.02l2.196-2.603l0.011,2.906l-0.017,0.02L369.304,286.742z
					 M369.435,283.888l0.009,2.468l1.931-2.288l-0.01-2.469L369.435,283.888z"/>
			</g>
			<g>
				<polygon style="fill:#FFFFFF;" points="384.571,274.27 382.904,275.955 383.035,271.903 384.84,270.039 				"/>
			</g>
			<g>
				<polygon style="fill:#7DCCE8;" points="393.614,244.038 390.663,247.344 390.321,240.106 393.271,236.804 				"/>
				<path style="fill:#0C2544;" d="M390.601,247.52l-0.352-7.439l0.02-0.022l3.065-3.432l0.352,7.436l-0.02,0.022L390.601,247.52z
					 M390.394,240.132l0.332,7.035l2.816-3.154l-0.333-7.033L390.394,240.132z"/>
			</g>
			<g>
				<polygon style="fill:#7DCCE8;" points="401.583,236.068 398.634,239.374 398.292,232.137 401.241,228.834 				"/>
				<path style="fill:#0C2544;" d="M398.571,239.551l-0.352-7.439l0.02-0.022l3.064-3.432l0.352,7.436L398.571,239.551z
					 M398.364,232.162l0.332,7.035l2.814-3.154l-0.332-7.033L398.364,232.162z"/>
			</g>
			<g>
				<polygon style="fill:#7DCCE8;" points="409.696,227.957 406.745,231.263 406.403,224.025 409.354,220.723 				"/>
				<path style="fill:#0C2544;" d="M406.683,231.439L406.331,224l0.02-0.022l3.066-3.432l0.352,7.436l-0.02,0.022L406.683,231.439z
					 M406.476,224.051l0.332,7.035l2.816-3.154l-0.332-7.033L406.476,224.051z"/>
			</g>
			<g>
				<polygon style="fill:#7DCCE8;" points="416.913,220.739 413.964,224.045 413.823,216.732 416.772,213.43 				"/>
				<path style="fill:#0C2544;" d="M413.896,224.227l-0.144-7.521l0.018-0.021l3.069-3.437l0.145,7.518l-0.019,0.021
					L413.896,224.227z M413.895,216.759l0.137,7.104l2.811-3.15l-0.137-7.102L413.895,216.759z"/>
			</g>
			<g>
				<polygon style="fill:#7DCCE8;" points="424.226,213.427 421.276,216.732 421.296,209.134 424.245,205.831 				"/>
				<path style="fill:#0C2544;" d="M421.205,216.919l0.02-7.813l0.018-0.02l3.073-3.442v0.187l-0.02,7.623l-0.018,0.02
					L421.205,216.919z M421.367,209.161l-0.019,7.385l2.807-3.146l0.02-7.382L421.367,209.161z"/>
			</g>
			<g>
				<polygon style="fill:#7DCCE8;" points="393.614,257.241 390.663,260.547 390.321,253.31 393.271,250.007 				"/>
				<path style="fill:#0C2544;" d="M390.601,260.724l-0.352-7.439l0.02-0.022l3.065-3.432l0.352,7.436l-0.02,0.022L390.601,260.724z
					 M390.394,253.335l0.332,7.035l2.816-3.154l-0.333-7.033L390.394,253.335z"/>
			</g>
			<g>
				<polygon style="fill:#7DCCE8;" points="401.583,249.271 398.634,252.577 398.292,245.34 401.241,242.037 				"/>
				<path style="fill:#0C2544;" d="M398.571,252.754l-0.352-7.439l0.02-0.022l3.064-3.432l0.352,7.436L398.571,252.754z
					 M398.364,245.365l0.332,7.035l2.814-3.154l-0.332-7.033L398.364,245.365z"/>
			</g>
			<g>
				<polygon style="fill:#7DCCE8;" points="409.696,241.16 406.745,244.466 406.403,237.229 409.354,233.926 				"/>
				<path style="fill:#0C2544;" d="M406.683,244.643l-0.352-7.439l0.02-0.022l3.066-3.432l0.352,7.436l-0.02,0.022L406.683,244.643z
					 M406.476,237.254l0.332,7.035l2.816-3.154l-0.332-7.033L406.476,237.254z"/>
			</g>
			<g>
				<polygon style="fill:#7DCCE8;" points="416.913,233.942 413.964,237.248 413.823,229.936 416.772,226.633 				"/>
				<path style="fill:#0C2544;" d="M413.896,237.43l-0.144-7.521l0.018-0.021l3.069-3.437l0.145,7.518l-0.019,0.021L413.896,237.43z
					 M413.895,229.962l0.137,7.104l2.811-3.15l-0.137-7.102L413.895,229.962z"/>
			</g>
			<g>
				<polygon style="fill:#7DCCE8;" points="424.226,226.63 421.276,229.936 421.296,222.337 424.245,219.034 				"/>
				<path style="fill:#0C2544;" d="M421.205,230.122l0.02-7.813l0.018-0.02l3.073-3.442v0.186l-0.02,7.623l-0.018,0.02
					L421.205,230.122z M421.367,222.364l-0.019,7.385l2.807-3.146l0.02-7.382L421.367,222.364z"/>
			</g>
			<g>
				<polygon style="fill:#4681C3;" points="352.905,239.537 398.412,194.951 390.2,185.311 336.491,235.04 				"/>
			</g>
			<g>
				<polyline style="fill:#294D6F;" points="428.226,194.618 390.167,185.352 398.38,194.992 				"/>
			</g>
		</g>
		<g>
			<polygon style="fill:#4681C3;" points="404.909,179.686 409.616,177.082 418.5,177.852 409.325,176.02 			"/>
		</g>
	</g>
	<g>
		<g>
			<polygon style="fill:#376398;" points="177.658,328.775 83.056,381.147 81.576,357.272 178.285,304.855 			"/>
		</g>
		<g>
			<polygon style="fill:#7DCCE8;" points="83.056,381.147 55.41,360.636 53.494,339.345 81.576,357.272 			"/>
		</g>
		<g>
			<polygon style="fill:#376398;" points="91.703,376.359 83.056,381.147 81.576,357.168 90.102,352.651 			"/>
		</g>
		<g>
			<g>
				<polygon style="fill:#7DCCE8;" points="103.205,366.997 97.241,370.533 96.848,361.435 102.812,357.9 				"/>
				<path style="fill:#0C2544;" d="M97.175,370.654l-0.005-0.118l-0.396-9.14l0.037-0.022l6.066-3.596l0.005,0.118l0.396,9.139
					l-0.037,0.021L97.175,370.654z M96.92,361.475l0.387,8.938l5.825-3.454l-0.387-8.936L96.92,361.475z"/>
			</g>
			<g>
				<polygon style="fill:#7DCCE8;" points="116.371,359.591 110.408,363.127 110.048,353.994 116.012,350.459 				"/>
				<path style="fill:#0C2544;" d="M110.342,363.249l-0.005-0.119l-0.362-9.175l0.036-0.022l6.066-3.596l0.005,0.118l0.361,9.174
					L110.342,363.249z M110.12,354.033l0.354,8.972l5.825-3.453l-0.353-8.971L110.12,354.033z"/>
			</g>
			<g>
				<polygon style="fill:#7DCCE8;" points="130.896,351.527 124.932,355.064 124.521,345.983 130.484,342.448 				"/>
				<path style="fill:#0C2544;" d="M124.866,355.185l-0.418-9.24l0.037-0.021l6.065-3.596l0.419,9.239l-0.037,0.021L124.866,355.185
					z M124.593,346.022l0.404,8.92l5.827-3.454l-0.405-8.919L124.593,346.022z"/>
			</g>
			<g>
				<polygon style="fill:#7DCCE8;" points="143.229,344.92 137.266,348.456 136.908,339.322 142.872,335.787 				"/>
				<path style="fill:#0C2544;" d="M137.2,348.578l-0.005-0.119l-0.359-9.176l0.036-0.022l6.066-3.597l0.005,0.119l0.359,9.175
					L137.2,348.578z M136.98,339.361l0.351,8.973l5.826-3.453l-0.352-8.972L136.98,339.361z"/>
			</g>
			<g>
				<polygon style="fill:#7DCCE8;" points="156.646,337.019 150.682,340.555 150.246,331.498 156.211,327.963 				"/>
				<path style="fill:#0C2544;" d="M150.617,340.676l-0.006-0.118l-0.438-9.099l0.037-0.022l6.066-3.596l0.006,0.118l0.438,9.098
					l-0.037,0.022L150.617,340.676z M150.319,331.537l0.428,8.896l5.827-3.454l-0.428-8.895L150.319,331.537z"/>
			</g>
			<g>
				<polygon style="fill:#7DCCE8;" points="170.479,329.475 164.516,333.011 164.047,323.986 170.012,320.451 				"/>
				<path style="fill:#0C2544;" d="M164.451,333.132l-0.006-0.117l-0.471-9.067l0.037-0.021l6.066-3.596l0.006,0.117l0.47,9.066
					l-0.037,0.021L164.451,333.132z M164.12,324.025l0.46,8.864l5.827-3.454l-0.46-8.863L164.12,324.025z"/>
			</g>
		</g>
		<g>
			<g>
				<polygon style="fill:#7DCCE8;" points="101.424,350.758 95.414,354.216 95.14,345.112 101.15,341.655 				"/>
				<path style="fill:#0C2544;" d="M95.347,354.336l-0.003-0.118l-0.276-9.146l0.037-0.021l6.113-3.516l0.003,0.118l0.275,9.145
					l-0.037,0.021L95.347,354.336z M95.212,345.152l0.27,8.943l5.87-3.378l-0.269-8.942L95.212,345.152z"/>
			</g>
			<g>
				<polygon style="fill:#7DCCE8;" points="114.688,343.524 108.677,346.982 108.438,337.846 114.448,334.389 				"/>
				<path style="fill:#0C2544;" d="M108.609,347.103l-0.003-0.119l-0.24-9.179l0.037-0.021l6.114-3.517l0.003,0.119l0.24,9.178
					l-0.037,0.021L108.609,347.103z M108.509,337.886l0.235,8.976l5.871-3.377l-0.235-8.975L108.509,337.886z"/>
			</g>
			<g>
				<polygon style="fill:#7DCCE8;" points="129.316,335.653 123.307,339.11 123.015,330.026 129.025,326.57 				"/>
				<path style="fill:#0C2544;" d="M123.24,339.23l-0.297-9.244l0.037-0.021l6.113-3.515l0.004,0.118l0.293,9.125l-0.037,0.021
					L123.24,339.23z M123.087,330.066l0.287,8.924l5.871-3.377l-0.286-8.923L123.087,330.066z"/>
			</g>
			<g>
				<polygon style="fill:#7DCCE8;" points="141.736,329.21 135.727,332.667 135.488,323.529 141.5,320.073 				"/>
				<path style="fill:#0C2544;" d="M135.659,332.788l-0.003-0.119l-0.239-9.18l0.037-0.021l6.115-3.516l0.003,0.119l0.237,9.179
					l-0.037,0.022L135.659,332.788z M135.56,323.569l0.234,8.977l5.87-3.376l-0.232-8.976L135.56,323.569z"/>
			</g>
			<g>
				<polygon style="fill:#7DCCE8;" points="155.256,321.486 149.246,324.943 148.93,315.883 154.939,312.426 				"/>
				<path style="fill:#0C2544;" d="M149.179,325.064l-0.004-0.117l-0.318-9.103l0.037-0.022l6.112-3.516l0.004,0.117l0.318,9.103
					l-0.037,0.022L149.179,325.064z M149.002,315.923l0.311,8.9l5.871-3.377l-0.311-8.9L149.002,315.923z"/>
			</g>
			<g>
				<polygon style="fill:#7DCCE8;" points="169.188,314.125 163.178,317.583 162.828,308.553 168.838,305.096 				"/>
				<path style="fill:#0C2544;" d="M163.111,317.703l-0.004-0.117l-0.351-9.073l0.037-0.021l6.111-3.516l0.004,0.117l0.351,9.072
					l-0.037,0.021L163.111,317.703z M162.9,308.593l0.344,8.87l5.871-3.378l-0.344-8.869L162.9,308.593z"/>
			</g>
		</g>
		<g>
			<polygon style="fill:#214065;" points="52.189,338.071 133.842,295.5 132.511,294.004 154.129,281.364 185.56,300.655 
				81.625,356.696 			"/>
			<path style="fill:#0C2544;" d="M81.605,357.271l-30.409-19.241l0.764-0.397l81.088-42.277l-1.311-1.473l22.398-13.095
				l32.418,19.896L81.605,357.271z M53.183,338.113l28.462,18.009l102.921-55.494l-30.443-18.685l-20.839,12.184l1.352,1.519
				l-0.564,0.294L53.183,338.113z"/>
		</g>
		<g>
			<polygon style="fill:#FFFFFF;" points="69.744,371.271 63.282,366.463 62.455,350.007 68.917,354.581 			"/>
		</g>
		<g>
			<polyline style="fill:#4681C3;" points="53.264,338.043 76.227,336.507 159.727,292.735 184.576,300.657 154.227,281.84 
				133.279,294.079 134.639,295.642 			"/>
		</g>
		<g>
			<polygon style="fill:#294D6F;" points="53.186,338.09 76.165,336.673 81.498,356.048 			"/>
		</g>
		<g>
			<polygon style="fill:#376398;" points="81.361,356.085 76.09,336.544 76.363,336.47 81.635,356.011 			"/>
		</g>
		<g>
			<path style="fill:none;stroke:#376398;stroke-width:0.2835;stroke-miterlimit:10;" d="M159.727,292.735"/>
		</g>
		<g>
			<path style="fill:none;stroke:#376398;stroke-width:0.2835;stroke-miterlimit:10;" d="M154.227,281.84"/>
		</g>
	</g>
	<g>
		<line style="fill:#0D2846;" x1="316.349" y1="292.103" x2="334.394" y2="275.709"/>
	</g>
	<polygon style="fill:#7DCCE8;" points="193.876,398.376 185.579,396.069 185.455,389.422 	"/>
</g>
</svg>
