<svg id="图层_1" data-name="图层 1" xmlns="http://www.w3.org/2000/svg" viewBox="0 0 810.32 810.32"><defs><style>.cls-1{fill:#e4007f;}</style></defs><title>矢量智能对象1</title><path d="M1113.44,260.89v-51a25.52,25.52,0,1,0-51,0v51h-204v-51a25.52,25.52,0,0,0-51,0V350.17a25.52,25.52,0,0,0,51,0V311.93h204.08v38.24a25.52,25.52,0,1,0,51,0V311.93Z" transform="translate(-555.68 -134.03)"/><path d="M825,426.72H743.28a18.75,18.75,0,0,0-18.72,18.73v70.08a18.74,18.74,0,0,0,18.72,18.72H825a18.74,18.74,0,0,0,18.72-18.72V445.45A18.75,18.75,0,0,0,825,426.72Zm176.32,0H919.6a18.75,18.75,0,0,0-18.72,18.73v70.08a18.74,18.74,0,0,0,18.72,18.72h81.68A18.74,18.74,0,0,0,1020,515.53V445.45a18.75,18.75,0,0,0-18.72-18.73Zm176.4,0h-81.76a18.75,18.75,0,0,0-18.72,18.73v70.08a18.74,18.74,0,0,0,18.72,18.72h81.76a18.74,18.74,0,0,0,18.72-18.72V445.45a18.8,18.8,0,0,0-18.72-18.73ZM825,605.13H743.28a18.74,18.74,0,0,0-18.72,18.72v70.08a18.74,18.74,0,0,0,18.72,18.72H825a18.74,18.74,0,0,0,18.72-18.72V623.85A18.74,18.74,0,0,0,825,605.13Zm176.32,0H919.6a18.74,18.74,0,0,0-18.72,18.72v70.08a18.74,18.74,0,0,0,18.72,18.72h81.68A18.74,18.74,0,0,0,1020,693.93V623.85a18.74,18.74,0,0,0-18.72-18.72Zm176.4,0h-81.76a18.74,18.74,0,0,0-18.72,18.72v70.08a18.74,18.74,0,0,0,18.72,18.72h81.76a18.74,18.74,0,0,0,18.72-18.72V623.85a18.8,18.8,0,0,0-18.72-18.72Zm0,0" transform="translate(-555.68 -134.03)"/><path class="cls-1" d="M960.84,944.34a403.92,403.92,0,1,1,157.71-31.84A402.65,402.65,0,0,1,960.84,944.34Zm0-770.31a365.15,365.15,0,1,0,258.21,107A362.77,362.77,0,0,0,960.84,174Z" transform="translate(-555.68 -134.03)"/></svg>