<?xml version="1.0" encoding="iso-8859-1"?>
<!-- Generator: Adobe Illustrator 21.0.0, SVG Export Plug-In . SVG Version: 6.00 Build 0)  -->
<svg version="1.1" id="&#x56FE;&#x5C42;_1" xmlns="http://www.w3.org/2000/svg" xmlns:xlink="http://www.w3.org/1999/xlink" x="0px"
	 y="0px" viewBox="0 0 800 420" style="enable-background:new 0 0 800 420;" xml:space="preserve">
<g>
	<polygon style="fill:#978D78;" points="513.453,172.605 531.848,170.099 540.806,134.518 562.62,140.569 559.722,175.163 
		531.848,176.194 533.87,194.944 513.453,196.225 	"/>
	<polygon style="fill:#707172;" points="525.223,172.621 529.973,152.871 535.098,152.871 536.973,131.246 542.098,115.121 
		569.098,122.621 565.598,156.871 611.598,169.121 601.598,188.121 601.348,198.371 609.848,186.371 607.098,298.121 
		596.098,309.871 579.348,304.371 562.098,194.371 525.223,195.621 525.223,190.621 530.848,174.871 557.098,174.371 
		560.348,142.121 541.848,137.121 538.848,155.121 532.848,172.621 	"/>
	<polygon style="fill:#A0977F;" points="572.914,267.264 599.37,277.17 597.136,294.194 574.786,287.069 	"/>
	<polygon style="fill:#A0977F;" points="601.598,235.716 592.12,235.716 597.136,198.371 599.266,198.371 	"/>
	<line style="fill:none;stroke:#FFFFFF;stroke-width:2;stroke-miterlimit:10;" x1="577.348" y1="287.57" x2="607.348" y2="297.57"/>
	<line style="fill:#A0977F;" x1="595.12" y1="235.716" x2="603.62" y2="235.716"/>
	
		<line style="fill:none;stroke:#FFFFFF;stroke-width:2;stroke-miterlimit:10;" x1="565.098" y1="175.163" x2="531.848" y2="175.163"/>
	
		<line style="fill:none;stroke:#FFFFFF;stroke-width:2;stroke-miterlimit:10;" x1="534.348" y1="195.663" x2="531.848" y2="175.163"/>
	<polygon style="fill:#978D78;" points="598.175,187.569 601.598,188.121 601.348,198.371 597.136,198.371 	"/>
	<polygon style="fill:#A0977F;" points="565.527,173.952 564.864,185.687 564.66,222.936 596.098,221.794 598.175,179.74 	"/>
	<g>
		<path style="fill:none;stroke:#FFFFFF;stroke-width:2;stroke-miterlimit:10;" d="M628.098,196.352"/>
		
			<line style="fill:none;stroke:#FFFFFF;stroke-width:2;stroke-miterlimit:10;" x1="530.848" y1="153.018" x2="538.265" y2="152.852"/>
		
			<line style="fill:none;stroke:#FFFFFF;stroke-width:2;stroke-miterlimit:10;" x1="538.89" y1="152.852" x2="542.723" y2="116.185"/>
		
			<line style="fill:none;stroke:#FFFFFF;stroke-width:2;stroke-miterlimit:10;" x1="542.723" y1="116.185" x2="568.973" y2="122.435"/>
		<line style="fill:#FFFFFF;" x1="564.431" y1="174.018" x2="568.973" y2="122.435"/>
		
			<line style="fill:none;stroke:#FFFFFF;stroke-width:2;stroke-miterlimit:10;" x1="565.886" y1="157.5" x2="610.765" y2="169.518"/>
		
			<line style="fill:none;stroke:#FFFFFF;stroke-width:2;stroke-miterlimit:10;" x1="598.175" y1="166.147" x2="596.098" y2="221.435"/>
		
			<line style="fill:none;stroke:#FFFFFF;stroke-width:2;stroke-miterlimit:10;" x1="566.702" y1="222.435" x2="596.098" y2="221.435"/>
		
			<line style="fill:none;stroke:#FFFFFF;stroke-width:2;stroke-miterlimit:10;" x1="610.348" y1="186.685" x2="607.348" y2="297.435"/>
		
			<line style="fill:none;stroke:#FFFFFF;stroke-width:2;stroke-miterlimit:10;" x1="568.41" y1="236.685" x2="608.848" y2="236.685"/>
		
			<line style="fill:none;stroke:#FFFFFF;stroke-width:2;stroke-miterlimit:10;" x1="571.348" y1="255.185" x2="607.098" y2="265.435"/>
	</g>
	<polygon style="fill:#707172;" points="130.15,294.413 181.9,143.913 511.65,142.663 516.65,194.788 561.9,194.538 
		577.817,303.413 568.525,314.913 476.775,314.913 476.352,305.835 149.65,305.913 	"/>
	<polygon style="fill:#978D78;" points="199.453,164.903 157.106,293.363 479.378,290.001 479.878,300.751 564.66,300.436 
		552.12,212.903 513.12,214.236 506.786,162.236 	"/>
	<polygon style="fill:#EAE9E9;" points="510.973,174.277 495.598,174.277 496.507,182.438 497.938,195.277 514.62,195.277 	"/>
	<g>
		<g>
			<polygon style="fill:#807B7C;" points="279.293,170.842 272.322,202.291 274.491,205.35 282.488,205.565 289.58,174.244 
				287.415,171.059 			"/>
			<polygon style="fill:#FCF3F7;" points="279.168,170.838 272.326,202.166 280.573,202.387 287.79,171.069 			"/>
		</g>
		<g>
			
				<rect x="276.247" y="198.654" transform="matrix(0.2256 -0.9742 0.9742 0.2256 20.9538 424.4356)" style="fill:#999899;" width="2.409" height="0.767"/>
			
				<rect x="277.11" y="194.926" transform="matrix(0.2256 -0.9742 0.9742 0.2256 25.2538 422.3899)" style="fill:#999899;" width="2.409" height="0.767"/>
			
				<rect x="277.986" y="191.142" transform="matrix(0.2256 -0.9742 0.9742 0.2256 29.619 420.313)" style="fill:#999899;" width="2.409" height="0.767"/>
			
				<rect x="278.739" y="187.891" transform="matrix(0.2256 -0.9742 0.9742 0.2256 33.3699 418.5284)" style="fill:#999899;" width="2.409" height="0.767"/>
			
				<rect x="279.503" y="184.592" transform="matrix(0.2256 -0.9742 0.9742 0.2256 37.1751 416.7181)" style="fill:#999899;" width="2.409" height="0.767"/>
			
				<rect x="280.366" y="180.864" transform="matrix(0.2256 -0.9742 0.9742 0.2256 41.475 414.6723)" style="fill:#999899;" width="2.409" height="0.767"/>
			
				<rect x="281.242" y="177.08" transform="matrix(0.2256 -0.9742 0.9742 0.2256 45.8403 412.5955)" style="fill:#999899;" width="2.409" height="0.767"/>
			
				<rect x="281.995" y="173.828" transform="matrix(0.2256 -0.9742 0.9742 0.2256 49.5912 410.8109)" style="fill:#999899;" width="2.409" height="0.767"/>
		</g>
	</g>
	<g>
		<polygon style="fill:#2E3C4A;" points="230.203,151.029 235.37,159.779 252.62,159.779 247.37,151.029 		"/>
		
			<line style="fill:none;stroke:#707172;stroke-width:0.25;stroke-miterlimit:10;" x1="231.439" y1="154.276" x2="249.328" y2="154.276"/>
		
			<line style="fill:none;stroke:#707172;stroke-width:0.25;stroke-miterlimit:10;" x1="239.057" y1="151.029" x2="243.62" y2="159.779"/>
	</g>
	<polygon style="fill:#EAE9E9;" points="376.363,162.717 384.006,162.464 381.394,213.217 372.814,213.57 372.814,213.57 
		375.461,170.483 	"/>
	<polygon style="fill:#EAE9E9;" points="392.943,162.598 385.943,162.598 382.108,213.27 390.681,213.27 390.681,213.27 
		393.611,170.2 	"/>
	<g>
		
			<rect x="388.362" y="170.962" transform="matrix(0.9989 0.0459 -0.0459 0.9989 8.3422 -17.7115)" style="fill:#EAE9E9;stroke:#999899;stroke-width:0.25;stroke-miterlimit:10;" width="2.244" height="3.333"/>
		
			<rect x="387.079" y="185.596" transform="matrix(0.9962 0.0873 -0.0873 0.9962 17.8391 -33.1901)" style="fill:#EAE9E9;stroke:#999899;stroke-width:0.25;stroke-miterlimit:10;" width="2.244" height="3.333"/>
		
			<rect x="386.184" y="202.116" transform="matrix(0.9962 0.0873 -0.0873 0.9962 19.2786 -33.0487)" style="fill:#EAE9E9;stroke:#999899;stroke-width:0.25;stroke-miterlimit:10;" width="2.244" height="3.333"/>
		
			<line style="fill:none;stroke:#999899;stroke-width:0.5;stroke-miterlimit:10;" x1="384.775" y1="179.626" x2="393.033" y2="180.113"/>
		
			<line style="fill:none;stroke:#999899;stroke-width:0.5;stroke-miterlimit:10;" x1="383.482" y1="195.12" x2="391.878" y2="195.615"/>
	</g>
	<g>
		
			<rect x="378.164" y="170.938" transform="matrix(0.9997 0.0232 -0.0232 0.9997 4.1024 -8.7444)" style="fill:#EAE9E9;stroke:#999899;stroke-width:0.25;stroke-miterlimit:10;" width="2.244" height="3.333"/>
		
			<rect x="377.215" y="185.597" transform="matrix(0.9979 0.0646 -0.0646 0.9979 12.8933 -24.0595)" style="fill:#EAE9E9;stroke:#999899;stroke-width:0.25;stroke-miterlimit:10;" width="2.244" height="3.333"/>
		
			<rect x="376.696" y="202.134" transform="matrix(0.9979 0.0646 -0.0646 0.9979 13.961 -23.9914)" style="fill:#EAE9E9;stroke:#999899;stroke-width:0.25;stroke-miterlimit:10;" width="2.244" height="3.333"/>
		
			<line style="fill:none;stroke:#999899;stroke-width:0.5;stroke-miterlimit:10;" x1="374.737" y1="179.707" x2="383.004" y2="180.006"/>
		
			<line style="fill:none;stroke:#999899;stroke-width:0.5;stroke-miterlimit:10;" x1="373.797" y1="195.227" x2="382.202" y2="195.53"/>
	</g>
	<g>
		<g>
			<polygon style="fill:#FCF3F7;" points="452.12,169.277 453.33,200.277 460.879,200.277 459.919,169.277 			"/>
			<polygon style="fill:#807B7C;" points="453.33,200.277 453.33,202.636 460.917,202.636 460.879,200.277 			"/>
		</g>
		<rect x="455.152" y="167.977" style="fill:#FCF3F7;" width="1.655" height="1.655"/>
	</g>
	<g>
		<g>
			<polygon style="fill:#FCF3F7;" points="397.347,169.006 396.356,200.014 403.885,200.549 405.127,169.559 			"/>
			<polygon style="fill:#807B7C;" points="396.356,200.014 396.189,202.367 403.756,202.905 403.885,200.549 			"/>
		</g>
		
			<rect x="400.403" y="167.98" transform="matrix(0.9975 0.0709 -0.0709 0.9975 12.9829 -28.0318)" style="fill:#FCF3F7;" width="1.655" height="1.655"/>
	</g>
	<g>
		<g>
			<polygon style="fill:#FCF3F7;" points="316.52,170.443 312.247,201.171 319.677,202.501 324.197,171.818 			"/>
			<polygon style="fill:#807B7C;" points="312.247,201.171 311.832,203.493 319.299,204.83 319.677,202.501 			"/>
		</g>
		
			<rect x="319.575" y="169.83" transform="matrix(0.9843 0.1763 -0.1763 0.9843 35.0968 -53.8028)" style="fill:#FCF3F7;" width="1.655" height="1.655"/>
	</g>
	<g>
		<polygon style="fill:#807B7C;" points="305.822,251.311 299.697,282.936 301.947,285.936 309.947,285.936 316.197,254.436 
			313.947,251.311 		"/>
		<polygon style="fill:#FCF3F7;" points="305.697,251.311 299.697,282.811 307.947,282.811 314.322,251.311 		"/>
	</g>
	<g>
		
			<rect x="303.532" y="279.163" transform="matrix(0.1994 -0.9799 0.9799 0.1994 -29.9586 522.4245)" style="fill:#999899;" width="2.409" height="0.767"/>
		
			<rect x="304.295" y="275.413" transform="matrix(0.1994 -0.9799 0.9799 0.1994 -25.6737 520.1703)" style="fill:#999899;" width="2.409" height="0.767"/>
		
			<rect x="305.07" y="271.607" transform="matrix(0.1994 -0.9799 0.9799 0.1994 -21.3237 517.8819)" style="fill:#999899;" width="2.409" height="0.767"/>
		
			<rect x="305.735" y="268.336" transform="matrix(0.1994 -0.9799 0.9799 0.1994 -17.5859 515.9155)" style="fill:#999899;" width="2.409" height="0.767"/>
		
			<rect x="306.41" y="265.018" transform="matrix(0.1994 -0.9799 0.9799 0.1994 -13.7941 513.9207)" style="fill:#999899;" width="2.409" height="0.767"/>
		
			<rect x="307.173" y="261.269" transform="matrix(0.1994 -0.9799 0.9799 0.1994 -9.5092 511.6665)" style="fill:#999899;" width="2.409" height="0.767"/>
		
			<rect x="307.948" y="257.463" transform="matrix(0.1994 -0.9799 0.9799 0.1994 -5.1592 509.3781)" style="fill:#999899;" width="2.409" height="0.767"/>
		
			<rect x="308.613" y="254.192" transform="matrix(0.1994 -0.9799 0.9799 0.1994 -1.4214 507.4117)" style="fill:#999899;" width="2.409" height="0.767"/>
	</g>
	<polygon style="fill:#707171;" points="409.901,232.197 409.635,263.322 412.682,275.822 445.62,275.822 445.62,262.155 
		445.62,230.989 	"/>
	<rect x="411.495" y="243.597" style="fill:#9F9581;" width="32.625" height="19.5"/>
	<polygon style="fill:#707171;" points="265.454,245.162 259.087,276.662 239.806,276.662 228.829,265.162 233.871,231.162 
		251.355,231.162 	"/>
	<polygon style="fill:#707172;" points="415.026,196.503 415.026,163.003 447.214,163.003 447.964,195.628 447.089,195.378 
		446.464,180.628 432.776,180.331 433.089,196.503 431.161,196.503 430.714,180.378 417.089,180.753 416.964,196.503 	"/>
	<polygon style="fill:#707172;" points="315.12,233.181 310.453,263.472 318.453,276.806 352.786,276.806 356.453,244.472 
		350.12,231.472 	"/>
	<polygon style="fill:#707172;" points="319.054,196.338 323.786,163.621 354.244,163.56 357.588,179.338 356.495,196.338 	"/>
	<polygon style="fill:#707172;" points="226.12,196.67 234.953,162.836 266.62,163.67 275.62,177.18 271.228,196.225 	"/>
	<polygon style="fill:#707172;" points="473.332,231.254 472.203,246.014 476.762,291 479.425,291 	"/>
	<g>
		<path style="fill:#2E3C4A;" d="M271.87,151.029"/>
		
			<line style="fill:none;stroke:#707172;stroke-width:0.25;stroke-miterlimit:10;" x1="274.189" y1="154.276" x2="292.078" y2="154.276"/>
		
			<line style="fill:none;stroke:#707172;stroke-width:0.25;stroke-miterlimit:10;" x1="281.807" y1="151.029" x2="286.37" y2="159.779"/>
	</g>
	<polygon style="fill:#707172;" points="236.796,232.962 246.488,245.968 236.155,291.276 221.905,291.276 	"/>
	<polygon style="fill:#707172;" points="186.874,232.311 196.566,245.317 182.577,290.625 168.327,290.625 	"/>
	<polygon style="fill:#707171;" points="154.568,231.819 474.286,229.444 474.286,243.444 173.453,246.778 	"/>
	<polygon style="fill:#707172;" points="283.684,232.962 295.337,245.427 287.349,291.276 273.099,291.276 	"/>
	<polygon style="fill:#040000;" points="181.08,246.778 178.744,246.778 172.453,238.93 174.789,238.93 	"/>
	<polygon style="fill:#EAE9E9;" points="296.297,241.501 289.351,240.636 279.282,290.445 287.789,291.504 287.789,291.504 
		296.02,249.127 	"/>
	<g>
		
			<rect x="290.503" y="249.361" transform="matrix(0.9856 0.1691 -0.1691 0.9856 46.6385 -45.6905)" style="fill:#EAE9E9;stroke:#999899;stroke-width:0.25;stroke-miterlimit:10;" width="2.244" height="3.333"/>
		
			<rect x="287.421" y="263.723" transform="matrix(0.9777 0.2098 -0.2098 0.9777 62.1024 -54.6313)" style="fill:#EAE9E9;stroke:#999899;stroke-width:0.25;stroke-miterlimit:10;" width="2.244" height="3.333"/>
		
			<rect x="284.491" y="280.006" transform="matrix(0.9777 0.2098 -0.2098 0.9777 65.4534 -53.654)" style="fill:#EAE9E9;stroke:#999899;stroke-width:0.25;stroke-miterlimit:10;" width="2.244" height="3.333"/>
		
			<line style="fill:none;stroke:#999899;stroke-width:0.5;stroke-miterlimit:10;" x1="286.087" y1="257.388" x2="294.222" y2="258.892"/>
		
			<line style="fill:none;stroke:#999899;stroke-width:0.5;stroke-miterlimit:10;" x1="282.889" y1="272.604" x2="291.159" y2="274.133"/>
	</g>
	<polygon style="fill:#707172;" points="331.397,237.436 338.019,244.605 331.944,289.924 324.897,290.243 	"/>
	<polygon style="fill:#707172;" points="380.533,235.716 375.473,289.854 381.243,290.915 384.269,244.331 	"/>
	<polygon style="fill:#707172;" points="471.953,145.77 469.12,162.02 470.536,197.903 474.286,197.903 	"/>
	<polygon style="fill:#707172;" points="432.793,272.348 427.978,270.68 427.978,289.665 432.87,289.665 	"/>
	<polygon style="fill:#FFFFFF;" points="159.036,279.475 161.684,279.475 156.595,295.142 130.15,294.413 181.428,144.475 
		510.762,142.809 515.428,194.475 560.095,194.475 577.386,303.475 478.595,303.892 478.095,291.975 165.845,293.225 
		186.47,225.225 189.22,225.225 169.22,290.6 480.345,289.475 481.345,300.225 573.845,299.725 558.595,197.225 512.845,197.475 
		508.345,144.975 182.845,146.225 133.039,292.307 154.246,292.844 	"/>
	<polygon style="fill:#2C3848;" points="171.496,201.602 188.809,152.381 211.661,152.381 212.309,160.881 197.475,161.215 
		180.663,209.102 	"/>
	<polygon style="fill:#707172;" points="212.577,147.77 194.984,206.415 210.827,221.02 212.577,216.52 551.994,214.436 
		564.66,300.436 576.66,300.436 560.66,197.103 217.077,198.02 227.577,164.02 	"/>
	<g>
		<rect x="190.519" y="155.349" style="fill:#707172;" width="19.708" height="0.25"/>
	</g>
	<g>
		<polygon style="fill:#FFFFFF;" points="196.874,206.842 194.984,206.415 213.392,144.972 215.307,145.548 		"/>
	</g>
	<g>
		<polygon style="fill:#FFFFFF;" points="512.853,197.225 199.707,197.225 199.707,195.225 514.324,195.225 		"/>
	</g>
	<g>
		
			<line style="fill:none;stroke:#707172;stroke-width:0.25;stroke-miterlimit:10;" x1="173.469" y1="203.226" x2="190.632" y2="155.45"/>
		<g>
			<polygon style="fill:#707172;" points="182.36,204.267 175.452,197.715 175.624,197.534 182.454,204.011 			"/>
		</g>
		<g>
			<polygon style="fill:#707172;" points="184.747,197.644 177.792,191.043 177.964,190.862 184.919,197.462 			"/>
		</g>
		<g>
			<polygon style="fill:#707172;" points="186.816,191.573 179.914,185.018 180.086,184.837 186.988,191.391 			"/>
		</g>
		<g>
			<polygon style="fill:#707172;" points="188.789,185.957 181.93,179.451 182.102,179.269 188.904,185.721 			"/>
		</g>
		<g>
			<polygon style="fill:#707172;" points="191.129,179.289 184.275,172.786 184.446,172.605 191.22,179.031 			"/>
		</g>
		<g>
			<polygon style="fill:#707172;" points="193.245,173.263 186.446,166.811 186.618,166.63 193.336,173.004 			"/>
		</g>
		<g>
			<polygon style="fill:#707172;" points="195.275,167.483 188.493,161.049 188.665,160.867 195.374,167.232 			"/>
		</g>
		<g>
			<polygon style="fill:#707172;" points="197.301,162.555 190.519,156.122 190.691,155.94 197.401,162.305 			"/>
		</g>
	</g>
	<polyline style="fill:#2C3848;" points="167.217,244.022 150.405,291.909 141.238,284.409 158.55,235.188 	"/>
	<g>
		
			<line style="fill:none;stroke:#707172;stroke-width:0.25;stroke-miterlimit:10;" x1="142.97" y1="286.33" x2="161.14" y2="235.752"/>
		<g>
			<polygon style="fill:#707172;" points="152.507,285.574 145.598,279.023 145.77,278.841 152.6,285.318 			"/>
		</g>
		<g>
			<polygon style="fill:#707172;" points="154.893,278.951 147.938,272.351 148.11,272.169 155.065,278.77 			"/>
		</g>
		<g>
			<polygon style="fill:#707172;" points="156.963,272.88 150.06,266.326 150.232,266.144 157.135,272.699 			"/>
		</g>
		<g>
			<polygon style="fill:#707172;" points="158.935,267.264 152.076,260.759 152.248,260.577 159.05,267.029 			"/>
		</g>
		<g>
			<polygon style="fill:#707172;" points="161.276,260.597 154.421,254.094 154.593,253.912 161.367,260.338 			"/>
		</g>
		<g>
			<polygon style="fill:#707172;" points="163.392,254.57 156.592,248.119 156.764,247.937 163.482,254.312 			"/>
		</g>
		<g>
			<polygon style="fill:#707172;" points="165.421,248.79 158.639,242.357 158.811,242.175 165.52,248.54 			"/>
		</g>
	</g>
	<g>
		<polygon style="fill:#707172;" points="203.352,162.02 196.57,155.586 196.742,155.404 203.451,161.769 		"/>
	</g>
	<g>
		<polygon style="fill:#707172;" points="208.005,160.978 202.392,155.655 202.564,155.474 208.36,160.97 		"/>
	</g>
	<line style="fill:none;stroke:#FFFFFF;stroke-width:2;stroke-miterlimit:10;" x1="255.12" y1="145.77" x2="244.132" y2="196.225"/>
	
		<line style="fill:none;stroke:#FFFFFF;stroke-width:2;stroke-miterlimit:10;" x1="299.786" y1="145.77" x2="288.798" y2="196.225"/>
	
		<line style="fill:none;stroke:#FFFFFF;stroke-width:2;stroke-miterlimit:10;" x1="342.453" y1="145.77" x2="336.242" y2="196.225"/>
	
		<line style="fill:none;stroke:#FFFFFF;stroke-width:2;stroke-miterlimit:10;" x1="385.786" y1="145.77" x2="383.079" y2="196.225"/>
	<line style="fill:none;stroke:#FFFFFF;stroke-width:2;stroke-miterlimit:10;" x1="430.82" y1="144.972" x2="432.17" y2="196.225"/>
	
		<line style="fill:none;stroke:#FFFFFF;stroke-width:2;stroke-miterlimit:10;" x1="469.12" y1="144.972" x2="471.703" y2="195.225"/>
	
		<line style="fill:none;stroke:#FFFFFF;stroke-width:2;stroke-miterlimit:10;" x1="152.62" y1="231.834" x2="474.286" y2="229.444"/>
	
		<line style="fill:none;stroke:#FFFFFF;stroke-width:2;stroke-miterlimit:10;" x1="473.258" y1="228.73" x2="479.378" y2="290.001"/>
	<polygon style="fill:#707172;" points="161.684,279.475 168.075,285.874 162.745,303.077 156.595,295.142 	"/>
	<polygon style="fill:#707172;" points="189.22,225.225 192.558,230.506 187.568,230.624 	"/>
	<polygon style="fill:#978D78;" points="175.452,300.238 175.452,305.916 180.79,305.906 	"/>
	<g>
		<polygon style="fill:#FFFFFF;" points="576.398,303.626 559.722,194.475 561.9,194.538 578.374,303.324 		"/>
	</g>
	<g>
		<polygon style="fill:#2E3C4A;" points="289.245,159.779 274.828,159.779 271.87,151.069 286.286,151.069 		"/>
		
			<line style="fill:none;stroke:#707172;stroke-width:0.25;stroke-miterlimit:10;" x1="272.811" y1="153.841" x2="287.375" y2="153.841"/>
		
			<line style="fill:none;stroke:#707172;stroke-width:0.25;stroke-miterlimit:10;" x1="279.453" y1="151.069" x2="282.453" y2="159.779"/>
	</g>
	<g>
		<polygon style="fill:#2E3C4A;" points="331.5,159.779 317.084,159.779 314.125,151.069 328.542,151.069 		"/>
		
			<line style="fill:none;stroke:#707172;stroke-width:0.25;stroke-miterlimit:10;" x1="315.067" y1="153.841" x2="329.631" y2="153.841"/>
		
			<line style="fill:none;stroke:#707172;stroke-width:0.25;stroke-miterlimit:10;" x1="321.709" y1="151.069" x2="324.709" y2="159.779"/>
	</g>
	<g>
		<g>
			<polygon style="fill:#2E3C4A;" points="373.474,159.779 359.057,159.779 358.099,151.069 372.515,151.069 			"/>
			
				<line style="fill:none;stroke:#707172;stroke-width:0.25;stroke-miterlimit:10;" x1="358.353" y1="153.841" x2="372.917" y2="153.841"/>
			<path style="fill:none;stroke:#707172;stroke-width:0.25;stroke-miterlimit:10;" d="M368.682,159.779"/>
			<path style="fill:none;stroke:#707172;stroke-width:0.25;stroke-miterlimit:10;" d="M365.682,151.069"/>
		</g>
		
			<line style="fill:none;stroke:#707172;stroke-width:0.25;stroke-miterlimit:10;" x1="365.307" y1="151.069" x2="366.495" y2="159.779"/>
	</g>
	<g>
		<g>
			<polygon style="fill:#2E3C4A;" points="417.474,159.779 403.057,159.779 402.099,151.069 416.515,151.069 			"/>
			
				<line style="fill:none;stroke:#707172;stroke-width:0.25;stroke-miterlimit:10;" x1="402.353" y1="153.841" x2="416.917" y2="153.841"/>
			<path style="fill:none;stroke:#707172;stroke-width:0.25;stroke-miterlimit:10;" d="M412.682,159.779"/>
			<path style="fill:none;stroke:#707172;stroke-width:0.25;stroke-miterlimit:10;" d="M409.682,151.069"/>
		</g>
		
			<line style="fill:none;stroke:#707172;stroke-width:0.25;stroke-miterlimit:10;" x1="409.307" y1="151.069" x2="410.495" y2="159.779"/>
	</g>
	<g>
		<g>
			<polygon style="fill:#2E3C4A;" points="458.332,159.779 443.916,159.779 442.957,151.069 457.374,151.069 			"/>
			
				<line style="fill:none;stroke:#707172;stroke-width:0.25;stroke-miterlimit:10;" x1="443.211" y1="153.841" x2="457.776" y2="153.841"/>
			<path style="fill:none;stroke:#707172;stroke-width:0.25;stroke-miterlimit:10;" d="M453.541,159.779"/>
			<path style="fill:none;stroke:#707172;stroke-width:0.25;stroke-miterlimit:10;" d="M450.541,151.069"/>
		</g>
		
			<line style="fill:none;stroke:#707172;stroke-width:0.25;stroke-miterlimit:10;" x1="450.166" y1="151.069" x2="451.353" y2="159.779"/>
	</g>
	<g>
		<g>
			<polygon style="fill:#2E3C4A;" points="498.082,159.779 483.666,159.779 482.707,151.069 497.124,151.069 			"/>
			
				<line style="fill:none;stroke:#707172;stroke-width:0.25;stroke-miterlimit:10;" x1="482.961" y1="153.841" x2="497.526" y2="153.841"/>
			<path style="fill:none;stroke:#707172;stroke-width:0.25;stroke-miterlimit:10;" d="M493.291,159.779"/>
			<path style="fill:none;stroke:#707172;stroke-width:0.25;stroke-miterlimit:10;" d="M490.291,151.069"/>
		</g>
		
			<line style="fill:none;stroke:#707172;stroke-width:0.25;stroke-miterlimit:10;" x1="489.916" y1="151.069" x2="491.103" y2="159.779"/>
	</g>
	
		<line style="fill:none;stroke:#707172;stroke-width:0.25;stroke-miterlimit:10;" x1="486.765" y1="153.841" x2="487.599" y2="159.779"/>
	
		<line style="fill:none;stroke:#707172;stroke-width:0.25;stroke-miterlimit:10;" x1="493.953" y1="153.841" x2="494.87" y2="159.779"/>
	<g>
		<polygon style="fill:#040000;" points="149.678,305.913 147.809,304.831 174.452,304.827 174.452,299.201 175.452,300.263 
			175.452,305.916 		"/>
	</g>
	<g>
		
			<rect x="197.854" y="261.377" transform="matrix(0.2378 -0.9713 0.9713 0.2378 -80.2875 422.4371)" style="fill:#FFFFFF;" width="62.353" height="2"/>
	</g>
	<g>
		
			<rect x="247.626" y="260.953" transform="matrix(0.1767 -0.9843 0.9843 0.1767 -28.4418 489.9029)" style="fill:#FFFFFF;" width="62.013" height="2"/>
	</g>
	<g>
		
			<rect x="297.68" y="260.428" transform="matrix(0.1435 -0.9896 0.9896 0.1435 22.7687 549.1656)" style="fill:#FFFFFF;" width="61.972" height="2"/>
	</g>
	<g>
		
			<rect x="347.111" y="260.263" transform="matrix(0.0776 -0.997 0.997 0.0776 88.2159 617.8784)" style="fill:#FFFFFF;" width="61.854" height="2"/>
	</g>
	<g>
		
			<rect x="397.274" y="260.468" transform="matrix(0.0049 -1 1 0.0049 164.4238 688.1646)" style="fill:#FFFFFF;" width="61.409" height="2"/>
	</g>
	<g>
		<polygon style="fill:#FFFFFF;" points="180.078,295.142 165.165,295.266 165.847,293.221 180.263,293.122 		"/>
	</g>
	<g>
		<polygon style="fill:#FFFFFF;" points="228.185,295.135 213.619,295.261 213.801,293.006 228.185,293.006 		"/>
	</g>
	<g>
		<polygon style="fill:#FFFFFF;" points="279.475,295.124 264.91,295.261 265.092,292.799 279.475,292.799 		"/>
	</g>
	<g>
		<polygon style="fill:#FFFFFF;" points="330.506,295.112 315.941,295.261 316.123,292.595 330.506,292.595 		"/>
	</g>
	<g>
		<polygon style="fill:#FFFFFF;" points="382.756,295.092 368.191,295.261 368.373,292.236 382.756,292.236 		"/>
	</g>
	<g>
		<polygon style="fill:#FFFFFF;" points="435.261,295.089 420.696,295.261 420.878,292.173 435.261,292.173 		"/>
	</g>
	<g>
		<polygon style="fill:#FFFFFF;" points="493.011,306.711 478.446,306.884 478.628,303.796 493.011,303.796 		"/>
	</g>
	<g>
		<polygon style="fill:#FFFFFF;" points="534.676,306.661 520.111,306.884 520.293,302.903 534.676,302.903 		"/>
	</g>
	<g>
		<polygon style="fill:#FFFFFF;" points="478.991,295.089 469.12,295.261 469.243,292.173 478.991,292.173 		"/>
	</g>
	<g>
		<polygon style="fill:#FFFFFF;" points="575.48,306.305 567.945,306.437 568.069,303.349 577.817,303.413 		"/>
	</g>
	<g>
		<polygon style="fill:#040000;" points="188.953,305.906 180.79,305.906 179.797,304.851 187.979,304.833 187.978,303.412 
			188.952,303.412 		"/>
	</g>
	<g>
		<polygon style="fill:#040000;" points="229.792,305.906 211.776,305.906 211.776,304.851 228.818,304.833 228.817,303.412 
			229.791,303.412 		"/>
	</g>
	<g>
		<polygon style="fill:#040000;" points="281.2,305.906 263.184,305.906 263.184,304.851 280.226,304.833 280.226,303.412 
			281.199,303.412 		"/>
	</g>
	<g>
		<polygon style="fill:#040000;" points="332.23,305.906 314.214,305.906 314.214,304.851 331.256,304.833 331.256,303.412 
			332.229,303.412 		"/>
	</g>
	<g>
		<polygon style="fill:#040000;" points="384.48,305.906 366.464,305.906 366.464,304.851 383.506,304.833 383.506,303.412 
			384.479,303.412 		"/>
	</g>
	<g>
		<polygon style="fill:#040000;" points="436.986,305.906 418.97,305.906 418.97,304.851 436.012,304.833 436.012,303.412 
			436.985,303.412 		"/>
	</g>
	<g>
		<g>
			<rect x="188.953" y="303.412" style="fill:#040000;" width="22.823" height="1.074"/>
		</g>
		<g>
			<rect x="211.776" y="303.412" style="fill:#040000;" width="1.074" height="1.498"/>
		</g>
	</g>
	<g>
		<g>
			<rect x="229.182" y="303.412" style="fill:#040000;" width="34.003" height="1.074"/>
		</g>
		<g>
			<rect x="263.185" y="303.412" style="fill:#040000;" width="1.074" height="1.498"/>
		</g>
	</g>
	<g>
		<g>
			<rect x="280.224" y="303.412" style="fill:#040000;" width="34.003" height="1.074"/>
		</g>
		<g>
			<rect x="314.227" y="303.412" style="fill:#040000;" width="1.074" height="1.498"/>
		</g>
	</g>
	<g>
		<g>
			<rect x="332.036" y="303.412" style="fill:#040000;" width="34.431" height="1.074"/>
		</g>
		<g>
			<rect x="366.467" y="303.412" style="fill:#040000;" width="1.074" height="1.498"/>
		</g>
	</g>
	<g>
		<g>
			<rect x="384.539" y="303.412" style="fill:#040000;" width="34.431" height="1.074"/>
		</g>
		<g>
			<rect x="418.97" y="303.412" style="fill:#040000;" width="1.074" height="1.498"/>
		</g>
	</g>
	<g>
		<g>
			<rect x="491.937" y="312.341" style="fill:#040000;" width="27.05" height="1.074"/>
		</g>
		<g>
			<rect x="518.987" y="312.341" style="fill:#040000;" width="1.074" height="1.498"/>
		</g>
	</g>
	<g>
		<polygon style="fill:#040000;" points="569.745,313.415 535.213,313.415 535.213,312.341 570.603,312.341 		"/>
	</g>
	<g>
		<rect x="436.012" y="303.412" style="fill:#040000;" width="34.334" height="1.074"/>
	</g>
	<g>
		<rect x="470.345" y="303.412" style="fill:#040000;" width="1.074" height="1.498"/>
	</g>
	<g>
		<rect x="491.937" y="312.341" style="fill:#040000;" width="1.074" height="1.498"/>
	</g>
	<g>
		<rect x="534.139" y="312.341" style="fill:#040000;" width="1.074" height="1.498"/>
	</g>
	<g>
		<rect x="470.345" y="304.803" style="fill:#040000;" width="5.973" height="1.074"/>
	</g>
	<g>
		<rect x="476.762" y="313.839" style="fill:#040000;" width="16.249" height="1.074"/>
	</g>
	<g>
		<rect x="518.987" y="313.839" style="fill:#040000;" width="16.249" height="1.074"/>
	</g>
	<g>
		<polygon style="fill:#040000;" points="476.762,314.482 476.318,304.803 477.392,304.803 477.911,314.482 		"/>
	</g>
	<rect x="188.953" y="304.492" style="fill:#978D78;" width="22.823" height="1.414"/>
	<rect x="229.792" y="304.492" style="fill:#978D78;" width="33.393" height="1.414"/>
	<rect x="281.2" y="304.492" style="fill:#978D78;" width="33.393" height="1.414"/>
	<rect x="332.23" y="304.492" style="fill:#978D78;" width="34.234" height="1.414"/>
	<rect x="384.171" y="304.492" style="fill:#978D78;" width="34.8" height="1.414"/>
	<rect x="436.986" y="304.492" style="fill:#978D78;" width="33.359" height="1.414"/>
	<rect x="492.986" y="313.415" style="fill:#978D78;" width="26.001" height="1.498"/>
	<polygon style="fill:#978D78;" points="568.525,314.913 535.236,314.913 535.236,313.415 569.745,313.415 	"/>
	<g>
		<polygon style="fill:#2E3946;" points="209.948,300.751 190.781,300.751 185.332,295.774 204.498,295.774 		"/>
		
			<line style="fill:none;stroke:#707172;stroke-width:0.25;stroke-miterlimit:10;" x1="186.86" y1="297.17" x2="205.976" y2="297.17"/>
		
			<line style="fill:none;stroke:#707172;stroke-width:0.25;stroke-miterlimit:10;" x1="188.264" y1="295.774" x2="193.608" y2="300.751"/>
		
			<line style="fill:none;stroke:#707172;stroke-width:0.25;stroke-miterlimit:10;" x1="191.541" y1="295.774" x2="196.885" y2="300.751"/>
		
			<line style="fill:none;stroke:#707172;stroke-width:0.25;stroke-miterlimit:10;" x1="195.065" y1="295.774" x2="200.409" y2="300.751"/>
		
			<line style="fill:none;stroke:#707172;stroke-width:0.25;stroke-miterlimit:10;" x1="198.582" y1="295.774" x2="203.926" y2="300.751"/>
		
			<line style="fill:none;stroke:#707172;stroke-width:0.25;stroke-miterlimit:10;" x1="201.672" y1="295.774" x2="207.016" y2="300.751"/>
	</g>
	<g>
		<polygon style="fill:#2E3946;" points="258.492,300.751 239.325,300.751 233.876,295.774 253.042,295.774 		"/>
		
			<line style="fill:none;stroke:#707172;stroke-width:0.25;stroke-miterlimit:10;" x1="235.404" y1="297.17" x2="254.52" y2="297.17"/>
		
			<line style="fill:none;stroke:#707172;stroke-width:0.25;stroke-miterlimit:10;" x1="236.808" y1="295.774" x2="242.152" y2="300.751"/>
		
			<line style="fill:none;stroke:#707172;stroke-width:0.25;stroke-miterlimit:10;" x1="240.085" y1="295.774" x2="245.429" y2="300.751"/>
		
			<line style="fill:none;stroke:#707172;stroke-width:0.25;stroke-miterlimit:10;" x1="243.609" y1="295.774" x2="248.953" y2="300.751"/>
		
			<line style="fill:none;stroke:#707172;stroke-width:0.25;stroke-miterlimit:10;" x1="247.126" y1="295.774" x2="252.469" y2="300.751"/>
		
			<line style="fill:none;stroke:#707172;stroke-width:0.25;stroke-miterlimit:10;" x1="250.216" y1="295.774" x2="255.559" y2="300.751"/>
	</g>
	<g>
		<polygon style="fill:#2E3946;" points="308.867,300.751 289.7,300.751 284.251,295.774 303.417,295.774 		"/>
		
			<line style="fill:none;stroke:#707172;stroke-width:0.25;stroke-miterlimit:10;" x1="285.779" y1="297.17" x2="304.895" y2="297.17"/>
		
			<line style="fill:none;stroke:#707172;stroke-width:0.25;stroke-miterlimit:10;" x1="287.183" y1="295.774" x2="292.527" y2="300.751"/>
		
			<line style="fill:none;stroke:#707172;stroke-width:0.25;stroke-miterlimit:10;" x1="290.46" y1="295.774" x2="295.804" y2="300.751"/>
		
			<line style="fill:none;stroke:#707172;stroke-width:0.25;stroke-miterlimit:10;" x1="293.984" y1="295.774" x2="299.328" y2="300.751"/>
		
			<line style="fill:none;stroke:#707172;stroke-width:0.25;stroke-miterlimit:10;" x1="297.501" y1="295.774" x2="302.844" y2="300.751"/>
		
			<line style="fill:none;stroke:#707172;stroke-width:0.25;stroke-miterlimit:10;" x1="300.591" y1="295.774" x2="305.934" y2="300.751"/>
	</g>
	<g>
		<polygon style="fill:#2E3946;" points="361.56,300.751 342.393,300.751 336.944,295.774 356.11,295.774 		"/>
		
			<line style="fill:none;stroke:#707172;stroke-width:0.25;stroke-miterlimit:10;" x1="338.472" y1="297.17" x2="357.588" y2="297.17"/>
		
			<line style="fill:none;stroke:#707172;stroke-width:0.25;stroke-miterlimit:10;" x1="339.876" y1="295.774" x2="345.22" y2="300.751"/>
		
			<line style="fill:none;stroke:#707172;stroke-width:0.25;stroke-miterlimit:10;" x1="343.153" y1="295.774" x2="348.497" y2="300.751"/>
		
			<line style="fill:none;stroke:#707172;stroke-width:0.25;stroke-miterlimit:10;" x1="346.677" y1="295.774" x2="352.021" y2="300.751"/>
		
			<line style="fill:none;stroke:#707172;stroke-width:0.25;stroke-miterlimit:10;" x1="350.194" y1="295.774" x2="355.538" y2="300.751"/>
		
			<line style="fill:none;stroke:#707172;stroke-width:0.25;stroke-miterlimit:10;" x1="353.284" y1="295.774" x2="358.628" y2="300.751"/>
	</g>
	<g>
		<polygon style="fill:#2E3946;" points="413.06,300.751 393.893,300.751 388.444,295.774 407.61,295.774 		"/>
		
			<line style="fill:none;stroke:#707172;stroke-width:0.25;stroke-miterlimit:10;" x1="389.972" y1="297.17" x2="409.088" y2="297.17"/>
		
			<line style="fill:none;stroke:#707172;stroke-width:0.25;stroke-miterlimit:10;" x1="391.376" y1="295.774" x2="396.72" y2="300.751"/>
		
			<line style="fill:none;stroke:#707172;stroke-width:0.25;stroke-miterlimit:10;" x1="394.653" y1="295.774" x2="399.997" y2="300.751"/>
		
			<line style="fill:none;stroke:#707172;stroke-width:0.25;stroke-miterlimit:10;" x1="398.177" y1="295.774" x2="403.521" y2="300.751"/>
		
			<line style="fill:none;stroke:#707172;stroke-width:0.25;stroke-miterlimit:10;" x1="401.694" y1="295.774" x2="407.038" y2="300.751"/>
		
			<line style="fill:none;stroke:#707172;stroke-width:0.25;stroke-miterlimit:10;" x1="404.784" y1="295.774" x2="410.128" y2="300.751"/>
	</g>
	<g>
		<polygon style="fill:#2E3946;" points="465.213,300.751 446.046,300.751 440.597,295.774 459.763,295.774 		"/>
		
			<line style="fill:none;stroke:#707172;stroke-width:0.25;stroke-miterlimit:10;" x1="442.125" y1="297.17" x2="461.241" y2="297.17"/>
		
			<line style="fill:none;stroke:#707172;stroke-width:0.25;stroke-miterlimit:10;" x1="443.529" y1="295.774" x2="448.873" y2="300.751"/>
		
			<line style="fill:none;stroke:#707172;stroke-width:0.25;stroke-miterlimit:10;" x1="446.806" y1="295.774" x2="452.15" y2="300.751"/>
		
			<line style="fill:none;stroke:#707172;stroke-width:0.25;stroke-miterlimit:10;" x1="450.33" y1="295.774" x2="455.674" y2="300.751"/>
		
			<line style="fill:none;stroke:#707172;stroke-width:0.25;stroke-miterlimit:10;" x1="453.847" y1="295.774" x2="459.19" y2="300.751"/>
		
			<line style="fill:none;stroke:#707172;stroke-width:0.25;stroke-miterlimit:10;" x1="456.937" y1="295.774" x2="462.28" y2="300.751"/>
	</g>
	<g>
		<polygon style="fill:#2E3946;" points="509.624,311.074 501.999,311.074 501.299,306.098 508.925,306.098 		"/>
		
			<line style="fill:none;stroke:#707172;stroke-width:0.25;stroke-miterlimit:10;" x1="501.299" y1="307.493" x2="509.208" y2="307.493"/>
		
			<line style="fill:none;stroke:#707172;stroke-width:0.25;stroke-miterlimit:10;" x1="505.253" y1="306.098" x2="505.958" y2="311.074"/>
	</g>
	<polygon style="fill:#2E3946;" points="562.307,311.074 539.061,311.074 538.362,306.098 561.608,306.098 	"/>
	
		<line style="fill:none;stroke:#707172;stroke-width:0.25;stroke-miterlimit:10;" x1="538.362" y1="307.493" x2="561.804" y2="307.493"/>
	
		<line style="fill:none;stroke:#707172;stroke-width:0.25;stroke-miterlimit:10;" x1="542.316" y1="306.098" x2="543.02" y2="311.074"/>
	
		<line style="fill:none;stroke:#707172;stroke-width:0.25;stroke-miterlimit:10;" x1="546.464" y1="306.098" x2="547.168" y2="311.074"/>
	
		<line style="fill:none;stroke:#707172;stroke-width:0.25;stroke-miterlimit:10;" x1="550.631" y1="306.098" x2="551.336" y2="311.074"/>
	
		<line style="fill:none;stroke:#707172;stroke-width:0.25;stroke-miterlimit:10;" x1="554.934" y1="306.098" x2="555.638" y2="311.074"/>
	
		<line style="fill:none;stroke:#707172;stroke-width:0.25;stroke-miterlimit:10;" x1="558.429" y1="306.098" x2="559.133" y2="311.074"/>
	
		<line style="fill:none;stroke:#040000;stroke-width:0.5;stroke-miterlimit:10;" x1="177.788" y1="230.624" x2="179.663" y2="224.66"/>
	<path style="fill:#978D78;" d="M173.453,246.778"/>
	<g>
		<polygon style="fill:#040000;" points="173.527,246.836 173.215,246.59 178.778,246.528 178.781,246.778 		"/>
	</g>
	<polygon style="fill:#040000;" points="224.538,246.469 218.599,246.469 212.309,238.622 218.247,238.622 	"/>
	<polygon style="fill:#040000;" points="277.036,245.693 271.097,245.693 264.807,237.845 270.745,237.845 	"/>
	<polygon style="fill:#040000;" points="367.694,244.472 361.756,244.472 360.931,236.625 366.87,236.625 	"/>
	<polygon style="fill:#040000;" points="407.361,244.472 401.422,244.472 400.598,236.625 406.536,236.625 	"/>
	<polygon style="fill:#040000;" points="454.352,243.597 448.413,243.597 447.589,235.75 453.527,235.75 	"/>
	<g>
		<polygon style="fill:#040000;" points="182.656,246.682 182.74,246.405 218.846,246.22 218.849,246.47 		"/>
	</g>
	<polygon style="fill:#867E80;" points="192.22,238.139 176.762,290.625 181.262,290.625 195.262,290.625 206.97,246.639 
		196.97,238.139 	"/>
	<polygon style="fill:#FCF3F5;" points="192.233,238.139 176.762,290.625 180.762,290.625 196.566,238.139 	"/>
	
		<line style="fill:none;stroke:#707172;stroke-width:0.25;stroke-miterlimit:10;" x1="187.568" y1="253.964" x2="191.817" y2="253.912"/>
	
		<line style="fill:none;stroke:#707172;stroke-width:0.25;stroke-miterlimit:10;" x1="181.234" y1="275.121" x2="185.482" y2="275.069"/>
	<g>
		<polygon style="fill:#707172;" points="187.285,286.855 186.615,289.101 184.567,287.767 185.237,285.52 		"/>
		<polygon style="fill:#707172;" points="188.501,282.774 187.831,285.021 185.783,283.686 186.453,281.44 		"/>
		<polygon style="fill:#707172;" points="189.656,278.9 188.986,281.146 186.938,279.812 187.608,277.566 		"/>
		<polygon style="fill:#707172;" points="190.942,274.924 190.272,277.17 188.224,275.836 188.894,273.59 		"/>
		<polygon style="fill:#707172;" points="192.158,270.844 191.488,273.09 189.44,271.756 190.11,269.51 		"/>
		<polygon style="fill:#707172;" points="193.313,266.97 192.643,269.216 190.595,267.882 191.265,265.635 		"/>
		<polygon style="fill:#707172;" points="194.73,263.09 194.061,265.336 192.012,264.002 192.682,261.756 		"/>
		<polygon style="fill:#707172;" points="195.946,259.01 195.277,261.256 193.229,259.922 193.898,257.676 		"/>
		<polygon style="fill:#707172;" points="197.101,255.136 196.432,257.382 194.384,256.048 195.053,253.802 		"/>
		<polygon style="fill:#707172;" points="198.387,251.159 197.717,253.405 195.669,252.071 196.339,249.825 		"/>
		<polygon style="fill:#707172;" points="199.603,247.079 198.934,249.325 196.886,247.991 197.555,245.745 		"/>
		<polygon style="fill:#707172;" points="200.758,243.205 200.089,245.451 198.041,244.117 198.71,241.871 		"/>
	</g>
	<g>
		<polygon style="fill:#707172;" points="192.729,286.848 192.106,289.107 190.031,287.816 190.654,285.556 		"/>
		<polygon style="fill:#707172;" points="193.804,282.951 193.181,285.21 191.106,283.919 191.729,281.659 		"/>
		<polygon style="fill:#707172;" points="195.008,278.949 194.385,281.208 192.31,279.917 192.933,277.657 		"/>
		<polygon style="fill:#707172;" points="196.14,274.845 195.517,277.104 193.442,275.812 194.065,273.553 		"/>
		<polygon style="fill:#707172;" points="197.216,270.948 196.592,273.207 194.517,271.915 195.141,269.656 		"/>
		<polygon style="fill:#707172;" points="198.553,267.04 197.93,269.299 195.855,268.008 196.478,265.748 		"/>
		<polygon style="fill:#707172;" points="199.685,262.936 199.062,265.195 196.987,263.903 197.61,261.644 		"/>
		<polygon style="fill:#707172;" points="200.761,259.039 200.137,261.298 198.062,260.006 198.686,257.747 		"/>
		<polygon style="fill:#707172;" points="201.964,255.037 201.341,257.296 199.266,256.004 199.889,253.745 		"/>
		<polygon style="fill:#707172;" points="203.097,250.933 202.473,253.192 200.398,251.9 201.022,249.641 		"/>
		<polygon style="fill:#707172;" points="204.172,247.036 203.549,249.295 201.474,248.003 202.097,245.744 		"/>
	</g>
	<g>
		<line style="fill:none;stroke:#FFFFFF;stroke-miterlimit:10;" x1="226.12" y1="195.225" x2="234.603" y2="164.175"/>
		<line style="fill:none;stroke:#FFFFFF;stroke-miterlimit:10;" x1="234.603" y1="164.175" x2="266.986" y2="164.175"/>
		<line style="fill:none;stroke:#FFFFFF;stroke-miterlimit:10;" x1="266.986" y1="164.175" x2="260.12" y2="195.225"/>
	</g>
	
		<line style="fill:none;stroke:#040000;stroke-width:0.5;stroke-miterlimit:10;" x1="347.158" y1="175.847" x2="352.625" y2="175.847"/>
	<line style="fill:none;stroke:#FFFFFF;stroke-miterlimit:10;" x1="319.054" y1="196.338" x2="323.786" y2="163.621"/>
	<line style="fill:none;stroke:#FFFFFF;stroke-miterlimit:10;" x1="323.755" y1="163.836" x2="353.983" y2="163.836"/>
	<line style="fill:none;stroke:#FFFFFF;stroke-miterlimit:10;" x1="354.004" y1="163.586" x2="351.245" y2="196.225"/>
	<polygon style="fill:#A69985;" points="323.675,245.312 320.557,263.579 327.382,263.315 330.008,245.312 	"/>
	<polygon style="fill:#A69985;" points="339.676,245.312 337.245,263.757 344.743,263.836 346.957,245.312 	"/>
	<polygon style="fill:#A69985;" points="331.351,175.847 328.043,195.225 335.328,195.225 337.684,175.847 	"/>
	<polygon style="fill:#A69985;" points="347.158,176.081 344.861,195.218 351.006,195.218 352.729,176.081 	"/>
	<g>
		
			<rect x="340.61" y="243.495" transform="matrix(0.9958 0.0915 -0.0915 0.9958 23.8806 -30.41)" style="fill:#A2A3A0;" width="5.667" height="3.25"/>
		<polygon style="fill:#FFFFFF;" points="341.323,240.971 340.77,243.243 346.413,243.761 346.243,241.424 		"/>
		<path style="fill:#FFFFFF;" d="M340.473,246.479l-0.855,6.574c0,0,1.629,4.125,2.712,4.182c1.083,0.058,3.172-3.558,3.172-3.558
			l0.614-6.68L340.473,246.479z"/>
		
			<ellipse transform="matrix(0.0915 -0.9958 0.9958 0.0915 60.9265 569.9702)" style="fill:#B3B3B3;" cx="342.848" cy="251.593" rx="1.125" ry="1.125"/>
	</g>
	<g>
		
			<rect x="325.019" y="244.925" transform="matrix(0.9995 0.0328 -0.0328 0.9995 8.2549 -10.6074)" style="fill:#A2A3A0;" width="4.932" height="2.829"/>
		<polygon style="fill:#FFFFFF;" points="325.431,242.843 325.067,244.845 329.997,245.007 329.729,242.984 		"/>
		<path style="fill:#FFFFFF;" d="M324.974,247.672l-0.407,5.756c0,0,1.627,3.501,2.571,3.495c0.944-0.005,2.574-3.254,2.574-3.254
			l0.191-5.836L324.974,247.672z"/>
		
			<ellipse transform="matrix(0.0328 -0.9995 0.9995 0.0328 64.7074 570.8538)" style="fill:#B3B3B3;" cx="327.3" cy="251.994" rx="0.979" ry="0.979"/>
	</g>
	
		<line style="fill:none;stroke:#040000;stroke-width:0.5;stroke-miterlimit:10;" x1="331.32" y1="175.612" x2="337.661" y2="175.612"/>
	<line style="fill:none;stroke:#FFFFFF;stroke-miterlimit:10;" x1="415.026" y1="196.503" x2="415.026" y2="163.003"/>
	<line style="fill:none;stroke:#FFFFFF;stroke-miterlimit:10;" x1="415.026" y1="163.003" x2="447.214" y2="163.003"/>
	<line style="fill:none;stroke:#FFFFFF;stroke-miterlimit:10;" x1="447.214" y1="163.003" x2="447.964" y2="195.628"/>
	
		<line style="fill:none;stroke:#040000;stroke-width:0.5;stroke-miterlimit:10;" x1="417.089" y1="180.753" x2="430.714" y2="180.378"/>
	
		<line style="fill:none;stroke:#040000;stroke-width:0.5;stroke-miterlimit:10;" x1="433.37" y1="180.344" x2="446.464" y2="180.628"/>
	<line style="fill:none;stroke:#FFFFFF;stroke-miterlimit:10;" x1="251.355" y1="231.162" x2="245.432" y2="265.195"/>
	<line style="fill:none;stroke:#FFFFFF;stroke-miterlimit:10;" x1="245.432" y1="265.195" x2="228.829" y2="265.162"/>
	
		<line style="fill:none;stroke:#040000;stroke-width:0.5;stroke-miterlimit:10;" x1="265.454" y1="245.162" x2="259.087" y2="276.662"/>
	
		<line style="fill:none;stroke:#040000;stroke-width:0.5;stroke-miterlimit:10;" x1="239.806" y1="276.662" x2="259.087" y2="276.662"/>
	
		<line style="fill:none;stroke:#040000;stroke-width:0.5;stroke-miterlimit:10;" x1="239.806" y1="276.662" x2="236.365" y2="290.357"/>
	<g>
		<polygon style="fill:#040000;" points="265.598,245.775 265.661,245.214 271.09,245.214 271.096,245.714 		"/>
	</g>
	<line style="fill:none;stroke:#FFFFFF;stroke-miterlimit:10;" x1="315.323" y1="231.859" x2="310.453" y2="263.472"/>
	<line style="fill:none;stroke:#FFFFFF;stroke-miterlimit:10;" x1="310.453" y1="263.472" x2="345.068" y2="263.84"/>
	<line style="fill:none;stroke:#FFFFFF;stroke-miterlimit:10;" x1="345.068" y1="263.84" x2="348.846" y2="231.254"/>
	<line style="fill:none;stroke:#FFFFFF;stroke-miterlimit:10;" x1="409.901" y1="230.62" x2="409.901" y2="263.322"/>
	<line style="fill:none;stroke:#FFFFFF;stroke-miterlimit:10;" x1="409.901" y1="263.322" x2="445.62" y2="263.322"/>
	<line style="fill:none;stroke:#FFFFFF;stroke-miterlimit:10;" x1="445.62" y1="263.322" x2="445.62" y2="230.989"/>
	
		<line style="fill:none;stroke:#040000;stroke-width:0.5;stroke-miterlimit:10;" x1="296.297" y1="245.415" x2="312.888" y2="245.214"/>
	
		<line style="fill:none;stroke:#040000;stroke-width:0.5;stroke-miterlimit:10;" x1="356.453" y1="244.472" x2="378.347" y2="244.472"/>
	
		<line style="fill:none;stroke:#040000;stroke-width:0.5;stroke-miterlimit:10;" x1="384.269" y1="244.331" x2="409.088" y2="244.331"/>
	
		<line style="fill:none;stroke:#040000;stroke-width:0.5;stroke-miterlimit:10;" x1="446.201" y1="243.597" x2="472.383" y2="243.597"/>
	<g>
		<g>
			<polygon style="fill:#807B7C;" points="266.12,251.311 259.995,282.936 262.245,285.936 270.245,285.936 276.495,254.436 
				274.245,251.311 			"/>
			<polygon style="fill:#FCF3F7;" points="265.995,251.311 259.995,282.811 268.245,282.811 274.62,251.311 			"/>
		</g>
		<g>
			
				<rect x="263.83" y="279.163" transform="matrix(0.1994 -0.9799 0.9799 0.1994 -61.7445 483.5196)" style="fill:#999899;" width="2.409" height="0.767"/>
			
				<rect x="264.593" y="275.413" transform="matrix(0.1994 -0.9799 0.9799 0.1994 -57.4596 481.2654)" style="fill:#999899;" width="2.409" height="0.767"/>
			
				<rect x="265.368" y="271.607" transform="matrix(0.1994 -0.9799 0.9799 0.1994 -53.1096 478.977)" style="fill:#999899;" width="2.409" height="0.767"/>
			
				<rect x="266.033" y="268.336" transform="matrix(0.1994 -0.9799 0.9799 0.1994 -49.3718 477.0106)" style="fill:#999899;" width="2.409" height="0.767"/>
			
				<rect x="266.708" y="265.018" transform="matrix(0.1994 -0.9799 0.9799 0.1994 -45.58 475.0158)" style="fill:#999899;" width="2.409" height="0.767"/>
			
				<rect x="267.471" y="261.269" transform="matrix(0.1994 -0.9799 0.9799 0.1994 -41.295 472.7616)" style="fill:#999899;" width="2.409" height="0.767"/>
			
				<rect x="268.246" y="257.463" transform="matrix(0.1994 -0.9799 0.9799 0.1994 -36.945 470.4731)" style="fill:#999899;" width="2.409" height="0.767"/>
			
				<rect x="268.911" y="254.192" transform="matrix(0.1994 -0.9799 0.9799 0.1994 -33.2072 468.5068)" style="fill:#999899;" width="2.409" height="0.767"/>
		</g>
	</g>
	<g>
		<polygon style="fill:#FCF3F7;" points="358.249,251.926 355.718,282.926 363.267,282.926 366.048,251.926 		"/>
		<polygon style="fill:#807B7C;" points="355.718,282.926 355.718,285.284 363.305,285.284 363.267,282.926 		"/>
	</g>
	<g>
		<polygon style="fill:#FCF3F7;" points="396.279,251.926 395.465,282.926 403.014,282.926 404.078,251.926 		"/>
		<polygon style="fill:#807B7C;" points="395.465,282.926 395.465,285.284 403.052,285.284 403.014,282.926 		"/>
	</g>
	<g>
		<polygon style="fill:#FCF3F7;" points="449.954,251.926 451.164,282.926 458.712,282.926 457.753,251.926 		"/>
		<polygon style="fill:#807B7C;" points="451.164,282.926 451.164,285.284 458.75,285.284 458.712,282.926 		"/>
	</g>
	<g>
		
			<rect x="358.566" y="279.246" transform="matrix(0.0873 -0.9962 0.9962 0.0873 49.7865 613.6019)" style="fill:#999899;" width="2.409" height="0.767"/>
		
			<rect x="358.9" y="275.434" transform="matrix(0.0873 -0.9962 0.9962 0.0873 53.8886 610.4561)" style="fill:#999899;" width="2.409" height="0.767"/>
		
			<rect x="359.239" y="271.565" transform="matrix(0.0873 -0.9962 0.9962 0.0873 58.0529 607.2626)" style="fill:#999899;" width="2.409" height="0.767"/>
		
			<rect x="359.531" y="268.24" transform="matrix(0.0873 -0.9962 0.9962 0.0873 61.6312 604.5184)" style="fill:#999899;" width="2.409" height="0.767"/>
		
			<rect x="359.827" y="264.867" transform="matrix(0.0873 -0.9962 0.9962 0.0873 65.2612 601.7346)" style="fill:#999899;" width="2.409" height="0.767"/>
		
			<rect x="360.161" y="261.055" transform="matrix(0.0873 -0.9962 0.9962 0.0873 69.3633 598.5888)" style="fill:#999899;" width="2.409" height="0.767"/>
		
			<rect x="360.5" y="257.186" transform="matrix(0.0873 -0.9962 0.9962 0.0873 73.5276 595.3953)" style="fill:#999899;" width="2.409" height="0.767"/>
		
			<rect x="360.792" y="253.861" transform="matrix(0.0873 -0.9962 0.9962 0.0873 77.1059 592.6511)" style="fill:#999899;" width="2.409" height="0.767"/>
	</g>
	<polygon style="fill:#EAE9E9;" points="371.118,239.254 378.765,239.176 374.998,289.856 366.412,290.014 366.412,290.014 
		370.04,246.997 	"/>
	<polygon style="fill:#EAE9E9;" points="389.281,239.176 382.281,239.176 378.446,289.847 387.019,289.847 387.019,289.847 
		389.949,246.778 	"/>
	<g>
		
			<rect x="384.7" y="247.54" transform="matrix(0.9989 0.0459 -0.0459 0.9989 11.8565 -17.4624)" style="fill:#EAE9E9;stroke:#999899;stroke-width:0.25;stroke-miterlimit:10;" width="2.244" height="3.333"/>
		
			<rect x="383.417" y="262.173" transform="matrix(0.9962 0.0873 -0.0873 0.9962 24.5134 -32.5776)" style="fill:#EAE9E9;stroke:#999899;stroke-width:0.25;stroke-miterlimit:10;" width="2.244" height="3.333"/>
		
			<rect x="382.522" y="278.693" transform="matrix(0.9962 0.0873 -0.0873 0.9962 25.9529 -32.4362)" style="fill:#EAE9E9;stroke:#999899;stroke-width:0.25;stroke-miterlimit:10;" width="2.244" height="3.333"/>
		
			<line style="fill:none;stroke:#999899;stroke-width:0.5;stroke-miterlimit:10;" x1="381.112" y1="256.203" x2="389.371" y2="256.69"/>
		
			<line style="fill:none;stroke:#999899;stroke-width:0.5;stroke-miterlimit:10;" x1="379.82" y1="271.697" x2="388.215" y2="272.192"/>
	</g>
	<g>
		
			<rect x="372.693" y="247.54" transform="matrix(0.9989 0.0459 -0.0459 0.9989 11.8438 -16.9108)" style="fill:#EAE9E9;stroke:#999899;stroke-width:0.25;stroke-miterlimit:10;" width="2.244" height="3.333"/>
		
			<rect x="371.41" y="262.173" transform="matrix(0.9962 0.0873 -0.0873 0.9962 24.4675 -31.5289)" style="fill:#EAE9E9;stroke:#999899;stroke-width:0.25;stroke-miterlimit:10;" width="2.244" height="3.333"/>
		
			<rect x="370.515" y="278.693" transform="matrix(0.9962 0.0873 -0.0873 0.9962 25.907 -31.3875)" style="fill:#EAE9E9;stroke:#999899;stroke-width:0.25;stroke-miterlimit:10;" width="2.244" height="3.333"/>
		
			<line style="fill:none;stroke:#999899;stroke-width:0.5;stroke-miterlimit:10;" x1="369.105" y1="256.203" x2="377.364" y2="256.69"/>
		
			<line style="fill:none;stroke:#999899;stroke-width:0.5;stroke-miterlimit:10;" x1="367.813" y1="271.697" x2="376.208" y2="272.192"/>
	</g>
	<polygon style="fill:#727071;" points="512.307,151.498 516.932,151.498 513.307,168.061 	"/>
	
		<line style="fill:none;stroke:#FFFFFF;stroke-width:2;stroke-miterlimit:10;" x1="510.995" y1="151.498" x2="516.932" y2="151.498"/>
	
		<line style="fill:none;stroke:#FFFFFF;stroke-width:2;stroke-miterlimit:10;" x1="569.098" y1="122.621" x2="565.098" y2="175.163"/>
	<line style="fill:none;stroke:#FFFFFF;stroke-miterlimit:10;" x1="563.126" y1="209.104" x2="566.195" y2="164.177"/>
	<line style="fill:none;stroke:#FFFFFF;stroke-miterlimit:10;" x1="563.414" y1="204.892" x2="559.722" y2="175.163"/>
	<rect x="535.438" y="188.205" style="fill:#978D78;" width="20.409" height="6.048"/>
	<polygon style="fill:#A0977F;" points="599.37,242.546 572.881,247.155 601.598,259.366 	"/>
	<polygon style="fill:#707071;" points="495.598,174.277 493.291,190.027 493.291,195.378 497.938,195.277 	"/>
	<polygon style="fill:#BABABA;" points="505.109,174.277 503.62,162.236 503.62,151.498 507.245,151.498 509.703,174.277 	"/>
	<polygon style="fill:#FCF3F7;" points="280.557,170.875 280.953,168.902 283.2,168.902 282.828,171.236 	"/>
	<polygon style="fill:#FCF3F7;" points="283.2,168.902 284.495,169.882 284.338,171.569 282.828,171.236 	"/>
	<g>
		<rect x="433.911" y="241.231" style="fill:#A2A3A0;" width="5.667" height="3.25"/>
		<polygon style="fill:#FFFFFF;" points="434.253,238.919 433.911,241.231 439.578,241.231 439.195,238.919 		"/>
		<path style="fill:#FFFFFF;" d="M433.911,244.481l-0.25,6.625c0,0,2,3.958,3.083,3.917c1.083-0.042,2.833-3.833,2.833-3.833v-6.708
			H433.911z"/>
		<circle style="fill:#B3B3B3;" cx="436.745" cy="249.356" r="1.125"/>
	</g>
	<g>
		<rect x="416.661" y="241.231" style="fill:#A2A3A0;" width="5.667" height="3.25"/>
		<polygon style="fill:#FFFFFF;" points="417.003,238.919 416.661,241.231 422.327,241.231 421.944,238.919 		"/>
		<path style="fill:#FFFFFF;" d="M416.661,244.481l-0.25,6.625c0,0,2,3.958,3.083,3.917c1.083-0.042,2.833-3.833,2.833-3.833v-6.708
			H416.661z"/>
		<circle style="fill:#B3B3B3;" cx="419.494" cy="249.356" r="1.125"/>
	</g>
	<polygon style="fill:#EAE9E9;" points="426.837,289.669 419.508,289.695 419.508,278.951 426.898,278.951 	"/>
	<polygon style="fill:#EAE9E9;" points="436.504,289.669 429.174,289.695 429.174,278.951 436.565,278.951 	"/>
	<polygon style="fill:#EAE9E9;" points="469.503,171.72 463.12,171.747 462.865,161.004 469.068,161.004 	"/>
	<polygon style="fill:#EAE9E9;" points="438.467,162.507 432.084,162.534 431.957,155.064 438.16,155.064 	"/>
	<polygon style="fill:#EAE9E9;" points="430.342,162.507 423.959,162.534 423.832,155.064 430.035,155.064 	"/>
	<polygon style="fill:#EAE9E9;" points="471.622,195.006 464.292,195.032 464.292,184.289 471.682,184.289 	"/>
	<polygon style="fill:#EAE9E9;" points="324.897,279.547 321.432,279.547 319.682,290.014 323.504,290.014 	"/>
	<polygon style="fill:#EAE9E9;" points="239.48,279.977 236.015,279.977 234.265,290.444 238.087,290.444 	"/>
	<polygon style="fill:#EAE9E9;" points="333.482,279.547 330.017,279.547 328.267,290.014 332.089,290.014 	"/>
	<g>
		
			<line style="fill:none;stroke:#040000;stroke-width:0.5;stroke-miterlimit:10;" x1="332.676" y1="169.452" x2="333.79" y2="175.847"/>
		<circle style="fill:#040000;" cx="332.51" cy="169.441" r="0.75"/>
	</g>
	<g>
		
			<line style="fill:none;stroke:#040000;stroke-width:0.5;stroke-miterlimit:10;" x1="348.635" y1="169.452" x2="349.789" y2="176.081"/>
		<circle style="fill:#040000;" cx="348.468" cy="169.441" r="0.75"/>
	</g>
	<g>
		<g>
			<g>
				<polygon style="fill:#07152D;" points="216.78,205.9 225.03,216.525 236.53,216.525 227.78,204.775 216.979,205.433 
					207.28,206.025 207.411,206.527 				"/>
			</g>
			<polygon style="fill:#978D78;" points="220.463,207.694 223.776,211.715 229.374,211.194 226.463,206.842 220.151,207.319 			"/>
		</g>
		<polygon style="fill:#07152D;" points="209.974,205.986 209.745,204.775 211.432,204.632 211.745,205.861 		"/>
	</g>
	<g>
		<g>
			<g>
				<polygon style="fill:#07152D;" points="258.444,205.9 263.553,216.132 275.053,216.132 269.444,204.775 258.643,205.433 
					248.944,206.025 249.075,206.527 				"/>
			</g>
			<polygon style="fill:#978D78;" points="262.127,207.694 264.334,211.975 269.932,211.454 268.127,206.842 261.815,207.319 			"/>
		</g>
		<polygon style="fill:#07152D;" points="251.638,205.986 251.409,204.775 253.096,204.632 253.409,205.861 		"/>
	</g>
	<g>
		<g>
			<g>
				<polygon style="fill:#07152D;" points="299.08,205.9 304.189,216.132 315.689,216.132 310.08,204.775 299.279,205.433 
					289.58,206.025 289.711,206.527 				"/>
			</g>
			<polygon style="fill:#978D78;" points="302.763,207.694 304.97,211.975 310.568,211.454 308.763,206.842 302.451,207.319 			"/>
		</g>
		<polygon style="fill:#07152D;" points="292.274,205.986 292.045,204.775 293.732,204.632 294.045,205.861 		"/>
	</g>
	<g>
		<g>
			<g>
				<polygon style="fill:#07152D;" points="352.164,205.65 357.273,215.882 368.773,215.882 363.164,204.525 352.363,205.183 
					342.664,205.775 342.795,206.277 				"/>
			</g>
			<polygon style="fill:#978D78;" points="355.847,207.444 358.054,211.725 363.652,211.205 361.847,206.592 355.535,207.069 			"/>
		</g>
		<polygon style="fill:#07152D;" points="345.358,205.736 345.129,204.525 346.816,204.382 347.129,205.611 		"/>
	</g>
	<g>
		<g>
			<g>
				<polygon style="fill:#07152D;" points="396.716,203.832 396.896,215.312 408.396,215.312 407.708,203.365 396.914,203.365 
					386.997,203.545 387.128,204.048 				"/>
			</g>
			<polygon style="fill:#978D78;" points="399.553,207.053 399.636,211.855 405.232,211.687 405.261,206.687 399.552,206.678 			"/>
		</g>
		<polygon style="fill:#07152D;" points="389.764,203.595 389.847,202.384 391.534,202.241 391.534,203.47 		"/>
	</g>
	<g>
		<g>
			<g>
				<polygon style="fill:#07152D;" points="453.634,203.829 453.814,215.309 465.314,215.309 464.626,203.362 453.832,203.362 
					443.915,203.542 444.046,204.045 				"/>
			</g>
			<polygon style="fill:#978D78;" points="456.471,207.05 456.554,211.852 462.15,211.684 462.179,206.684 456.47,206.675 			"/>
		</g>
		<polygon style="fill:#07152D;" points="446.682,203.592 446.765,202.381 448.452,202.238 448.452,203.467 		"/>
	</g>
	<g>
		<polygon style="fill:#07152D;" points="480.431,201.986 479.118,215.319 493.347,215.319 495.243,201.986 		"/>
		<polygon style="fill:#978D78;" points="482.453,203.592 481.87,209.336 485.286,209.336 486.203,203.592 		"/>
		<polygon style="fill:#978D78;" points="488.953,203.592 488.37,209.336 491.786,209.336 492.703,203.592 		"/>
	</g>
	<g>
		<polygon style="fill:#07152D;" points="517.932,201.457 516.62,214.79 530.848,214.79 532.745,201.457 		"/>
		<polygon style="fill:#978D78;" points="519.954,203.064 519.371,208.807 522.787,208.807 523.704,203.064 		"/>
		<polygon style="fill:#978D78;" points="526.454,203.064 525.871,208.807 529.287,208.807 530.204,203.064 		"/>
	</g>
	<path style="fill:#EAE9E9;" d="M561.786,208.243c0,0-13.604,11.201,3.097,20.018L561.786,208.243z"/>
	<path style="fill:#707172;" d="M553.696,218.252c0,0-13.604,11.201,3.097,20.018L553.696,218.252z"/>
	<polygon style="fill:#07152D;" points="557.941,255.523 562.858,249.569 565.194,258.523 559.269,263.833 	"/>
	<polygon style="fill:#07152D;" points="559.722,267.422 564.638,261.468 566.974,270.422 561.049,275.731 	"/>
	<polygon style="fill:#07152D;" points="561.568,280.797 566.484,274.843 568.82,283.797 562.895,289.106 	"/>
	<polygon style="fill:#978D78;" points="563.631,252.533 560.995,255.507 561.908,261.468 565.194,258.523 	"/>
	<polygon style="fill:#978D78;" points="565.411,264.408 562.775,267.382 563.688,273.343 566.974,270.398 	"/>
	<polygon style="fill:#978D78;" points="567.297,277.815 564.66,280.788 565.574,286.749 568.86,283.805 	"/>
	<rect x="592.12" y="178.666" style="fill:#707172;" width="1.714" height="3.667"/>
</g>
</svg>
