<svg id="图层_1" data-name="图层 1" xmlns="http://www.w3.org/2000/svg" xmlns:xlink="http://www.w3.org/1999/xlink" viewBox="0 0 810.32 810.32"><defs><style>.cls-1,.cls-4{fill:none;}.cls-2{clip-path:url(#clip-path);}.cls-3{clip-path:url(#clip-path-2);}.cls-4{stroke:#e4007f;stroke-miterlimit:10;stroke-width:40px;}</style><clipPath id="clip-path" transform="translate(-555.68 -134.03)"><circle class="cls-1" cx="960.84" cy="539.19" r="385.16"/></clipPath><clipPath id="clip-path-2" transform="translate(-555.68 -134.03)"><rect class="cls-1" x="670.44" y="268.11" width="580.8" height="639.84"/></clipPath></defs><title>user</title><g class="cls-2"><g class="cls-3"><path d="M670.44,906.91c3.92-56.8,11.84-133.6,29.28-204,3.6-18.16,16.56-33.44,17-34,1.68-10.8,134-10.8,134-10.8L872.6,656c-3.12,19.35-5.52,48.87,2.88,74.16,10.8,33.19,28.08,66.15,51.52,85.75l5-88.23h45.12l7.76,82.71C1001.24,787,1020.36,750,1022.36,703c1.6-36.8,10.8-53.61,18.72-61.37,54.8,2.25,123.6,12.25,151.2,27.37,26.32,14.39,34.56,104.39,58.4,238Zm0,0" transform="translate(-555.68 -134.03)"/><path d="M971.56,715H943.24L920.6,696l34-44.25,33.92,37.93ZM1121.8,339.39c-13.52-27.12-92.24-67.76-178.16-70.55s-176.8,47-176.08,83.43,45.76,52.08,45.76,52.08c-2.32,7-1.12,34.4-1.12,34.4a88.72,88.72,0,0,0,6,9c-13.28,175,139.68,177.93,139.68,177.93C1090.44,612,1079.88,468,1078.6,447.15A134,134,0,0,0,1076,428c1.68-11.76-3-23.92-3-23.92,19.36-7.68,62.32-37.68,48.72-64.72ZM922,325.72a25.3,25.3,0,0,1-.32-3.52c0-14.73,13-26.73,29-26.73s29,12,29,26.73a26,26,0,0,1-.64,5.52c8.64-.81,18-1.53,26.48-1.68,0,0-24.16,11.27-37.92,17.91a30.38,30.38,0,0,1-6.72,3.28,3.48,3.48,0,0,1-.56.32,14,14,0,0,1-2.08.4,29.54,29.54,0,0,1-7.6,1.05c-.48,0-1-.16-1.52-.16-6.4,0-14.56-1.29-21.12-6.8,0,0-9.92-6.81-32.32-16.09a155,155,0,0,1,26.24-.23Zm129.28,76.87H831.72V376.68h219.6v25.91Zm0,0" transform="translate(-555.68 -134.03)"/></g></g><circle class="cls-4" cx="405.16" cy="405.16" r="385.16"/></svg>