<?xml version="1.0" encoding="utf-8"?>
<!-- Generator: Adobe Illustrator 17.0.0, SVG Export Plug-In . SVG Version: 6.00 Build 0)  -->
<!DOCTYPE svg PUBLIC "-//W3C//DTD SVG 1.1//EN" "http://www.w3.org/Graphics/SVG/1.1/DTD/svg11.dtd">
<svg version="1.1" id="图层_1" xmlns="http://www.w3.org/2000/svg" xmlns:xlink="http://www.w3.org/1999/xlink" x="0px" y="0px"
	 width="800px" height="420px" viewBox="0 0 800 420" style="enable-background:new 0 0 800 420;" xml:space="preserve">
<style type="text/css">
	.st0{fill:#707172;}
	.st1{fill:#A0977F;}
	.st2{fill:none;}
	.st3{fill:#07152D;}
	.st4{fill:#2C3848;}
	.st5{fill:#040000;}
	.st6{fill:#2E3946;}
	.st7{fill:#867E80;}
	.st8{fill:#FCF3F5;}
	.st9{fill:#FCF3F7;}
	.st10{fill:#807B7C;}
	.st11{fill:#EAE9E9;}
	.st12{fill:#999899;}
	.st13{fill:#A2A3A0;}
	.st14{fill:#FFFFFF;}
	.st15{fill:#B3B3B3;}
	.st16{fill:none;stroke:#FFFFFF;stroke-miterlimit:10;}
	.st17{fill:#2E3C4A;}
	.st18{fill:#978D78;}
	.st19{fill:none;stroke:#707172;stroke-width:0.25;stroke-miterlimit:10;}
	.st20{fill:#707071;}
	.st21{fill:#BABABA;}
	.st22{fill:#727071;}
</style>
<g>
	<g>
		<polygon class="st0" points="634.9,236.6 634.2,268.8 623.2,280.5 603.7,273.3 596.6,225.4 		"/>
		<polygon class="st0" points="596.6,225.4 593.9,207.2 635.5,207.4 634.9,236.6 		"/>
		<polygon class="st0" points="593.9,207.2 589.9,180.4 593.6,127.8 638.7,139.8 628.7,158.8 628.5,169 636.5,157.3 635.5,207.4 		
			"/>
		<polygon class="st1" points="600.1,237.9 626.5,247.8 624.3,264.9 601.9,257.7 		"/>
		<line class="st2" x1="622.3" y1="206.4" x2="630.8" y2="206.4"/>
		<polygon class="st1" points="628.5,169 628.7,158.8 625.3,158.2 624.3,169 624.2,193.1 619.3,206.4 628.7,206.4 626.4,169 		"/>
		<polygon class="st1" points="592.7,144.6 589.9,177.9 591.8,193.6 623.2,192.5 625.3,150.4 		"/>
		<polygon class="st1" points="626.5,213.2 600,217.8 628.7,230 		"/>
		<rect x="619.3" y="149.3" class="st0" width="1.7" height="3.7"/>
	</g>
	<path class="st0" d="M603.7,270.4l-15.9-103.8l-8.7,18.5l0.7,4.8c-2.7,2.8-9.2,11.2,2.7,18.3l9.2,62.3H603.7z"/>
	<polygon class="st3" points="585.1,226.2 590,220.2 592.3,229.2 586.4,234.5 	"/>
	<polygon class="st3" points="586.9,238.1 591.8,232.1 594.1,241.1 588.2,246.4 	"/>
	<polygon class="st3" points="588.7,251.5 593.6,245.5 596,254.5 590,259.8 	"/>
	<polygon class="st1" points="590.8,223.2 588.1,226.2 589,232.1 592.3,229.2 	"/>
	<polygon class="st1" points="592.6,235.1 589.9,238 590.8,244 594.1,241.1 	"/>
	<polygon class="st1" points="594.4,248.5 591.8,251.5 592.7,257.4 596,254.5 	"/>
</g>
<g>
	<polygon class="st1" points="235.5,134.7 226.5,134.7 203.1,202.1 500.5,200.1 507.3,272.2 603.7,272.2 590.5,185.1 239.7,187.2 
		238,191.7 223,177.9 	"/>
	<polygon class="st0" points="562.4,285.6 562.4,284.1 596.9,284.1 607.1,271.4 507,271.4 506.5,260.7 503.5,276.5 503.9,285.6 
		520.1,285.6 520.1,284.1 546.1,284.1 546.1,285.6 	"/>
	<polygon class="st0" points="241.7,116 209,116.1 179.1,202.5 205,202.3 227,135.6 235.9,135.5 	"/>
	<polygon class="st4" points="198.6,172.3 216,123 238.8,123 237.4,131.5 224.6,131.9 207.8,179.8 	"/>
	<g>
		<rect x="217.7" y="126" class="st0" width="19.7" height="0.3"/>
	</g>
	<g>
		<g>
			
				<rect x="209.1" y="124.6" transform="matrix(0.9406 0.3395 -0.3395 0.9406 63.3613 -62.119)" class="st0" width="0.3" height="50.8"/>
		</g>
		<g>
			<polygon class="st0" points="209.5,174.9 202.6,168.4 202.8,168.2 209.6,174.7 			"/>
		</g>
		<g>
			<polygon class="st0" points="211.9,168.3 204.9,161.7 205.1,161.5 212.1,168.1 			"/>
		</g>
		<g>
			<polygon class="st0" points="214,162.2 207.1,155.7 207.2,155.5 214.1,162.1 			"/>
		</g>
		<g>
			<polygon class="st0" points="215.9,156.6 209.1,150.1 209.2,149.9 216,156.4 			"/>
		</g>
		<g>
			<polygon class="st0" points="218.3,150 211.4,143.4 211.6,143.3 218.4,149.7 			"/>
		</g>
		<g>
			<polygon class="st0" points="220.4,143.9 213.6,137.5 213.8,137.3 220.5,143.7 			"/>
		</g>
		<g>
			<polygon class="st0" points="222.4,138.1 215.6,131.7 215.8,131.5 222.5,137.9 			"/>
		</g>
		<g>
			<polygon class="st0" points="224.4,133.2 217.7,126.8 217.8,126.6 224.5,133 			"/>
		</g>
	</g>
	<g>
		<polygon class="st0" points="230.5,132.7 223.7,126.2 223.9,126.1 230.6,132.4 		"/>
	</g>
	<g>
		<polygon class="st0" points="235.1,131.6 229.5,126.3 229.7,126.1 235.5,131.6 		"/>
	</g>
	<polygon class="st0" points="216.4,195.9 219.7,201.2 214.7,201.3 	"/>
	<g>
		<polygon class="st5" points="562.4,283 562.4,284.1 596.9,284.1 597.7,283 		"/>
		<polygon class="st5" points="562.4,283 561.3,283 561.3,284.5 547.2,284.5 547.2,283 519.1,283 519.1,284.5 505,284.5 
			504.5,275.5 503.5,275.5 503.9,285.6 520.2,285.6 520.2,284.1 546.1,284.1 546.1,285.6 562.4,285.6 		"/>
	</g>
	<g>
		<polygon class="st6" points="536.8,281.7 529.1,281.7 528.4,276.8 536.1,276.8 		"/>
		<g>
			<rect x="528.4" y="278" class="st0" width="7.9" height="0.3"/>
		</g>
		<g>
			
				<rect x="530.2" y="279.1" transform="matrix(0.1403 0.9901 -0.9901 0.1403 734.4951 -287.4052)" class="st0" width="5" height="0.3"/>
		</g>
	</g>
	<polygon class="st6" points="589.4,281.7 566.2,281.7 565.5,276.8 588.7,276.8 	"/>
	<g>
		<rect x="565.5" y="278" class="st0" width="23.4" height="0.3"/>
	</g>
	<g>
		
			<rect x="567.3" y="279.1" transform="matrix(0.1399 0.9902 -0.9902 0.1399 766.5901 -324.0254)" class="st0" width="5" height="0.3"/>
	</g>
	<g>
		
			<rect x="571.4" y="279.1" transform="matrix(0.1401 0.9901 -0.9901 0.1401 770.0409 -328.1703)" class="st0" width="5" height="0.3"/>
	</g>
	<g>
		
			<rect x="575.6" y="279.1" transform="matrix(0.1403 0.9901 -0.9901 0.1403 773.5068 -332.3343)" class="st0" width="5" height="0.3"/>
	</g>
	<g>
		
			<rect x="579.9" y="279.1" transform="matrix(0.1401 0.9901 -0.9901 0.1401 777.324 -336.5565)" class="st0" width="5" height="0.3"/>
	</g>
	<g>
		
			<rect x="583.4" y="279.1" transform="matrix(0.1401 0.9901 -0.9901 0.1401 780.3294 -340.0172)" class="st0" width="5" height="0.3"/>
	</g>
</g>
<g>
	<polygon class="st1" points="199.8,216.8 181,266.4 195.2,265.9 209,217 	"/>
	<polygon class="st0" points="200,217.3 208.9,217.4 212.9,202.3 178.7,202.5 157.3,265.1 176.8,276.6 201.6,276.6 201.6,269.9 
		192.3,265.9 195.2,256.5 188.8,250.1 199.8,216.8 	"/>
	<g>
		<polygon class="st4" points="179.4,231.6 177.5,236.9 184.3,243.4 184.3,243.4 186.2,238 		"/>
		<polygon class="st4" points="172.9,249.5 179.8,256.1 182.1,249.6 175.2,243.1 		"/>
		<polygon class="st4" points="177.4,237.2 175.3,242.9 182.2,249.4 184.2,243.6 		"/>
		<polygon class="st4" points="181.8,224.9 179.5,231.3 186.3,237.8 188.5,231.4 		"/>
		<polygon class="st4" points="187.6,207.8 185.7,205.9 168.4,255.1 170.1,256.5 		"/>
		<polygon class="st4" points="183.9,219 181.9,224.7 188.6,231.1 190.6,225.3 		"/>
		<polygon class="st4" points="172.8,249.8 170.4,256.7 177.5,262.6 179.7,256.3 		"/>
		<polygon class="st4" points="187.9,208.1 186.1,212.9 192.8,219.3 194.4,214.7 		"/>
		<polygon class="st4" points="186,213.2 184,218.7 190.7,225.1 192.7,219.5 		"/>
	</g>
	<polygon class="st5" points="176.8,276.6 175,275.5 201.6,275.5 201.6,269.9 202.6,270.9 202.6,276.6 	"/>
	<polygon class="st5" points="201.9,209.6 199.6,209.6 205.5,216.9 199.8,216.8 200.1,217.4 208.2,217.4 	"/>
</g>
<g>
	<polygon class="st1" points="209,217 260.6,216.7 247.8,265.6 194.6,265.9 	"/>
	<polygon class="st0" points="207.4,263.8 207.2,265.8 192.3,265.9 201.6,269.9 207.9,276.6 216.1,276.6 216.1,275.1 238.9,275.1 
		238.9,276.6 251.5,276.6 248.6,263.4 	"/>
	<polygon class="st0" points="263.7,201.9 212.9,202.3 195.5,261.3 209.7,261.3 223.3,217.2 260,216.8 	"/>
	<polygon class="st5" points="238.9,276.6 251.5,276.6 251.3,275.5 240,275.5 240,274.1 215.1,274.1 215.1,275.5 206.9,275.5 
		207.9,276.6 216.1,276.6 216.1,275.1 238.9,275.1 	"/>
	<g>
		<polygon class="st6" points="216.9,267.7 219.9,267.7 218.5,266.4 215.6,266.4 		"/>
		<polygon class="st6" points="223.8,271.4 220.2,268 217.2,268 220.9,271.4 		"/>
		<polygon class="st6" points="220.2,267.7 223.4,267.7 222.1,266.4 218.9,266.4 		"/>
		<polygon class="st6" points="223.7,268 220.5,268 224.2,271.4 227.4,271.4 		"/>
		<polygon class="st6" points="230,267.7 228.7,266.4 225.9,266.4 227.3,267.7 		"/>
		<polygon class="st6" points="223.7,267.7 226.9,267.7 225.6,266.4 222.4,266.4 		"/>
		<polygon class="st6" points="216.9,268 214.1,268 217.9,271.4 220.6,271.4 		"/>
		<polygon class="st6" points="230.4,267.7 233,267.7 231.6,266.4 229,266.4 		"/>
		<polygon class="st6" points="216.6,267.7 215.3,266.4 212.5,266.4 213.9,267.7 		"/>
		<polygon class="st6" points="230.3,268 227.5,268 231.2,271.4 234,271.4 		"/>
		<polygon class="st6" points="227.2,268 224,268 227.7,271.4 230.9,271.4 		"/>
		<polygon class="st6" points="233.3,268 230.6,268 234.3,271.4 237.1,271.4 		"/>
	</g>
	<polygon class="st5" points="251.7,217.1 245.4,209.3 239.5,209.3 245.5,216.9 219.2,217.1 219.2,217.3 246,217.1 246,217.1 	"/>
	<polygon class="st7" points="219.4,208.8 203.9,261.3 208.4,261.3 222.4,261.3 234.1,217.3 224.1,208.8 	"/>
	<polygon class="st8" points="219.4,208.8 203.9,261.3 207.9,261.3 223.7,208.8 	"/>
	<g>
		<rect x="214.7" y="224.5" class="st0" width="4.2" height="0.3"/>
	</g>
	<g>
		<rect x="208.4" y="245.6" class="st0" width="4.2" height="0.3"/>
	</g>
	<g>
		<polygon class="st0" points="211.7,258.4 213.8,259.8 214.4,257.5 212.4,256.2 		"/>
		<polygon class="st0" points="212.9,254.3 215,255.7 215.6,253.4 213.6,252.1 		"/>
		<polygon class="st0" points="214.1,250.5 216.1,251.8 216.8,249.6 214.7,248.2 		"/>
		<polygon class="st0" points="218.1,245.6 216,244.3 215.4,246.5 217.4,247.8 		"/>
		<polygon class="st0" points="219.3,241.5 217.3,240.2 216.6,242.4 218.6,243.8 		"/>
		<polygon class="st0" points="220.5,237.6 218.4,236.3 217.7,238.5 219.8,239.9 		"/>
		<polygon class="st0" points="221.9,233.8 219.8,232.4 219.2,234.7 221.2,236 		"/>
		<polygon class="st0" points="223.1,229.7 221,228.3 220.4,230.6 222.4,231.9 		"/>
		<polygon class="st0" points="224.2,225.8 222.2,224.5 221.5,226.7 223.6,228 		"/>
		<polygon class="st0" points="225.5,221.8 223.5,220.5 222.8,222.7 224.9,224.1 		"/>
		<polygon class="st0" points="226.7,217.7 224.7,216.4 224,218.7 226.1,220 		"/>
		<polygon class="st0" points="227.9,213.9 225.9,212.5 225.2,214.8 227.2,216.1 		"/>
		<polygon class="st0" points="217.2,258.5 219.2,259.8 219.9,257.5 217.8,256.2 		"/>
		<polygon class="st0" points="218.2,254.6 220.3,255.9 220.9,253.6 218.9,252.3 		"/>
		<polygon class="st0" points="219.5,250.6 221.5,251.9 222.1,249.6 220.1,248.3 		"/>
		<polygon class="st0" points="220.6,246.5 222.7,247.8 223.3,245.5 221.2,244.2 		"/>
		<polygon class="st0" points="221.7,242.6 223.7,243.9 224.4,241.6 222.3,240.3 		"/>
		<polygon class="st0" points="223,238.7 225.1,240 225.7,237.7 223.6,236.4 		"/>
		<polygon class="st0" points="224.1,234.6 226.2,235.9 226.8,233.6 224.8,232.3 		"/>
		<polygon class="st0" points="225.2,230.7 227.3,232 227.9,229.7 225.8,228.4 		"/>
		<polygon class="st0" points="226.4,226.7 228.5,228 229.1,225.7 227,224.4 		"/>
		<polygon class="st0" points="227.5,222.6 229.6,223.9 230.2,221.6 228.2,220.3 		"/>
		<polygon class="st0" points="229.2,216.4 228.6,218.7 230.7,220 231.3,217.7 		"/>
	</g>
</g>
<g>
	<polygon class="st1" points="407,201.2 403.1,261.7 455.1,261.2 454.9,200.8 	"/>
	<polygon class="st0" points="411.3,275.2 446.1,275.2 446.1,276.5 455.5,276.5 455.1,261.2 402.6,261.7 403.1,276.5 411.3,276.5 	
		"/>
	<polygon class="st0" points="455.5,214.6 455.5,214.5 455.5,200.9 455.1,200.9 455.1,200.5 407.6,200.8 406.2,215.2 406.9,215.2 
		402.4,261.6 408.4,261.7 411.4,215.1 436.8,214.8 436.8,234 439.8,246.5 455.5,246.5 455.5,214.6 	"/>
	<polygon class="st1" points="455.1,214.3 438.6,214.3 438.6,233.8 455.1,233.8 	"/>
	<polygon class="st5" points="455.5,275.5 447.2,275.5 447.2,274.1 410.6,274.1 410.6,275.5 403.1,275.5 403.1,276.6 411.6,276.6 
		411.6,275.1 446.1,275.1 446.1,276.6 455.5,276.6 	"/>
	<g>
		<polygon class="st6" points="440.2,271.4 421,271.4 415.6,266.4 434.8,266.4 		"/>
		<g>
			<rect x="417.1" y="267.7" class="st0" width="19.1" height="0.3"/>
		</g>
		<g>
			
				<rect x="417.5" y="268.8" transform="matrix(0.7318 0.6815 -0.6815 0.7318 296.2183 -214.917)" class="st0" width="7.3" height="0.2"/>
		</g>
		<g>
			
				<rect x="420.8" y="268.8" transform="matrix(0.7318 0.6815 -0.6815 0.7318 297.097 -217.1501)" class="st0" width="7.3" height="0.2"/>
		</g>
		<g>
			
				<rect x="424.3" y="268.8" transform="matrix(0.7319 0.6815 -0.6815 0.7319 298.0198 -219.5458)" class="st0" width="7.3" height="0.2"/>
		</g>
		<g>
			
				<rect x="427.9" y="268.8" transform="matrix(0.7318 0.6815 -0.6815 0.7318 299.0076 -221.9546)" class="st0" width="7.3" height="0.2"/>
		</g>
		<g>
			
				<rect x="430.9" y="268.8" transform="matrix(0.7318 0.6815 -0.6815 0.7318 299.8363 -224.0604)" class="st0" width="7.3" height="0.2"/>
		</g>
	</g>
	<polygon class="st5" points="434.5,215.1 428.6,215.1 427.7,207.3 433.7,207.3 	"/>
	<g>
		<rect x="411.4" y="214.7" class="st5" width="24.8" height="0.5"/>
	</g>
	<g>
		<polygon class="st9" points="423.4,222.6 422.6,253.6 430.2,253.6 431.2,222.6 		"/>
		<polygon class="st10" points="422.6,253.6 422.6,255.9 430.2,255.9 430.2,253.6 		"/>
	</g>
	<polygon class="st11" points="417.6,209.8 409.4,209.8 405.6,260.5 414.2,260.5 414.2,260.5 	"/>
	<g>
		<g>
			
				<rect x="411.8" y="218.2" transform="matrix(-0.9989 -4.590200e-002 4.590200e-002 -0.9989 815.3881 458.4101)" class="st11" width="2.2" height="3.3"/>
			<path class="st12" d="M414.1,221.7l-2.5-0.1l0.2-3.6l2.5,0.1L414.1,221.7z M411.9,221.3l2,0.1l0.1-3.1l-2-0.1L411.9,221.3z"/>
		</g>
		<g>
			
				<rect x="410.6" y="232.8" transform="matrix(-0.9962 -8.729838e-002 8.729838e-002 -0.9962 801.3568 504.0325)" class="st11" width="2.2" height="3.3"/>
			<path class="st12" d="M412.8,236.4l-2.5-0.2l0.3-3.6l2.5,0.2L412.8,236.4z M410.6,235.9l2,0.2l0.3-3.1l-2-0.2L410.6,235.9z"/>
		</g>
		<g>
			
				<rect x="409.7" y="249.3" transform="matrix(-0.9962 -8.729838e-002 8.729838e-002 -0.9962 798.1294 536.9324)" class="st11" width="2.2" height="3.3"/>
			<path class="st12" d="M411.9,252.9l-2.5-0.2l0.3-3.6l2.5,0.2L411.9,252.9z M409.7,252.5l2,0.2l0.3-3.1l-2-0.2L409.7,252.5z"/>
		</g>
		<g>
			
				<rect x="408.2" y="226.9" transform="matrix(0.9983 5.889846e-002 -5.889846e-002 0.9983 14.0924 -23.8945)" class="st12" width="8.3" height="0.5"/>
		</g>
		<g>
			
				<rect x="407" y="242.4" transform="matrix(0.9983 5.887518e-002 -5.887518e-002 0.9983 14.9969 -23.7862)" class="st12" width="8.4" height="0.5"/>
		</g>
	</g>
	<g>
		<rect x="443.8" y="211.9" class="st13" width="5.7" height="3.3"/>
		<polygon class="st14" points="444.1,209.6 443.8,211.9 449.5,211.9 449.1,209.6 		"/>
		<path class="st14" d="M443.8,215.1l-0.3,6.6c0,0,2,4,3.1,3.9c1.1,0,2.8-3.8,2.8-3.8v-6.7L443.8,215.1L443.8,215.1z"/>
		<circle class="st15" cx="446.6" cy="220" r="1.1"/>
	</g>
	<polygon class="st11" points="454,260.3 446.6,260.4 446.6,249.6 454,249.6 	"/>
</g>
<g>
	<polygon class="st1" points="455.1,200.5 455.1,261.7 506.6,261.7 500.5,200.1 	"/>
	<polygon class="st0" points="455.1,261.2 455.5,276.5 464.1,276.5 464.1,275.2 497.5,275.2 497.5,276.5 503.5,276.5 506.5,260.7 	
		"/>
	<polygon class="st0" points="501.4,211.3 501.4,200.1 455.1,200.5 455.5,214.5 455.5,241.5 455.1,241.3 455.1,260.3 460,260.3 
		460,246.5 472.8,246.5 472.8,232.8 472.8,214.4 499.5,214.1 499.3,216.7 503.9,261.7 506.6,261.7 	"/>
	<polygon class="st1" points="455.1,233.8 471.3,233.8 471.3,214.3 455.1,214.3 	"/>
	<polygon class="st5" points="455.5,276.6 464.1,276.6 464.1,275.1 497.5,275.1 497.5,276.5 503.5,276.5 503.5,275.5 498.6,275.5 
		498.6,274.1 463.2,274.1 463.2,275.5 455.5,275.5 	"/>
	<g>
		<polygon class="st6" points="492.4,271.4 473.2,271.4 467.7,266.4 486.9,266.4 		"/>
		<g>
			<rect x="469.3" y="267.7" class="st0" width="19.1" height="0.3"/>
		</g>
		<g>
			
				<rect x="469.7" y="268.8" transform="matrix(0.7318 0.6815 -0.6815 0.7318 310.2277 -250.4659)" class="st0" width="7.3" height="0.2"/>
		</g>
		<g>
			
				<rect x="473" y="268.8" transform="matrix(0.7319 0.6815 -0.6815 0.7319 311.059 -252.684)" class="st0" width="7.3" height="0.2"/>
		</g>
		<g>
			
				<rect x="476.5" y="268.8" transform="matrix(0.7318 0.6815 -0.6815 0.7318 312.0516 -255.1007)" class="st0" width="7.3" height="0.2"/>
		</g>
		<g>
			
				<rect x="480" y="268.8" transform="matrix(0.7318 0.6815 -0.6815 0.7318 312.9948 -257.4974)" class="st0" width="7.3" height="0.2"/>
		</g>
		<g>
			
				<rect x="483.1" y="268.8" transform="matrix(0.7317 0.6816 -0.6816 0.7317 313.8718 -259.6192)" class="st0" width="7.3" height="0.2"/>
		</g>
	</g>
	<polygon class="st5" points="481.5,214.3 475.6,214.3 474.7,206.4 480.7,206.4 	"/>
	<g>
		<rect x="473.3" y="214" class="st5" width="26.2" height="0.5"/>
	</g>
	<g>
		<polygon class="st9" points="477.1,222.6 478.3,253.6 485.9,253.6 484.9,222.6 		"/>
		<polygon class="st10" points="478.3,253.6 478.3,255.9 485.9,255.9 485.9,253.6 		"/>
	</g>
	<g>
		<rect x="461.1" y="211.9" class="st13" width="5.7" height="3.3"/>
		<polygon class="st14" points="461.4,209.6 461.1,211.9 466.7,211.9 466.3,209.6 		"/>
		<path class="st14" d="M461.1,215.1l-0.3,6.6c0,0,2,4,3.1,3.9c1.1,0,2.8-3.8,2.8-3.8v-6.7L461.1,215.1L461.1,215.1z"/>
		<circle class="st15" cx="463.9" cy="220" r="1.1"/>
	</g>
	<polygon class="st11" points="463.6,260.3 456.3,260.4 456.3,249.6 463.7,249.6 	"/>
</g>
<g>
	<polygon class="st1" points="311.3,201.5 300.2,262.8 351.3,262.3 360.6,201.2 	"/>
	<polygon class="st0" points="300.2,262.8 302.6,276.5 308.3,276.5 308.3,275.1 341.4,275.1 341.4,276.6 352.3,276.5 351.3,262.3 	
		"/>
	<g>
		<polygon class="st10" points="333,222 326.8,253.6 329.1,256.6 337.1,256.6 343.3,225.1 341.1,222 		"/>
		<polygon class="st9" points="332.8,222 326.8,253.5 335.1,253.5 341.5,222 		"/>
	</g>
	<g>
		
			<rect x="330.7" y="249.8" transform="matrix(-0.1994 0.9799 -0.9799 -0.1994 643.246 -25.0971)" class="st12" width="2.4" height="0.8"/>
		
			<rect x="331.4" y="246.1" transform="matrix(-0.1994 0.9799 -0.9799 -0.1994 640.4861 -30.3416)" class="st12" width="2.4" height="0.8"/>
		
			<rect x="332.2" y="242.3" transform="matrix(-0.1994 0.9799 -0.9799 -0.1994 637.6854 -35.6668)" class="st12" width="2.4" height="0.8"/>
		
			<rect x="332.9" y="239" transform="matrix(-0.1994 0.9799 -0.9799 -0.1994 635.2787 -40.2409)" class="st12" width="2.4" height="0.8"/>
		
			<rect x="333.5" y="235.7" transform="matrix(-0.1994 0.9799 -0.9799 -0.1994 632.8372 -44.8819)" class="st12" width="2.4" height="0.8"/>
		
			<rect x="334.3" y="231.9" transform="matrix(-0.1994 0.9799 -0.9799 -0.1994 630.0787 -50.1271)" class="st12" width="2.4" height="0.8"/>
		
			<rect x="335.1" y="228.1" transform="matrix(-0.1994 0.9799 -0.9799 -0.1994 627.278 -55.4523)" class="st12" width="2.4" height="0.8"/>
		
			<rect x="335.8" y="224.9" transform="matrix(-0.1994 0.9799 -0.9799 -0.1994 624.8712 -60.0265)" class="st12" width="2.4" height="0.8"/>
	</g>
	<polygon class="st0" points="360.6,201.2 311.3,201.5 300.2,261.9 314.5,261.9 322.5,216.1 340.3,215.9 337.6,234.1 345.6,247.5 
		353.5,247.5 	"/>
	<polygon class="st11" points="324.2,212.1 316.4,211.7 306.4,261.1 315.1,261.1 	"/>
	<g>
		<g>
			
				<rect x="317.6" y="220" transform="matrix(-0.9856 -0.1691 0.1691 -0.9856 595.4343 494.1089)" class="st11" width="2.2" height="3.3"/>
			<path class="st12" d="M319.7,223.7l-2.5-0.4l0.6-3.5l2.5,0.4L319.7,223.7z M317.5,223.1l2,0.3l0.5-3l-2-0.3L317.5,223.1z"/>
		</g>
		<g>
			
				<rect x="314.6" y="234.4" transform="matrix(-0.9777 -0.2098 0.2098 -0.9777 574.7983 533.0581)" class="st11" width="2.2" height="3.3"/>
			<path class="st12" d="M316.5,238.1l-2.4-0.5l0.8-3.5l2.4,0.5L316.5,238.1z M314.4,237.3l1.9,0.4l0.6-3l-1.9-0.4L314.4,237.3z"/>
		</g>
		<g>
			
				<rect x="311.6" y="250.7" transform="matrix(-0.9777 -0.2098 0.2098 -0.9777 565.5876 564.646)" class="st11" width="2.2" height="3.3"/>
			<path class="st12" d="M313.6,254.3l-2.4-0.5l0.8-3.5l2.4,0.5L313.6,254.3z M311.4,253.6l1.9,0.4l0.6-3l-1.9-0.4L311.4,253.6z"/>
		</g>
		<g>
			
				<rect x="313.2" y="228.6" transform="matrix(0.9833 0.1818 -0.1818 0.9833 46.8791 -53.8669)" class="st12" width="8.3" height="0.5"/>
		</g>
		<g>
			
				<rect x="310" y="243.8" transform="matrix(0.9833 0.1818 -0.1818 0.9833 49.6118 -53.0588)" class="st12" width="8.4" height="0.5"/>
		</g>
	</g>
	<polygon class="st5" points="352.4,275.5 342.4,275.5 342.4,274.1 307.4,274.1 307.4,274.1 307.4,275.5 302.7,275.5 302.6,276.6 
		308.3,276.6 308.3,275.1 341.4,275.1 341.4,276.6 352.3,276.6 	"/>
	<g>
		<polygon class="st6" points="315.9,267.7 318.8,267.7 317.4,266.4 314.5,266.4 		"/>
		<polygon class="st6" points="322.6,268 319.4,268 323.1,271.4 326.3,271.4 		"/>
		<polygon class="st6" points="319.1,267.7 322.3,267.7 321,266.4 317.8,266.4 		"/>
		<polygon class="st6" points="328.9,267.7 327.6,266.4 324.8,266.4 326.2,267.7 		"/>
		<polygon class="st6" points="322.7,267.7 325.9,267.7 324.5,266.4 321.3,266.4 		"/>
		<polygon class="st6" points="322.8,271.4 319.1,268 316.1,268 319.8,271.4 		"/>
		<polygon class="st6" points="329.3,267.7 332,267.7 330.6,266.4 327.9,266.4 		"/>
		<polygon class="st6" points="315.5,267.7 314.2,266.4 311.4,266.4 312.8,267.7 		"/>
		<polygon class="st6" points="326.1,268 322.9,268 326.6,271.4 329.8,271.4 		"/>
		<polygon class="st6" points="315.8,268 313.1,268 316.8,271.4 319.5,271.4 		"/>
		<polygon class="st6" points="332.2,268 329.5,268 333.2,271.4 336,271.4 		"/>
		<polygon class="st6" points="329.2,268 326.5,268 330.2,271.4 332.9,271.4 		"/>
	</g>
	<polygon class="st5" points="341.3,208.5 335.3,208.5 340.5,215 	"/>
	<polygon class="st1" points="350.8,216 347.7,234.2 354.5,234 357.1,216 	"/>
	<g>
		
			<rect x="352.2" y="215.6" transform="matrix(-0.9995 -3.279876e-002 3.279876e-002 -0.9995 701.9674 445.5437)" class="st13" width="4.9" height="2.8"/>
		<polygon class="st14" points="352.6,213.5 352.2,215.5 357.1,215.7 356.9,213.6 		"/>
		<path class="st14" d="M352.1,218.3l-0.4,5.8c0,0,1.6,3.5,2.6,3.5c0.9,0,2.6-3.3,2.6-3.3l0.2-5.8L352.1,218.3z"/>
		<ellipse class="st15" cx="354.5" cy="222.6" rx="1" ry="1"/>
	</g>
	<path class="st16" d="M337.6,234.1"/>
	<g>
		<polygon class="st5" points="323.4,216.3 323.5,215.8 340,215.6 340,216.1 		"/>
	</g>
	<polygon class="st11" points="352,250.2 348.6,250.2 346.8,260.7 350.6,260.7 	"/>
</g>
<g>
	<polygon class="st1" points="248.2,263.4 263.7,202.1 311.3,201.5 300.2,262.8 	"/>
	<polygon class="st0" points="248.6,263.4 251.5,276.6 256.9,276.6 256.9,275.1 290.3,275.1 290.3,276.5 302.6,276.5 300.2,262.8 	
		"/>
	<polygon class="st0" points="311.4,201.5 270.2,201.8 263.7,201.8 263.5,202.4 249,261.9 263.3,261.9 266.7,247.1 266.9,247.3 
		286.2,247.3 292.5,216.4 308.6,216.2 	"/>
	<polygon class="st5" points="302.7,275.5 291.4,275.5 291.4,274.1 256,274.1 256,275.5 251.3,275.5 251.5,276.6 256.9,276.6 
		256.9,275.1 290.3,275.1 290.3,276.6 302.6,276.6 	"/>
	<g>
		<polygon class="st6" points="268.8,267.7 272,267.7 270.6,266.4 267.4,266.4 		"/>
		<polygon class="st6" points="265.5,267.7 268.4,267.7 267.1,266.4 264.1,266.4 		"/>
		<polygon class="st6" points="272.4,271.4 268.7,268 265.8,268 269.4,271.4 		"/>
		<polygon class="st6" points="278.6,267.7 277.2,266.4 274.4,266.4 275.8,267.7 		"/>
		<polygon class="st6" points="272.3,267.7 275.5,267.7 274.1,266.4 270.9,266.4 		"/>
		<polygon class="st6" points="272.2,268 269,268 272.7,271.4 275.9,271.4 		"/>
		<polygon class="st6" points="265.4,268 262.7,268 266.5,271.4 269.1,271.4 		"/>
		<polygon class="st6" points="278.9,267.7 281.6,267.7 280.2,266.4 277.5,266.4 		"/>
		<polygon class="st6" points="265.1,267.7 263.8,266.4 261,266.4 262.4,267.7 		"/>
		<polygon class="st6" points="281.8,268 279.2,268 282.9,271.4 285.6,271.4 		"/>
		<polygon class="st6" points="278.8,268 276.1,268 279.8,271.4 282.5,271.4 		"/>
		<polygon class="st6" points="275.7,268 272.6,268 276.2,271.4 279.4,271.4 		"/>
	</g>
	<polygon class="st5" points="304.2,216.4 297.9,208.5 291.9,208.5 297.9,215.9 292.8,215.9 292.8,215.9 292.3,215.9 286,247.1 
		266.8,247.1 263.3,261 263.7,261.1 267.1,247.6 286.4,247.6 292.8,216.3 292.7,216.4 298.2,216.4 298.2,216.4 298.2,216.4 	"/>
	<g>
		<polygon class="st10" points="294.3,223 288.2,254.6 290.4,257.6 298.4,257.6 304.7,226.1 302.4,223 		"/>
		<polygon class="st9" points="294.2,223 288.2,254.5 296.4,254.5 302.8,223 		"/>
	</g>
	<g>
		
			<rect x="292" y="250.9" transform="matrix(-0.1994 0.9799 -0.9799 -0.1994 597.8888 14.0231)" class="st12" width="2.4" height="0.8"/>
		
			<rect x="292.8" y="247.1" transform="matrix(-0.1994 0.9799 -0.9799 -0.1994 595.129 8.7787)" class="st12" width="2.4" height="0.8"/>
		
			<rect x="293.5" y="243.3" transform="matrix(-0.1994 0.9799 -0.9799 -0.1994 592.3282 3.4534)" class="st12" width="2.4" height="0.8"/>
		
			<rect x="294.2" y="240" transform="matrix(-0.1994 0.9799 -0.9799 -0.1994 589.9214 -1.1208)" class="st12" width="2.4" height="0.8"/>
		
			<rect x="294.9" y="236.7" transform="matrix(-0.1994 0.9799 -0.9799 -0.1994 587.4799 -5.7617)" class="st12" width="2.4" height="0.8"/>
		
			<rect x="295.7" y="233" transform="matrix(-0.1994 0.9799 -0.9799 -0.1994 584.7216 -11.007)" class="st12" width="2.4" height="0.8"/>
		
			<rect x="296.4" y="229.2" transform="matrix(-0.1994 0.9799 -0.9799 -0.1994 581.9208 -16.3323)" class="st12" width="2.4" height="0.8"/>
		
			<rect x="297.1" y="225.9" transform="matrix(-0.1994 0.9799 -0.9799 -0.1994 579.514 -20.9064)" class="st12" width="2.4" height="0.8"/>
	</g>
	<polygon class="st11" points="267.2,250.6 263.2,250.6 261.4,261.1 265.2,261.1 	"/>
</g>
<g>
	<polygon class="st0" points="359.4,275.2 393.6,275.2 393.6,276.5 403.1,276.5 402.6,261.7 351.3,262.3 352.3,276.5 359.4,276.5 	
		"/>
	<polygon class="st1" points="360.6,201.2 351.3,262.3 403.1,261.7 407.7,200.8 	"/>
	<polygon class="st0" points="353.5,247.5 379.9,247.5 383.6,215.1 376.2,201.5 360.2,201.9 	"/>
	<polygon class="st0" points="406.2,215.2 358,215.7 360.6,201.2 407.6,200.8 	"/>
	<polygon class="st0" points="358.5,208.1 365.2,215.3 359.1,260.6 352,260.9 	"/>
	<polygon class="st5" points="403.1,275.5 394.7,275.5 394.7,274.1 358.4,274.1 358.4,275.5 352.4,275.5 352.3,276.6 359.4,276.6 
		359.4,275.1 393.6,275.1 393.6,276.6 403.1,276.6 	"/>
	<g>
		<polygon class="st6" points="388.7,271.4 369.5,271.4 364.1,266.4 383.3,266.4 		"/>
		<g>
			<rect x="365.6" y="267.7" class="st0" width="19.1" height="0.3"/>
		</g>
		<g>
			
				<rect x="366" y="268.8" transform="matrix(0.7318 0.6815 -0.6815 0.7318 282.4077 -179.8205)" class="st0" width="7.3" height="0.2"/>
		</g>
		<g>
			
				<rect x="369.3" y="268.8" transform="matrix(0.7318 0.6815 -0.6815 0.7318 283.2864 -182.0537)" class="st0" width="7.3" height="0.2"/>
		</g>
		<g>
			
				<rect x="372.8" y="268.8" transform="matrix(0.7318 0.6815 -0.6815 0.7318 284.2314 -184.4552)" class="st0" width="7.3" height="0.2"/>
		</g>
		<g>
			
				<rect x="376.4" y="268.8" transform="matrix(0.7318 0.6815 -0.6815 0.7318 285.1746 -186.852)" class="st0" width="7.3" height="0.2"/>
		</g>
		<g>
			
				<rect x="379.4" y="268.8" transform="matrix(0.7318 0.6815 -0.6815 0.7318 286.0241 -188.9623)" class="st0" width="7.3" height="0.2"/>
		</g>
	</g>
	<polygon class="st5" points="394.8,215.1 388.9,215.1 388.1,207.3 394,207.3 	"/>
	<polygon class="st1" points="366.8,216 364.4,234.4 371.9,234.5 374.1,216 	"/>
	<g>
		
			<rect x="367.8" y="214.1" transform="matrix(-0.9958 -9.150054e-002 9.150054e-002 -0.9958 719.8922 464.5435)" class="st13" width="5.7" height="3.2"/>
		<polygon class="st14" points="368.5,211.6 367.9,213.9 373.6,214.4 373.4,212.1 		"/>
		<path class="st14" d="M367.6,217.1l-0.9,6.6c0,0,1.6,4.1,2.7,4.2c1.1,0.1,3.2-3.6,3.2-3.6l0.6-6.7L367.6,217.1z"/>
		<ellipse class="st15" cx="370" cy="222.2" rx="1.1" ry="1.1"/>
	</g>
	<path class="st16" d="M372.2,234.5"/>
	<g>
		<rect x="383.6" y="214.9" class="st5" width="21.9" height="0.5"/>
	</g>
	<g>
		<polygon class="st9" points="385.4,222.6 382.9,253.6 390.4,253.6 393.2,222.6 		"/>
		<polygon class="st10" points="382.9,253.6 382.9,255.9 390.4,255.9 390.4,253.6 		"/>
	</g>
	<g>
		
			<rect x="385.7" y="249.9" transform="matrix(-8.729839e-002 0.9962 -0.9962 -8.729839e-002 669.9979 -113.3034)" class="st12" width="2.4" height="0.8"/>
		
			<rect x="386" y="246.1" transform="matrix(-8.729839e-002 0.9962 -0.9962 -8.729839e-002 666.564 -117.7799)" class="st12" width="2.4" height="0.8"/>
		
			<rect x="386.4" y="242.2" transform="matrix(-8.729839e-002 0.9962 -0.9962 -8.729839e-002 663.0789 -122.325)" class="st12" width="2.4" height="0.8"/>
		
			<rect x="386.7" y="238.9" transform="matrix(-8.729839e-002 0.9962 -0.9962 -8.729839e-002 660.0831 -126.2309)" class="st12" width="2.4" height="0.8"/>
		
			<rect x="387" y="235.5" transform="matrix(-8.729839e-002 0.9962 -0.9962 -8.729839e-002 657.0444 -130.193)" class="st12" width="2.4" height="0.8"/>
		
			<rect x="387.3" y="231.7" transform="matrix(-8.729839e-002 0.9962 -0.9962 -8.729839e-002 653.6105 -134.6695)" class="st12" width="2.4" height="0.8"/>
		
			<rect x="387.6" y="227.8" transform="matrix(-8.729839e-002 0.9962 -0.9962 -8.729839e-002 650.1256 -139.2146)" class="st12" width="2.4" height="0.8"/>
		
			<rect x="387.9" y="224.5" transform="matrix(-8.729839e-002 0.9962 -0.9962 -8.729839e-002 647.1298 -143.1205)" class="st12" width="2.4" height="0.8"/>
	</g>
	<polygon class="st11" points="397.8,209.9 405.9,209.8 402.1,260.5 393.6,260.7 393.6,260.7 	"/>
	<g>
		<g>
			
				<rect x="399.8" y="218.2" transform="matrix(-0.9989 -4.590200e-002 4.590200e-002 -0.9989 791.3877 457.86)" class="st11" width="2.2" height="3.3"/>
			<path class="st12" d="M402.1,221.7l-2.5-0.1l0.2-3.6l2.5,0.1L402.1,221.7z M399.9,221.3l2,0.1l0.1-3.1l-2-0.1L399.9,221.3z"/>
		</g>
		<g>
			
				<rect x="398.6" y="232.8" transform="matrix(-0.9962 -8.729838e-002 8.729838e-002 -0.9962 777.3881 502.9853)" class="st11" width="2.2" height="3.3"/>
			<path class="st12" d="M400.8,236.4l-2.5-0.2l0.3-3.6l2.5,0.2L400.8,236.4z M398.6,235.9l2,0.2l0.3-3.1l-2-0.2L398.6,235.9z"/>
		</g>
		<g>
			
				<rect x="397.7" y="249.3" transform="matrix(-0.9962 -8.729838e-002 8.729838e-002 -0.9962 774.1607 535.8851)" class="st11" width="2.2" height="3.3"/>
			<path class="st12" d="M399.9,252.9l-2.5-0.2l0.3-3.6l2.5,0.2L399.9,252.9z M397.7,252.5l2,0.2l0.3-3.1l-2-0.2L397.7,252.5z"/>
		</g>
		<g>
			
				<rect x="396.2" y="226.9" transform="matrix(0.9983 5.889846e-002 -5.889846e-002 0.9983 14.0715 -23.1873)" class="st12" width="8.3" height="0.5"/>
		</g>
		<g>
			
				<rect x="394.9" y="242.4" transform="matrix(0.9983 5.887518e-002 -5.887518e-002 0.9983 14.976 -23.0793)" class="st12" width="8.4" height="0.5"/>
		</g>
	</g>
	<polygon class="st11" points="360.6,250.2 357.2,250.2 355.4,260.7 359.2,260.7 	"/>
</g>
<g>
	<polygon class="st1" points="241.7,116 226.5,167.2 270.9,167.2 282.7,115.8 	"/>
	<polygon class="st0" points="282.7,115.8 241.3,116 235.5,135.5 278.2,135.1 	"/>
	<g>
		<polygon class="st17" points="257.3,121.7 262.5,130.4 279.8,130.4 274.5,121.7 		"/>
		<g>
			<rect x="258.6" y="124.8" class="st0" width="17.9" height="0.3"/>
		</g>
		<g>
			
				<rect x="263.5" y="125.9" transform="matrix(0.4624 0.8867 -0.8867 0.4624 256.1199 -170.2799)" class="st0" width="9.9" height="0.2"/>
		</g>
	</g>
	<polygon class="st0" points="271.1,167.3 253.3,167.3 261.6,134.8 278.4,134.6 	"/>
	<polygon class="st0" points="271.6,167.2 244.7,167.2 254.5,135.2 242.3,116.8 240.2,116.8 222.1,177.1 238,191.7 239.7,187.2 
		277.6,187 	"/>
	<g>
		<g>
			<g>
				<polygon class="st3" points="243.9,176.6 252.2,187.2 263.7,187.2 254.9,175.4 244.1,176.1 234.4,176.7 234.6,177.2 				"/>
			</g>
			<polygon class="st18" points="247.6,178.4 250.9,182.4 256.5,181.9 253.6,177.5 247.3,178 			"/>
		</g>
		<polygon class="st3" points="237.1,176.6 236.9,175.4 238.6,175.3 238.9,176.5 		"/>
	</g>
</g>
<g>
	<polygon class="st1" points="282.7,115.8 271.1,167 316.4,167.2 327.2,115.5 	"/>
	<polygon class="st0" points="327.2,115.5 282.7,115.8 278.2,135.1 322.9,134.7 	"/>
	<g>
		<g>
			<polygon class="st10" points="306.4,141.5 299.5,173 301.6,176 309.6,176.2 316.7,144.9 314.6,141.7 			"/>
			<polygon class="st9" points="306.3,141.5 299.5,172.8 307.7,173.1 314.9,141.7 			"/>
		</g>
		<g>
			
				<rect x="303.4" y="169.3" transform="matrix(-0.2256 0.9742 -0.9742 -0.2256 538.642 -88.742)" class="st12" width="2.4" height="0.8"/>
			
				<rect x="304.2" y="165.6" transform="matrix(-0.2256 0.9742 -0.9742 -0.2256 536.0681 -94.151)" class="st12" width="2.4" height="0.8"/>
			
				<rect x="305.1" y="161.8" transform="matrix(-0.2256 0.9742 -0.9742 -0.2256 533.4559 -99.6425)" class="st12" width="2.4" height="0.8"/>
			
				<rect x="305.9" y="158.6" transform="matrix(-0.2256 0.9742 -0.9742 -0.2256 531.2118 -104.3619)" class="st12" width="2.4" height="0.8"/>
			
				<rect x="306.6" y="155.3" transform="matrix(-0.2256 0.9742 -0.9742 -0.2256 528.934 -109.149)" class="st12" width="2.4" height="0.8"/>
			
				<rect x="307.5" y="151.5" transform="matrix(-0.2256 0.9742 -0.9742 -0.2256 526.3599 -114.5581)" class="st12" width="2.4" height="0.8"/>
			
				<rect x="308.4" y="147.8" transform="matrix(-0.2256 0.9742 -0.9742 -0.2256 523.7479 -120.0496)" class="st12" width="2.4" height="0.8"/>
			
				<rect x="309.1" y="144.5" transform="matrix(-0.2256 0.9742 -0.9742 -0.2256 521.5024 -124.7682)" class="st12" width="2.4" height="0.8"/>
		</g>
	</g>
	<polygon class="st0" points="278.4,134.6 293.8,134.3 302.8,147.8 298.4,167.1 271.1,167.3 	"/>
	<g>
		<path class="st17" d="M299,121.7"/>
		<g>
			<rect x="301.3" y="124.8" class="st0" width="17.9" height="0.3"/>
		</g>
		<g>
			
				<rect x="306.3" y="125.9" transform="matrix(0.4624 0.8867 -0.8867 0.4624 279.1028 -208.1853)" class="st0" width="9.9" height="0.2"/>
		</g>
	</g>
	<polygon class="st0" points="315.9,167.1 271.6,167.2 277.6,187 320.4,186.7 	"/>
	<g>
		<polygon class="st17" points="316.4,130.4 302,130.4 299,121.7 313.4,121.7 		"/>
		<g>
			<rect x="300" y="124.4" class="st0" width="14.6" height="0.3"/>
		</g>
		<g>
			
				<rect x="303.5" y="126" transform="matrix(0.3257 0.9455 -0.9455 0.3257 326.9763 -206.2734)" class="st0" width="9.2" height="0.2"/>
		</g>
	</g>
	<polygon class="st9" points="307.7,141.5 308.1,139.6 310.3,139.6 310,141.9 	"/>
	<polygon class="st9" points="310.3,139.6 311.6,140.5 311.5,142.2 310,141.9 	"/>
	<g>
		<g>
			<g>
				<polygon class="st3" points="285.6,176.6 290.7,186.8 302.2,186.8 296.6,175.4 285.8,176.1 276.1,176.7 276.2,177.2 				"/>
			</g>
			<polygon class="st18" points="289.3,178.4 291.5,182.6 297.1,182.1 295.3,177.5 289,178 			"/>
		</g>
		<polygon class="st3" points="278.8,176.6 278.6,175.4 280.2,175.3 280.6,176.5 		"/>
	</g>
</g>
<g>
	<polygon class="st1" points="327.2,115.5 315.9,167.1 363.7,167.2 369.8,115.3 	"/>
	<polygon class="st0" points="369.8,115.3 327.2,115.5 322.9,134.7 367.4,134.3 	"/>
	<g>
		<g>
			<polygon class="st9" points="343.7,141.1 339.4,171.8 346.8,173.2 351.3,142.5 			"/>
			<polygon class="st10" points="339.4,171.8 339,174.2 346.4,175.5 346.8,173.2 			"/>
		</g>
		
			<rect x="346.7" y="140.5" transform="matrix(-0.9843 -0.1763 0.1763 -0.9843 664.6872 341.7094)" class="st9" width="1.7" height="1.7"/>
	</g>
	<polygon class="st0" points="363.3,167 346.2,167 350.9,134.3 367.4,134.3 	"/>
	<polygon class="st0" points="363.3,167 315.9,167.1 320.4,186.7 366.8,186.4 	"/>
	<g>
		<polygon class="st17" points="358.6,130.4 344.2,130.4 341.3,121.7 355.7,121.7 		"/>
		<g>
			<rect x="342.2" y="124.4" class="st0" width="14.6" height="0.3"/>
		</g>
		<g>
			
				<rect x="345.7" y="126" transform="matrix(0.3257 0.9455 -0.9455 0.3257 355.4712 -246.2258)" class="st0" width="9.2" height="0.2"/>
		</g>
	</g>
	<polygon class="st1" points="358.5,146.5 355.2,165.9 362.5,165.9 364.8,146.5 	"/>
	<g>
		<rect x="358.5" y="146" class="st5" width="6.3" height="0.5"/>
	</g>
	<g>
		<g>
			
				<rect x="357.1" y="143.1" transform="matrix(0.1717 0.9852 -0.9852 0.1717 439.7021 -236.3124)" class="st5" width="6.5" height="0.5"/>
		</g>
		<circle class="st5" cx="359.7" cy="140.1" r="0.8"/>
	</g>
	<g>
		<polygon class="st3" points="337.7,175.4 327.8,176.1 322.9,176.4 322.7,175.3 321.1,175.4 321.3,176.5 318.8,176.7 319,177.2 
			327.6,176.6 332.1,186.6 342.7,186.6 		"/>
		<polygon class="st18" points="329.9,178.4 332.1,182.6 337.7,182.1 335.9,177.5 329.6,178 		"/>
	</g>
</g>
<g>
	<polygon class="st1" points="412.9,115.1 410.1,167 459.1,167 457.9,114.9 	"/>
	<polygon class="st0" points="457.9,114.9 412.9,115.1 411.9,134 458.3,133.6 	"/>
	<polygon class="st11" points="420.1,133.3 413.1,133.3 410.7,166.3 419.3,166.3 419.3,166.3 420.8,140.9 	"/>
	<g>
		<g>
			
				<rect x="415.5" y="141.6" transform="matrix(-0.9989 -4.590200e-002 4.590200e-002 -0.9989 826.2164 305.5092)" class="st11" width="2.2" height="3.3"/>
			<path class="st12" d="M417.8,145.1l-2.5-0.1l0.2-3.6l2.5,0.1L417.8,145.1z M415.5,144.8l2,0.1l0.1-3.1l-2-0.1L415.5,144.8z"/>
		</g>
		<g>
			
				<rect x="414.2" y="156.2" transform="matrix(-0.9962 -8.729838e-002 8.729838e-002 -0.9962 815.3459 351.4867)" class="st11" width="2.2" height="3.3"/>
			<path class="st12" d="M416.4,159.8l-2.5-0.2l0.3-3.6l2.5,0.2L416.4,159.8z M414.2,159.4l2,0.2l0.3-3.1l-2-0.2L414.2,159.4z"/>
		</g>
		<g>
			
				<rect x="411.9" y="150.3" transform="matrix(0.9983 5.884658e-002 -5.884658e-002 0.9983 9.5794 -24.222)" class="st12" width="8.3" height="0.5"/>
		</g>
	</g>
	<g>
		<g>
			<polygon class="st9" points="424.5,139.7 423.5,170.7 431,171.2 432.3,140.2 			"/>
			<polygon class="st10" points="423.5,170.7 423.3,173 430.9,173.6 431,171.2 			"/>
		</g>
		
			<rect x="427.6" y="138.6" transform="matrix(-0.9975 -7.089876e-002 7.089876e-002 -0.9975 845.8015 308.9507)" class="st9" width="1.7" height="1.7"/>
	</g>
	<polygon class="st0" points="459,151 444.2,151.4 444.1,167.2 442.2,167.2 442.2,133.7 458.6,133.7 	"/>
	<polygon class="st0" points="459.1,166.9 410.1,166.9 410.6,186.1 459.1,185.8 	"/>
	<g>
		<g>
			<polygon class="st17" points="444.6,130.4 430.2,130.4 429.2,121.7 443.7,121.7 			"/>
			<g>
				<rect x="429.5" y="124.4" class="st0" width="14.6" height="0.3"/>
			</g>
			<g>
				<path class="st19" d="M439.8,130.4"/>
			</g>
			<g>
				<path class="st19" d="M436.8,121.7"/>
			</g>
		</g>
		<g>
			
				<rect x="432.6" y="126" transform="matrix(0.1352 0.9908 -0.9908 0.1352 502.886 -323.9887)" class="st0" width="8.8" height="0.3"/>
		</g>
	</g>
	<g>
		
			<rect x="450.8" y="144.4" transform="matrix(2.733351e-002 0.9996 -0.9996 2.733351e-002 589.8875 -303.7789)" class="st5" width="0.5" height="13.6"/>
	</g>
	<polygon class="st11" points="457.5,133.2 451.1,133.2 451,125.7 457.2,125.7 	"/>
	<g>
		<g>
			<g>
				<polygon class="st3" points="423.9,174.5 424,186 435.5,186 434.8,174 424.1,174 414.1,174.2 414.3,174.7 				"/>
			</g>
			<polygon class="st18" points="426.7,177.7 426.8,182.5 432.4,182.4 432.4,177.4 426.7,177.3 			"/>
		</g>
		<polygon class="st3" points="416.9,174.3 417,173 418.7,172.9 418.7,174.1 		"/>
	</g>
</g>
<g>
	<polygon class="st1" points="369.8,115.3 363.7,167 410.1,167 412.9,115.1 	"/>
	<polygon class="st0" points="412.9,115.1 369.8,115.3 367.4,134.3 411.9,134 	"/>
	<polygon class="st11" points="403.5,133.4 411.1,133.1 408.5,183.9 400,184.2 400,184.2 402.6,141.1 	"/>
	<g>
		<g>
			
				<rect x="405.3" y="141.6" transform="matrix(-0.9997 -2.320073e-002 2.320073e-002 -0.9997 809.3906 295.9339)" class="st11" width="2.2" height="3.3"/>
			<path class="st12" d="M407.6,145.1l-2.5-0.1l0.1-3.6l2.5,0.1L407.6,145.1z M405.4,144.8l2,0l0.1-3.1l-2,0L405.4,144.8z"/>
		</g>
		<g>
			
				<rect x="404.4" y="156.2" transform="matrix(-0.9979 -6.460066e-002 6.460066e-002 -0.9979 799.9123 341.695)" class="st11" width="2.2" height="3.3"/>
			<path class="st12" d="M406.6,159.8l-2.5-0.2l0.2-3.6l2.5,0.2L406.6,159.8z M404.4,159.4l2,0.1l0.2-3.1l-2-0.1L404.4,159.4z"/>
		</g>
		<g>
			
				<rect x="403.8" y="172.8" transform="matrix(-0.9979 -6.460066e-002 6.460066e-002 -0.9979 797.8081 374.7007)" class="st11" width="2.2" height="3.3"/>
			<path class="st12" d="M406.1,176.3l-2.5-0.2l0.2-3.6l2.5,0.2L406.1,176.3z M403.9,175.9l2,0.1l0.2-3.1l-2-0.1L403.9,175.9z"/>
		</g>
		<g>
			
				<rect x="401.9" y="150.3" transform="matrix(0.9993 3.612312e-002 -3.612312e-002 0.9993 5.7023 -14.5682)" class="st12" width="8.3" height="0.5"/>
		</g>
		<g>
			
				<rect x="400.9" y="165.8" transform="matrix(0.9994 3.599386e-002 -3.599386e-002 0.9994 6.239 -14.475)" class="st12" width="8.4" height="0.5"/>
		</g>
	</g>
	<polygon class="st0" points="367.4,134.3 381.4,134.2 384.7,150 383.6,167 363.3,167 	"/>
	<polygon class="st0" points="410.1,166.9 363.3,167 366.8,186.4 410.6,186.1 	"/>
	<g>
		<g>
			<polygon class="st17" points="400.6,130.4 386.2,130.4 385.2,121.7 399.7,121.7 			"/>
			<g>
				<rect x="385.5" y="124.4" class="st0" width="14.6" height="0.3"/>
			</g>
			<g>
				<path class="st19" d="M395.8,130.4"/>
			</g>
			<g>
				<path class="st19" d="M392.8,121.7"/>
			</g>
		</g>
		<g>
			
				<rect x="388.6" y="126" transform="matrix(0.1351 0.9908 -0.9908 0.1351 464.8573 -280.389)" class="st0" width="8.8" height="0.3"/>
		</g>
	</g>
	<g>
		<rect x="374.3" y="146.3" class="st5" width="5.5" height="0.5"/>
	</g>
	<polygon class="st1" points="374.3,146.7 372,165.9 378.1,165.9 379.9,146.7 	"/>
	<g>
		<g>
			
				<rect x="373" y="143.2" transform="matrix(0.1715 0.9852 -0.9852 0.1715 453.0947 -251.9493)" class="st5" width="6.7" height="0.5"/>
		</g>
		<circle class="st5" cx="375.6" cy="140.1" r="0.8"/>
	</g>
	<g>
		<g>
			<g>
				<polygon class="st3" points="384.3,174.5 384.4,186 395.9,186 395.3,174 384.5,174 374.5,174.2 374.7,174.7 				"/>
			</g>
			<polygon class="st18" points="387.1,177.7 387.2,182.5 392.8,182.4 392.8,177.4 387.1,177.3 			"/>
		</g>
		<polygon class="st3" points="377.3,174.3 377.4,173 379.1,172.9 379.1,174.1 		"/>
	</g>
</g>
<g>
	<polygon class="st1" points="457.9,114.9 459.1,167 498.8,166.9 496.3,115.1 	"/>
	<polygon class="st0" points="458.3,133.6 497.6,133.2 496,114.7 457.9,114.9 	"/>
	<g>
		<g>
			<polygon class="st9" points="479.3,139.9 480.5,170.9 488,170.9 487.1,139.9 			"/>
			<polygon class="st10" points="480.5,170.9 480.5,173.3 488.1,173.3 488,170.9 			"/>
		</g>
		<rect x="482.3" y="138.6" class="st9" width="1.7" height="1.7"/>
	</g>
	<polygon class="st0" points="458.6,133.7 474.4,133.7 475.1,166.3 474.2,166 473.6,151.3 459,151 	"/>
	<polygon class="st0" points="499.3,166.8 459.1,166.9 459.1,185.8 498.8,185.6 	"/>
	<g>
		<g>
			<polygon class="st17" points="485.5,130.4 471.1,130.4 470.1,121.7 484.5,121.7 			"/>
			<g>
				<rect x="470.4" y="124.4" class="st0" width="14.6" height="0.3"/>
			</g>
			<g>
				<path class="st19" d="M480.7,130.4"/>
			</g>
			<g>
				<path class="st19" d="M477.7,121.7"/>
			</g>
		</g>
		<g>
			
				<rect x="473.5" y="126" transform="matrix(0.135 0.9908 -0.9908 0.135 538.3284 -364.4587)" class="st0" width="8.8" height="0.3"/>
		</g>
	</g>
	<g>
		
			<rect x="460.5" y="150.9" transform="matrix(0.9998 2.169835e-002 -2.169835e-002 0.9998 3.3897 -10.0988)" class="st5" width="13.1" height="0.5"/>
	</g>
	<polygon class="st11" points="496.6,142.4 490.3,142.4 490,131.7 496.2,131.7 	"/>
	<polygon class="st11" points="465.6,133.2 459.2,133.2 459.1,125.7 465.3,125.7 	"/>
	<polygon class="st11" points="497.7,165.9 491.4,165.9 491.4,155 497.1,155 	"/>
	<g>
		<g>
			<g>
				<polygon class="st3" points="480.8,174.5 481,186 492.5,186 491.8,174 481,174 471.1,174.2 471.2,174.7 				"/>
			</g>
			<polygon class="st18" points="483.6,177.7 483.7,182.5 489.3,182.3 489.3,177.3 483.6,177.3 			"/>
		</g>
		<polygon class="st3" points="473.8,174.3 473.9,173 475.6,172.9 475.6,174.1 		"/>
	</g>
</g>
<g>
	<polygon class="st1" points="496,114.7 498.8,166.9 541.3,166.8 536.8,114.9 	"/>
	<polygon class="st0" points="497.6,133.2 533.9,132.9 535.4,144.9 540.7,144.9 537.9,114.5 496,114.7 	"/>
	<polygon class="st11" points="538.1,144.9 522.7,144.9 523.6,153.1 525.1,165.9 541.8,165.9 	"/>
	<polygon class="st0" points="497.3,115.8 496.3,132.7 497.9,167.7 501.4,167.6 	"/>
	<polygon class="st0" points="541.8,166.7 499.3,166.8 498.8,185.6 540.1,185.3 	"/>
	<g>
		<g>
			<polygon class="st17" points="525.2,130.4 510.8,130.4 509.8,121.7 524.3,121.7 			"/>
			<g>
				<rect x="510.1" y="124.4" class="st0" width="14.6" height="0.3"/>
			</g>
			<g>
				<path class="st19" d="M520.4,130.4"/>
			</g>
			<g>
				<path class="st19" d="M517.4,121.7"/>
			</g>
		</g>
		<g>
			
				<rect x="513.3" y="126" transform="matrix(0.135 0.9908 -0.9908 0.135 572.713 -403.8449)" class="st0" width="8.8" height="0.3"/>
		</g>
	</g>
	<g>
		
			<rect x="511.3" y="127.3" transform="matrix(0.1391 0.9903 -0.9903 0.1391 569.0244 -399.58)" class="st0" width="6" height="0.3"/>
	</g>
	<g>
		
			<rect x="518.5" y="127.3" transform="matrix(0.1526 0.9883 -0.9883 0.1526 567.9348 -407.4239)" class="st0" width="6" height="0.2"/>
	</g>
	<polygon class="st20" points="522.7,144.9 520.4,160.7 520.4,166 525.1,165.9 	"/>
	<polygon class="st21" points="532.3,144.9 530.8,132.9 530.8,122.2 534.4,122.2 536.8,144.9 	"/>
	<g>
		<polygon class="st3" points="507.6,172.6 506.3,186 520.5,186 522.4,172.6 		"/>
		<polygon class="st18" points="509.6,174.3 509,180 512.4,180 513.3,174.3 		"/>
		<polygon class="st18" points="516.1,174.3 515.5,180 518.9,180 519.8,174.3 		"/>
	</g>
</g>
<g>
	<polygon class="st1" points="537.9,143.3 560,143.3 567.9,105.2 589.8,111.2 586.9,145.8 559,146.9 561.3,166.8 540.6,166.9 	"/>
	<polyline class="st0" points="587.8,166.6 552.4,166.7 552.4,161.3 558,145.5 584.2,145 587.5,112.8 569,107.8 566,125.8 
		560,143.3 552.4,143.3 557.1,123.5 562.2,123.5 564.1,101.9 569.2,85.8 596.2,93.3 590.8,173.7 587.8,166.5 	"/>
	<polygon class="st0" points="587.8,166.6 541.8,166.7 540.1,185.3 579.1,185.1 	"/>
	<polygon class="st22" points="538.5,122.7 544.1,123.2 540.2,138.7 	"/>
	<rect x="562.6" y="158.9" class="st1" width="20.4" height="6"/>
	<g>
		<polygon class="st3" points="545.1,172.1 543.8,185.5 558,185.5 559.9,172.1 		"/>
		<polygon class="st18" points="547.1,173.7 546.5,179.5 549.9,179.5 550.8,173.7 		"/>
		<polygon class="st18" points="553.6,173.7 553,179.5 556.4,179.5 557.3,173.7 		"/>
	</g>
</g>
<path class="st14" d="M635.2,206.3h-39.9l-1.9-12.3l30.8-1l2.1-54.9l11.7,3.1l0.9-1.8l-44.3-11.9l2.8-35.2l-26.2-6.2l-2.2-0.5
	l-3.9,36.9l-8,0l0,2l9.8,0l3.8-36.4l24.4,5.8l-3.9,50.9h-33.5l2.5,20.3h-17.8l-3.8-42h5.3v-2h-5.5l-0.7-7.7l-329.3,1.7l-51.3,149.9
	l26.4,0.7l5.1-15.7h-2.6l-4.8,13.4l-21.2-0.5l20.3-59.5l30.9-0.2l-18.2,60.2l-0.1,0l-0.7,2.5l14.9-0.2l0.1-1.9l33.6-0.1l-0.2,2.2
	l14.6-0.1v-2.1l36.9-0.1l-0.1,2.4l14.6-0.2v-2.3l36.6-0.1l-0.2,2.6l14.6-0.2v-2.5l37.9-0.2l-0.2,2.8l14.6-0.2V263l38.1-0.2l-0.2,3.1
	l14.6-0.2v-2.9l34-0.1l-0.1,3.3l9.1-0.2l0.4,8.6h0l-0.2,3.3l14.6-0.2v-2.9l27.3-0.2l-0.1,3.2l14.6-0.2v-3.1l33.3-0.2v3.1l7.5-0.1
	l2.9-3l-2.3-15.1l30.7,10.2l1.5-1l3-110.7l-2-0.1L635.2,206.3z M593.2,145.9l1.2-16.3l29.8,8l-2,53.5l-29.2,1l-2.2-14.5l2.2-31.7
	L593.2,145.9z M592,146.8l-1.6,23.5l-2.9-23.5H592z M560.1,146.8h26.4l2.3,18.4l-1.5,0l0,0h-24.9L560.1,146.8z M535.5,115.6
	l4.3,50.3h-39.9l-2.7-50.1L535.5,115.6z M495.3,115.8l2.6,50.1h-22.3l-0.8-32.7h-15.4l-0.5-17.2L495.3,115.8z M474.6,165.9h-14.3
	l-0.8-31.7h14.4L474.6,165.9z M458.3,165.9h-15.6v-31.7h14.8L458.3,165.9z M457,115.9l0.5,17.2h-15.8v32.7h-30.4l2.7-49.8L457,115.9
	z M411.9,116.1l-2.7,49.8H379l2.7-31.9h-13.2l2.2-17.7L411.9,116.1z M368.4,135h12.2l-2.6,30.9h-13.5L368.4,135z M362.5,165.9h-15.6
	l4.5-30.9h15L362.5,165.9z M368.7,116.3l-2.2,17.7h-16l-4.6,31.9h-28.7l10.8-49.4L368.7,116.3z M325.9,116.4l-10.8,49.4h-27.4
	l7-31.6h-15.4l3.9-17.7l-0.2,0L325.9,116.4z M286.7,165.9h-14.2l6.7-30.6h14.3L286.7,165.9z M270.5,165.9h-16.7l8.3-30.6h15
	L270.5,165.9z M281.2,116.6l-3.9,17.7h-16l-8.7,31.6h-25.2l14.8-49.1L281.2,116.6z M196.4,261.3l17.8-58l48.4-0.4l-14.2,58.2
	L196.4,261.3z M264.6,202.9l13.2-0.1l-5.7,32.6l-15.5,0L264.6,202.9z M250.3,261.1l6.1-24.7l16.6,0l5.8-33.6l31.3-0.2l-10.5,58.4
	L250.3,261.1z M301.7,260.9l10.5-58.4l29.8-0.2l-5,32.3l17.4,0.2l-3.8,25.9L301.7,260.9z M354.5,233.8l-16.3-0.2l4.8-31.4l16.1-0.1
	L354.5,233.8z M361.1,202.2l14.3-0.1l-3.7,32l-15.2-0.2L361.1,202.2z M352.6,260.7l3.8-25.9l16.3,0.2l3.8-33l30-0.2l-4.6,58.7
	L352.6,260.7z M454,260.3l-50,0.2l4.6-58.7l28-0.2v32.9h17.6L454,260.3z M454.1,233.5h-16.6v-31.9l16.7-0.1L454.1,233.5z M456,260.3
	l0.1-25.8h17.1v-32.8h-1v31.8h-16.1l0.2-32l43.3-0.3l5.9,59L456,260.3z M508.5,270.9l-1-10.8l0,0l-6-60.6l0-0.5l-286.7,2.1l1.6-5.3
	h-2.8l-1.6,5.4l-30.8,0.2l28.8-84.6l30.2-0.1l-18.1,60.3l1.9,0.4l2.9-9.6H540l0,0.3l45.8-0.3l1.8,12.3c-2.8,3-8.2,10.9,2.6,17.6
	l10.8,72.5L508.5,270.9z M633.5,266.9l-30.6-10.3l-4.5-29.7l35.9,10.6L633.5,266.9z M634.4,235.1L598,224.6l-2.5-16.3h39.5
	L634.4,235.1z"/>
</svg>
