<svg id="图层_1" data-name="图层 1" xmlns="http://www.w3.org/2000/svg" viewBox="0 0 854.91 640"><defs><style>.cls-1{stroke:#231815;stroke-miterlimit:10;stroke-width:10px;}</style></defs><title>矢量智能对象21</title><path d="M1086.68,893.44" transform="translate(-528.56 -188)"/><path class="cls-1" d="M1203.4,363.8a19.18,19.18,0,0,1,6.43-14.3l64.2-57.61a19.22,19.22,0,1,1,25.76,28.54l-26.89,24.13h86.33a19.21,19.21,0,1,1,0,38.42H1272.9l26.89,24.13a19.15,19.15,0,0,1-12.87,33.48,19.41,19.41,0,0,1-12.89-4.88l-64.2-57.62a19.18,19.18,0,0,1-6.43-14.29m-9.6,133a19.22,19.22,0,1,1,0,38.43h-73.51A19.26,19.26,0,0,1,1101,516V221.44a19.19,19.19,0,0,1,19.27-19.18h73.51a19.21,19.21,0,1,1,0,38.42h-54.27V496.77h54.27" transform="translate(-528.56 -188)"/><path d="M1125.84,614.4A249.45,249.45,0,0,0,957,461.2V389.6a18.88,18.88,0,0,0,10.88-5.44,19.45,19.45,0,0,0,5.68-13.68V326.72c0-76.48-62.16-138.72-139-138.72-77.76,0-140.72,63-140.72,140.48v42a19.36,19.36,0,0,0,16.56,19.12v72.16C604.08,491,528.56,588.08,528.56,698.8V808.64c0,10.64,9,19.36,19.76,19.36h573.12c10.72,0,19.76-8.72,19.76-19.36V698.8a245.38,245.38,0,0,0-15.36-84.4Zm-553,38.88H742.88a194.58,194.58,0,0,0,181.28,0H1096.8a202.24,202.24,0,0,1,5.44,45.44v6.08H567.36v-6.08a202.79,202.79,0,0,1,5.44-45.44Zm159.92-324.8c0-1.44-.32-3-.24-4.48H935c0,.72-.32,1.92-.32,2.72v24.4h-202Zm101,272.16c60.16,0,110.48-43,121.36-99.84a200.7,200.7,0,0,1,30.16,12c-14.24,72-77.52,124-151.2,124.32S696.64,585.84,681.84,514a201.53,201.53,0,0,1,30.48-12.48,123.88,123.88,0,0,0,121.36,99.12Zm141.2,14a192.11,192.11,0,0,0,45.2-80.24,210.54,210.54,0,0,1,63.68,80.24M834.56,226.48a101.05,101.05,0,0,1,91.52,58.88H741.92c16.32-34.4,51.68-58.88,92.64-58.88ZM647.44,536a190.43,190.43,0,0,0,44.8,78.64H585.84A207.66,207.66,0,0,1,647.44,536ZM567.36,789.36V743.52h534.88v45.84Zm0,0" transform="translate(-528.56 -188)"/></svg>